<svg width="1400" height="980" viewBox="0 0 1400 980" fill="none" xmlns="http://www.w3.org/2000/svg">
<g clip-path="url(#clip0)">
<path fill-rule="evenodd" clip-rule="evenodd" d="M1251.36 337.018H901.721C889.711 337.018 879.974 346.754 879.974 358.765C879.974 370.776 889.711 380.513 901.721 380.513H967.993C960.154 382.054 954.24 388.956 954.24 397.245C954.24 406.666 961.878 414.304 971.299 414.304H1040.44C1048.49 414.304 1055.01 420.824 1055.01 428.868V430.868C1055.01 438.385 1049.31 444.567 1042 445.347H1049.3C1048.79 445.347 1048.29 445.379 1047.8 445.433H1002.82C994.772 445.433 988.252 451.954 988.252 459.997V461.998C988.252 470.042 994.773 476.562 1002.82 476.562H1047.88C1048.35 476.61 1048.82 476.634 1049.3 476.634H1124.19C1131.8 476.634 1138.03 470.406 1138.03 462.794V459.186C1138.03 452.278 1132.89 446.527 1126.25 445.52L1188.26 445.432C1196.3 445.432 1202.82 438.911 1202.82 430.868V428.868C1202.82 420.823 1196.3 414.304 1188.26 414.304H1157.72C1148.3 414.304 1140.66 406.666 1140.66 397.245C1140.66 388.955 1146.58 382.053 1154.42 380.513H1251.36C1263.37 380.513 1273.11 370.776 1273.11 358.765C1273.11 346.754 1263.37 337.018 1251.36 337.018Z" fill="#51ADCF"/>
<path fill-rule="evenodd" clip-rule="evenodd" d="M529.446 185.615H317.346C305.373 185.615 295.667 175.909 295.667 163.937C295.667 151.964 305.373 142.259 317.346 142.259H529.446C541.419 142.259 551.124 151.965 551.124 163.937C551.124 175.909 541.419 185.615 529.446 185.615Z" fill="#51ADCF"/>
<path fill-rule="evenodd" clip-rule="evenodd" d="M882.614 220.15H849.169C837.197 220.15 827.491 210.444 827.491 198.472C827.491 186.499 837.197 176.794 849.169 176.794H882.614C894.586 176.794 904.291 186.5 904.291 198.472C904.291 210.444 894.586 220.15 882.614 220.15Z" fill="#51ADCF"/>
<path fill-rule="evenodd" clip-rule="evenodd" d="M424.427 387.658H451.44C458.613 387.658 464.482 393.528 464.482 400.701C464.482 407.873 458.613 413.743 451.44 413.743H424.427C417.254 413.743 411.384 407.874 411.384 400.701C411.384 393.526 417.254 387.658 424.427 387.658Z" fill="white"/>
<path fill-rule="evenodd" clip-rule="evenodd" d="M128.962 200.693H273.882C281.056 200.693 286.925 206.562 286.925 213.736C286.925 220.91 281.056 226.778 273.882 226.778H128.962C121.788 226.778 115.919 220.91 115.919 213.736C115.919 206.562 121.788 200.693 128.962 200.693Z" fill="white"/>
<path fill-rule="evenodd" clip-rule="evenodd" d="M325.127 200.693H352.14C359.313 200.693 365.181 206.563 365.181 213.736C365.181 220.909 359.313 226.778 352.14 226.778H325.127C317.954 226.778 312.084 220.91 312.084 213.736C312.084 206.562 317.954 200.693 325.127 200.693Z" fill="white"/>
<path fill-rule="evenodd" clip-rule="evenodd" d="M987.707 292.419H1132.63C1139.8 292.419 1145.67 298.288 1145.67 305.462C1145.67 312.636 1139.8 318.504 1132.63 318.504H987.707C980.533 318.504 974.664 312.635 974.664 305.462C974.664 298.288 980.533 292.419 987.707 292.419Z" fill="white"/>
<path fill-rule="evenodd" clip-rule="evenodd" d="M1183.87 292.419H1210.89C1218.06 292.419 1223.93 298.289 1223.93 305.462C1223.93 312.635 1218.06 318.504 1210.89 318.504H1183.87C1176.7 318.504 1170.83 312.635 1170.83 305.462C1170.83 298.288 1176.7 292.419 1183.87 292.419Z" fill="white"/>
<path fill-rule="evenodd" clip-rule="evenodd" d="M947.441 131.749H974.454C981.627 131.749 987.496 137.619 987.496 144.791C987.496 151.963 981.627 157.834 974.454 157.834H947.441C940.268 157.834 934.399 151.965 934.399 144.791C934.399 137.617 940.269 131.749 947.441 131.749Z" fill="white"/>
<path fill-rule="evenodd" clip-rule="evenodd" d="M860.724 81.643H1005.64C1012.82 81.643 1018.69 87.512 1018.69 94.686C1018.69 101.86 1012.82 107.728 1005.64 107.728H860.724C853.55 107.728 847.681 101.86 847.681 94.686C847.681 87.512 853.55 81.643 860.724 81.643Z" fill="white"/>
<path fill-rule="evenodd" clip-rule="evenodd" d="M673.489 201.25C397.576 201.25 173.904 424.922 173.904 700.834V743.508H1173.07V700.834C1173.07 424.922 949.403 201.25 673.489 201.25Z" fill="#5F94AE"/>
<path d="M639.48 300.068H460.612V741.695H639.48V300.068Z" fill="#5D7C98"/>
<path d="M882.605 300.068H703.737V741.695H882.605V300.068Z" fill="#5D7C98"/>
<path fill-rule="evenodd" clip-rule="evenodd" d="M663.012 719.468C663.012 729.447 654.919 737.541 644.935 737.541H465.625C455.643 737.541 447.55 729.447 447.55 719.468V452.471C447.55 442.488 455.643 434.397 465.625 434.397H644.935C654.919 434.397 663.012 442.488 663.012 452.471V719.468Z" fill="#0D5172"/>
<path fill-rule="evenodd" clip-rule="evenodd" d="M663.012 713.47C663.012 723.453 654.919 731.546 644.935 731.546H465.625C455.643 731.546 447.55 723.453 447.55 713.47V446.475C447.55 436.493 455.643 428.399 465.625 428.399H644.935C654.919 428.399 663.012 436.493 663.012 446.475V713.47Z" fill="#DC2A51"/>
<path d="M645.343 433.612H465.221V713.304H645.343V433.612Z" fill="#EAEAEA"/>
<path d="M519.677 485.316H477.149V523.665H519.677V485.316Z" fill="#89C5D3"/>
<path d="M632.7 499.895H525.425V503.19H632.7V499.895Z" fill="#79ADB8"/>
<path d="M632.7 510.393H525.425V513.689H632.7V510.393Z" fill="#79ADB8"/>
<path d="M632.7 520.891H525.425V524.184H632.7V520.891Z" fill="#79ADB8"/>
<path d="M632.7 531.386H477.149V534.683H632.7V531.386Z" fill="#79ADB8"/>
<path d="M632.7 541.883H477.149V545.18H632.7V541.883Z" fill="#79ADB8"/>
<path d="M632.7 552.38H477.149V555.676H632.7V552.38Z" fill="#79ADB8"/>
<path d="M632.7 562.878H477.149V566.176H632.7V562.878Z" fill="#79ADB8"/>
<path d="M632.7 573.375H477.149V576.672H632.7V573.375Z" fill="#79ADB8"/>
<path d="M632.7 583.873H477.149V587.17H632.7V583.873Z" fill="#79ADB8"/>
<path d="M632.7 594.372H477.149V597.668H632.7V594.372Z" fill="#79ADB8"/>
<path d="M632.7 604.868H477.149V608.166H632.7V604.868Z" fill="#79ADB8"/>
<path d="M632.7 615.365H477.149V618.662H632.7V615.365Z" fill="#79ADB8"/>
<path d="M632.7 625.861H477.149V629.157H632.7V625.861Z" fill="#79ADB8"/>
<path d="M632.7 636.359H477.149V639.656H632.7V636.359Z" fill="#79ADB8"/>
<path d="M632.7 646.855H477.149V650.154H632.7V646.855Z" fill="#79ADB8"/>
<path d="M632.7 657.355H477.149V660.65H632.7V657.355Z" fill="#79ADB8"/>
<path d="M632.7 667.854H477.149V671.149H632.7V667.854Z" fill="#79ADB8"/>
<path d="M632.7 678.349H477.149V681.647H632.7V678.349Z" fill="#79ADB8"/>
<path d="M632.7 688.848H477.149V692.143H632.7V688.848Z" fill="#79ADB8"/>
<path fill-rule="evenodd" clip-rule="evenodd" d="M555.28 385.709C544.405 385.709 535.592 394.524 535.592 405.397C535.592 416.272 544.405 425.087 555.28 425.087C566.152 425.087 574.969 416.273 574.969 405.397C574.97 394.524 566.152 385.709 555.28 385.709ZM555.28 416.898C548.928 416.898 543.779 411.751 543.779 405.398C543.779 399.047 548.928 393.898 555.28 393.898C561.632 393.898 566.781 399.047 566.781 405.398C566.781 411.751 561.632 416.898 555.28 416.898Z" fill="#F78D26"/>
<path fill-rule="evenodd" clip-rule="evenodd" d="M507.002 497.914C507.002 493.171 503.156 489.325 498.414 489.325C493.671 489.325 489.825 493.171 489.825 497.914C489.825 500.669 491.127 503.114 493.144 504.686C487.864 508.289 483.757 516.658 482.276 523.665H514.55C513.069 516.658 508.963 508.289 503.682 504.686C505.7 503.114 507.002 500.669 507.002 497.914Z" fill="#79ADB8"/>
<path fill-rule="evenodd" clip-rule="evenodd" d="M613.58 422.979H496.982C487.232 422.979 479.329 430.884 479.329 440.632H631.231C631.231 430.884 623.327 422.979 613.58 422.979Z" fill="#F78D26"/>
<path fill-rule="evenodd" clip-rule="evenodd" d="M632.7 474.471C632.7 483.516 625.368 490.847 616.324 490.847C607.277 490.847 599.942 483.516 599.942 474.471C599.942 465.424 607.277 458.092 616.324 458.092C625.368 458.092 632.7 465.424 632.7 474.471Z" fill="#EF4367"/>
<path fill-rule="evenodd" clip-rule="evenodd" d="M627.166 471.367H620.167V464.365H612.475V471.367H605.475V479.057H612.475V486.059H620.167V479.057H627.166V471.367Z" fill="white"/>
<path d="M631.231 440.632H479.329V449.863H631.231V440.632Z" fill="#EA7624"/>
<path fill-rule="evenodd" clip-rule="evenodd" d="M257.236 697.506V704.522C257.236 722.553 271.97 737.301 290.036 737.301H388.593V697.506H257.236Z" fill="#EDEDEE"/>
<path fill-rule="evenodd" clip-rule="evenodd" d="M388.593 737.301H487.187C505.219 737.301 519.954 722.554 519.954 704.522V697.506H388.594V737.301H388.593Z" fill="white"/>
<path fill-rule="evenodd" clip-rule="evenodd" d="M388.593 552.914H344.706V552.84H327.126V552.914H290.036C271.972 552.914 257.236 565.392 257.236 583.424V595.055H388.592V552.914H388.593Z" fill="#EDEDEE"/>
<path fill-rule="evenodd" clip-rule="evenodd" d="M487.187 552.914H450.08H432.513H388.593V595.055H519.953V583.424C519.953 565.391 505.219 552.915 487.187 552.914Z" fill="white"/>
<path fill-rule="evenodd" clip-rule="evenodd" d="M388.593 679.399H378.046V658.293H356.947V631.923H378.046V610.832H388.593V595.055H257.236V697.506H388.593V679.399Z" fill="#DC2A51"/>
<path fill-rule="evenodd" clip-rule="evenodd" d="M388.593 610.832H399.145V631.923H420.243V658.293H399.136V679.399H388.593V697.506H519.953V595.055H388.593V610.832Z" fill="#EF4367"/>
<path fill-rule="evenodd" clip-rule="evenodd" d="M378.046 631.923H356.947V658.293H378.046V679.399H388.593V610.832H378.046V631.923Z" fill="#EDEDEE"/>
<path fill-rule="evenodd" clip-rule="evenodd" d="M399.136 679.399V658.293H420.243V631.923H399.145V610.832H388.593V679.399H399.136Z" fill="white"/>
<path fill-rule="evenodd" clip-rule="evenodd" d="M354.87 549.176C354.87 551.361 353.1 553.129 350.921 553.129H335.428C333.252 553.129 331.475 551.361 331.475 549.177C331.475 547 333.251 545.233 335.428 545.233H350.921C353.101 545.232 354.869 547 354.87 549.176Z" fill="#EDEDEE"/>
<path fill-rule="evenodd" clip-rule="evenodd" d="M445.483 549.176C445.483 551.361 443.711 553.129 441.539 553.129H426.042C423.857 553.129 422.093 551.361 422.093 549.177C422.094 547 423.858 545.233 426.042 545.233H441.54C443.712 545.232 445.483 547 445.483 549.176Z" fill="#EDEDEE"/>
<path d="M347.216 530.127H339.133V547.779H347.216V530.127Z" fill="#EDEDEE"/>
<path d="M437.825 530.127H429.747V547.779H437.825V530.127Z" fill="#EDEDEE"/>
<path fill-rule="evenodd" clip-rule="evenodd" d="M336.38 531.801C336.38 531.801 341.255 506.072 389.165 506.072C437.063 506.071 442.903 531.801 442.903 531.801H425.843C425.843 531.801 423.448 516.395 389.643 516.395C355.833 516.395 353.438 531.801 353.438 531.801H336.38Z" fill="#2F3E56"/>
<path fill-rule="evenodd" clip-rule="evenodd" d="M566.281 689.192L569.224 688.789L566.276 689.192H566.281Z" fill="black"/>
<path fill-rule="evenodd" clip-rule="evenodd" d="M964.7 886.938H693.35C681.377 886.938 671.67 877.232 671.67 865.26C671.67 853.287 681.377 843.581 693.35 843.581H964.7C976.673 843.581 986.378 853.287 986.378 865.26C986.378 877.232 976.673 886.938 964.7 886.938Z" fill="#2F3E56"/>
<path fill-rule="evenodd" clip-rule="evenodd" d="M987.198 799.387V795.05C1010.17 795.05 1028.8 787.433 1042.56 772.411C1076 735.899 1070.38 667.09 1070.32 666.399L1074.64 666.019C1074.7 666.743 1076.17 684.001 1073.41 706.179C1070.84 726.753 1063.96 755.45 1045.76 775.329C1031.15 791.292 1011.44 799.387 987.198 799.387Z" fill="#5A5D81"/>
<path fill-rule="evenodd" clip-rule="evenodd" d="M967.452 799.387V795.05C990.429 795.05 1009.06 787.429 1022.82 772.401C1056.27 735.861 1050.63 667.09 1050.57 666.401L1054.89 666.02C1054.95 666.744 1056.42 684.002 1053.66 706.18C1051.09 726.754 1044.22 755.451 1026.01 775.33C1011.4 791.292 991.696 799.387 967.452 799.387Z" fill="#5A5D81"/>
<path fill-rule="evenodd" clip-rule="evenodd" d="M999.866 735.277C1000.2 737.638 998.522 739.571 996.137 739.571H907.277C904.89 739.571 902.669 737.638 902.336 735.277L881.32 586.223C880.987 583.862 881.758 580.28 883.034 578.264L884.698 575.633C885.974 573.617 887.413 571.709 887.897 571.395C888.381 571.077 890.727 570.819 893.114 570.819H972.29C974.676 570.819 976.899 572.751 977.235 575.112L999.866 735.277Z" fill="#5A5D81"/>
<path fill-rule="evenodd" clip-rule="evenodd" d="M991.316 735.277C991.652 737.638 989.972 739.571 987.587 739.571H898.727C896.341 739.571 894.118 737.638 893.783 735.277L871.152 575.111C870.816 572.75 872.499 570.818 874.881 570.818H963.742C966.128 570.818 968.351 572.75 968.686 575.111L991.316 735.277Z" fill="white"/>
<path opacity="0.3" fill-rule="evenodd" clip-rule="evenodd" d="M985.718 695.648L887.646 691.848L884.366 668.09H981.901L985.718 695.648Z" fill="url(#paint0_linear)"/>
<path d="M1025.43 722.26H824.346V739.572H1025.43V722.26Z" fill="#5A5D81"/>
<path d="M965.134 722.26H803.6V739.572H965.134V722.26Z" fill="white"/>
<path d="M965.134 722.26H803.6V725.434H965.134V722.26Z" fill="#5A5D81"/>
<path fill-rule="evenodd" clip-rule="evenodd" d="M731.588 658.33C731.418 661.971 746.393 668.09 756.156 668.09C765.919 668.09 1110.11 668.09 1110.11 668.09C1116.08 668.09 1121.18 663.216 1121.46 657.26L1137.23 397.08C1137.42 393.117 1135.42 389.637 1132.31 387.749C1130.74 386.798 1119.82 378.568 1117.83 378.568L769.172 386.252C763.203 386.252 758.104 391.123 757.828 397.081L731.588 658.33Z" fill="#5A5D81"/>
<path fill-rule="evenodd" clip-rule="evenodd" d="M756.156 668.09C765.92 668.09 1110.11 668.09 1110.11 668.09C1114.2 668.09 1117.88 665.801 1119.88 662.447V662.445L1106.3 656.8L732.075 653.465L731.588 658.329C731.418 661.971 746.393 668.09 756.156 668.09Z" fill="#5A5D81"/>
<path fill-rule="evenodd" clip-rule="evenodd" d="M840.448 633.498C839.122 633.498 837.904 632.985 837.021 632.06C836.128 631.132 835.672 629.89 835.736 628.562L853.399 387.479C853.539 384.408 856.143 381.916 859.094 381.916H1109.55C1112.12 381.916 1115.42 383.265 1117.07 384.987C1117.56 385.499 1117.84 385.993 1117.82 386.309L1102.23 627.977C1102.1 631.002 1099.49 633.498 1096.54 633.498H840.448Z" fill="#B3C4C7"/>
<path fill-rule="evenodd" clip-rule="evenodd" d="M1106.07 393.204L1091.3 622.207H847.521L864.297 393.204H1106.07ZM1109.55 381.915H859.095C856.144 381.915 853.539 384.407 853.4 387.478L835.737 628.561C835.674 629.889 836.13 631.131 837.022 632.059C837.905 632.985 839.123 633.497 840.449 633.497H1096.54C1099.49 633.497 1102.1 631.001 1102.24 627.976L1117.83 386.308C1117.84 385.992 1117.56 385.498 1117.07 384.986C1115.42 383.264 1112.12 381.915 1109.55 381.915Z" fill="#6D6C8C"/>
<path fill-rule="evenodd" clip-rule="evenodd" d="M735.102 637.853L752.402 382.219H853.399L834.894 637.853H735.102Z" fill="white"/>
<path fill-rule="evenodd" clip-rule="evenodd" d="M1109.55 387.559C1110.25 387.559 1111.28 387.891 1112.06 388.275C1112.06 388.275 1097.69 627.498 1097.73 627.508L740.95 627.6L757.401 387.854L757.388 387.822L757.395 387.703C757.416 387.659 757.481 387.592 757.535 387.559H1109.55ZM1109.55 376.271H757.463C751.504 376.271 746.407 381.143 746.135 387.102L728.463 651.614C728.194 657.571 732.85 662.446 738.816 662.446H1096.54C1102.51 662.446 1107.6 657.571 1107.87 651.614L1123.47 386.565C1123.74 380.609 1115.51 376.271 1109.55 376.271Z" fill="white"/>
<path fill-rule="evenodd" clip-rule="evenodd" d="M897.955 542.816C897.865 542.816 897.774 542.812 897.684 542.808C895.578 542.671 893.855 540.99 893.669 538.894L890.94 508.412C890.276 508.813 889.504 509.039 888.699 509.041L858.693 509.061C856.854 509.061 855.358 507.569 855.357 505.733C855.356 504.841 855.702 504.004 856.331 503.375C856.959 502.745 857.796 502.397 858.686 502.396L887.083 502.378L890.008 494.417C890.487 493.111 891.743 492.233 893.132 492.233C893.279 492.233 893.429 492.243 893.575 492.262C895.13 492.468 896.315 493.705 896.455 495.268L897.566 507.678L901.243 450.628C901.356 448.887 902.811 447.518 904.556 447.51C906.307 447.51 907.767 448.866 907.894 450.6L910.498 486.291L910.541 486.102C910.88 484.573 912.211 483.5 913.776 483.492C915.35 483.492 916.685 484.551 917.039 486.067L920.865 502.444C946.863 502.417 919.241 502.152 960.14 502.115C959.451 501.478 958.768 500.84 958.093 500.194C955.853 498.046 953.263 495.456 951.001 492.518C948.405 489.162 946.737 485.942 945.903 482.68C945.712 481.866 945.489 480.836 945.398 479.76C945.309 478.845 945.287 477.9 945.331 476.892C945.413 474.93 945.731 473.034 946.276 471.258C946.806 469.469 947.594 467.712 948.616 466.055C949.598 464.451 950.815 462.957 952.23 461.614C953.688 460.255 955.258 459.125 956.91 458.249C958.521 457.371 960.312 456.686 962.216 456.224C962.545 456.138 962.87 456.076 963.157 456.02C963.288 455.996 963.404 455.973 963.52 455.949C963.604 455.929 963.692 455.915 963.78 455.903C963.885 455.889 963.996 455.872 964.107 455.854C964.436 455.802 964.77 455.75 965.141 455.719C965.504 455.681 965.956 455.634 966.472 455.615C966.739 455.597 967.011 455.59 967.326 455.59C967.461 455.59 967.892 455.595 967.892 455.595C967.938 455.596 967.994 455.598 968.049 455.6C969.152 455.666 970.075 455.804 971.044 456.047C971.942 456.27 972.914 456.605 973.849 457.016C976.104 458.012 978.353 459.494 980.688 461.525C981.337 460.9 981.983 460.322 982.638 459.78C984.314 458.401 985.873 457.368 987.411 456.616C989.33 455.66 991.303 455.095 993.262 454.943C993.745 454.909 994.226 454.891 994.706 454.891C996.118 454.891 997.584 455.036 999.063 455.321C1002.94 456.083 1006.52 457.835 1009.41 460.387C1012.33 462.932 1014.53 466.246 1015.77 469.967C1016.37 471.733 1016.75 473.634 1016.9 475.607C1017.04 477.706 1016.9 479.637 1016.46 481.52C1015.73 484.746 1014.15 488.045 1011.61 491.59C1009.4 494.663 1006.91 497.362 1004.76 499.598C1003.99 500.399 1003.2 501.194 1002.42 501.982C1029.84 501.958 1014.36 502.385 1032.24 502.348L1036.1 491.831C1036.58 490.525 1037.84 489.648 1039.23 489.648C1039.38 489.648 1039.52 489.657 1039.67 489.676C1041.23 489.882 1042.41 491.118 1042.55 492.682L1043.11 498.941L1046.86 440.761C1046.98 439.02 1048.43 437.65 1050.18 437.643C1051.93 437.643 1053.39 438.999 1053.51 440.733L1056.57 482.565C1057.15 481.572 1058.21 480.933 1059.42 480.925C1061 480.925 1062.33 481.982 1062.69 483.493L1067.11 502.306H1095.62C1097.46 502.306 1098.96 503.802 1098.96 505.639C1098.96 507.477 1097.46 508.972 1095.62 508.972H1064.48C1062.92 508.972 1061.59 507.915 1061.23 506.403L1059.54 499.205L1058.23 505.103C1058.03 505.99 1057.48 506.777 1056.7 507.259C1056.16 507.595 1055.54 507.775 1054.9 507.775C1054.64 507.775 1054.39 507.746 1054.14 507.689C1052.67 507.355 1051.57 506.066 1051.49 504.554L1050.4 489.594L1047.19 539.438C1047.07 541.314 1045.5 542.785 1043.63 542.785H1043.63C1043.54 542.785 1043.46 542.782 1043.38 542.776C1041.61 542.658 1040.21 541.291 1040.06 539.524L1037.2 507.64C1036.53 508.487 1035.48 509.009 1034.36 509.009L995.225 508.654C993.146 508.654 991.454 506.965 991.452 504.888C991.452 503.566 992.152 502.338 993.266 501.659L994.429 500.513C996.263 498.706 998.159 496.839 999.956 494.976C1001.94 492.913 1004.23 490.433 1006.2 487.703C1008.2 484.906 1009.43 482.394 1009.96 480.029C1010.25 478.777 1010.35 477.493 1010.25 476.084C1010.15 474.685 1009.88 473.34 1009.46 472.095C1008.59 469.485 1007.05 467.172 1005.02 465.397C1003 463.616 1000.5 462.396 997.792 461.864C996.737 461.661 995.697 461.557 994.704 461.557C994.383 461.557 994.063 461.568 993.753 461.59C992.691 461.672 991.513 462.02 990.36 462.594C989.261 463.131 988.16 463.867 986.882 464.919C985.821 465.797 984.757 466.826 983.632 468.057C982.903 468.854 981.868 469.31 980.789 469.31C979.827 469.31 978.907 468.954 978.197 468.306C978.159 468.272 978.112 468.228 978.069 468.184C975.519 465.686 973.317 464.069 971.161 463.116C970.575 462.858 969.975 462.65 969.433 462.516C968.876 462.375 968.38 462.301 967.725 462.259C967.725 462.259 967.429 462.255 967.317 462.255C967.171 462.255 967.032 462.258 966.883 462.268C966.834 462.272 966.789 462.274 966.743 462.276C966.443 462.286 966.12 462.319 965.777 462.354L965.701 462.362C965.537 462.376 965.357 462.406 965.168 462.436C965.041 462.456 964.911 462.475 964.783 462.495C964.665 462.518 964.547 462.541 964.429 462.564C964.224 462.603 964.038 462.637 963.868 462.682L963.829 462.692C962.463 463.024 961.196 463.505 960.062 464.122C958.902 464.737 957.808 465.525 956.795 466.471C955.817 467.399 954.971 468.437 954.29 469.546C953.575 470.708 953.025 471.932 952.653 473.187C952.266 474.447 952.044 475.783 951.986 477.178C951.956 477.876 951.97 478.525 952.031 479.162C952.077 479.696 952.181 480.285 952.372 481.095C952.963 483.404 954.242 485.823 956.273 488.449C958.267 491.04 960.639 493.407 962.697 495.382C964.671 497.267 966.763 499.15 968.789 500.97L969.294 501.424C970.531 502.112 971.314 503.421 971.314 504.853V504.99C971.316 506.034 970.91 507.019 970.168 507.762C969.439 508.491 968.425 508.91 967.384 508.91C967.039 508.91 966.7 508.866 966.373 508.777C923.191 508.816 958.237 509.073 918.822 509.113C916.91 509.113 915.271 507.814 914.834 505.954L913.87 501.829L913.261 504.57C912.843 506.447 911.144 507.808 909.221 507.809C908.923 507.809 908.623 507.776 908.33 507.711C906.563 507.319 905.236 505.785 905.1 503.982L904.771 499.471L902.236 538.795C902.164 539.94 901.648 540.988 900.784 541.748C900.005 542.436 898.998 542.816 897.955 542.816Z" fill="#949FA4"/>
<path fill-rule="evenodd" clip-rule="evenodd" d="M896.959 540.457C896.908 540.457 896.857 540.455 896.807 540.453C895.665 540.379 894.728 539.463 894.627 538.323L891.32 501.383L889.95 505.112C889.604 506.05 888.701 506.68 887.701 506.682L857.696 506.703C857.695 506.703 857.695 506.703 857.695 506.703C856.937 506.703 856.323 506.089 856.322 505.332C856.322 504.573 856.935 503.959 857.693 503.958L887.458 503.938L890.854 494.695C891.076 494.092 891.681 493.722 892.322 493.807C892.959 493.892 893.452 494.407 893.51 495.045L896.892 532.826L902.207 450.355C902.254 449.635 902.85 449.074 903.57 449.072C903.572 449.072 903.574 449.072 903.576 449.072C904.295 449.072 904.893 449.627 904.945 450.344L908.521 499.359L911.459 486.128C911.599 485.502 912.151 485.057 912.791 485.053C912.794 485.053 912.797 485.053 912.799 485.053C913.437 485.053 913.99 485.492 914.136 486.114L918.316 504.007L964.214 503.673C962.301 501.952 960.337 500.179 958.453 498.379C956.268 496.282 953.743 493.759 951.56 490.925C949.129 487.781 947.575 484.794 946.808 481.796C946.637 481.068 946.438 480.142 946.357 479.197C946.276 478.355 946.255 477.494 946.295 476.579C946.369 474.782 946.66 473.052 947.156 471.436C947.641 469.797 948.361 468.194 949.29 466.684C950.185 465.226 951.293 463.864 952.586 462.639C953.909 461.403 955.336 460.377 956.835 459.581C958.315 458.774 959.957 458.147 961.702 457.726C961.975 457.653 962.263 457.598 962.54 457.544C962.672 457.519 962.804 457.494 962.935 457.465C962.969 457.459 963.004 457.452 963.039 457.447C963.176 457.429 963.311 457.408 963.447 457.386C963.723 457.343 964.009 457.298 964.312 457.272C964.703 457.232 965.12 457.188 965.578 457.173C966.003 457.143 966.373 457.148 966.731 457.152L966.871 457.154C966.894 457.154 966.916 457.156 966.937 457.157C967.914 457.215 968.727 457.336 969.575 457.549C970.371 457.746 971.233 458.043 972.066 458.41C975.231 459.807 977.891 462.059 979.764 463.838C980.822 462.723 981.852 461.752 982.895 460.889C984.447 459.612 985.88 458.66 987.279 457.977C988.982 457.129 990.715 456.629 992.42 456.497C994.112 456.378 995.885 456.496 997.699 456.846C1001.23 457.54 1004.49 459.134 1007.12 461.456C1009.78 463.778 1011.79 466.799 1012.92 470.187C1013.47 471.803 1013.81 473.543 1013.95 475.35C1014.08 477.245 1013.95 478.983 1013.55 480.671C1012.89 483.65 1011.41 486.723 1009.03 490.049C1006.89 493.02 1004.45 495.654 1002.35 497.84C1000.5 499.762 998.568 501.662 996.701 503.5L996.654 503.546L1032.62 503.906L1036.95 492.107C1037.18 491.504 1037.78 491.134 1038.42 491.219C1039.06 491.303 1039.55 491.818 1039.61 492.457L1042.44 524.085L1047.83 440.487C1047.88 439.766 1048.47 439.206 1049.19 439.202C1049.19 439.202 1049.2 439.202 1049.2 439.202C1049.92 439.202 1050.51 439.757 1050.57 440.475L1054.55 495.075L1057.11 483.559C1057.25 482.934 1057.8 482.489 1058.44 482.484C1058.44 482.484 1058.45 482.484 1058.45 482.484C1059.08 482.484 1059.64 482.922 1059.79 483.542L1064.57 503.866H1094.63C1095.39 503.866 1096 504.481 1096 505.239C1096 505.997 1095.39 506.61 1094.63 506.61H1063.48C1062.85 506.61 1062.29 506.172 1062.15 505.552L1058.49 490.011L1055.32 504.276C1055.24 504.654 1055 504.989 1054.67 505.194C1054.35 505.395 1053.95 505.462 1053.58 505.377C1052.95 505.234 1052.49 504.689 1052.45 504.044L1049.28 460.595L1044.24 538.911C1044.18 539.798 1043.41 540.481 1042.52 540.419C1041.72 540.366 1041.09 539.748 1041.02 538.95L1037.42 498.794L1034.94 505.551L1033.37 506.649L994.23 506.293C993.232 506.293 992.42 505.482 992.418 504.485C992.418 503.787 992.825 503.144 993.456 502.845L994.776 501.543C996.63 499.718 998.547 497.829 1000.38 495.936C1002.41 493.822 1004.76 491.277 1006.8 488.449C1008.96 485.43 1010.29 482.684 1010.88 480.056C1011.22 478.626 1011.32 477.156 1011.21 475.546C1011.1 473.976 1010.8 472.466 1010.32 471.062C1009.34 468.129 1007.61 465.523 1005.31 463.519C1003.04 461.512 1000.23 460.138 997.176 459.539C995.6 459.236 994.067 459.133 992.622 459.233C991.3 459.336 989.869 459.754 988.493 460.438C987.264 461.039 986.043 461.853 984.642 463.004C983.506 463.944 982.376 465.036 981.19 466.335C980.488 467.103 979.294 467.157 978.525 466.456C978.508 466.44 978.488 466.422 978.47 466.403C975.725 463.714 973.339 461.971 970.959 460.921C970.27 460.617 969.561 460.372 968.91 460.21C968.23 460.04 967.6 459.946 966.805 459.897L966.696 459.896C966.359 459.891 966.068 459.887 965.749 459.911C965.729 459.913 965.711 459.913 965.692 459.915C965.322 459.927 964.963 459.964 964.582 460.003C964.573 460.004 964.552 460.007 964.543 460.007C964.338 460.025 964.111 460.06 963.873 460.097C963.733 460.118 963.594 460.141 963.455 460.16C963.324 460.188 963.191 460.213 963.059 460.239C962.816 460.286 962.586 460.33 962.375 460.385C960.835 460.759 959.417 461.299 958.133 461.997C956.835 462.686 955.605 463.571 954.466 464.636C953.356 465.689 952.398 466.864 951.628 468.12C950.824 469.426 950.203 470.808 949.782 472.227C949.351 473.631 949.101 475.129 949.036 476.694C949.002 477.483 949.019 478.219 949.09 478.947C949.142 479.561 949.259 480.233 949.472 481.14C950.138 483.743 951.534 486.403 953.732 489.245C955.805 491.937 958.241 494.369 960.349 496.392C962.347 498.3 964.452 500.193 966.488 502.024L967.185 502.652C967.882 502.959 968.363 503.658 968.363 504.449V504.586C968.364 505.108 968.16 505.603 967.79 505.974C967.246 506.519 966.404 506.696 965.687 506.414L917.83 506.75C916.834 506.75 915.98 506.072 915.752 505.104L912.832 492.601L910.357 503.743C910.095 504.915 908.931 505.652 907.761 505.395C906.833 505.189 906.136 504.381 906.064 503.431L903.659 470.465L899.289 538.267C899.25 538.889 898.969 539.46 898.499 539.873C898.069 540.254 897.527 540.457 896.959 540.457Z" fill="#DC2A51"/>
<path fill-rule="evenodd" clip-rule="evenodd" d="M896.953 540.955L896.877 540.954H896.861L896.785 540.951H896.775C896.082 540.906 895.451 540.605 894.979 540.144C894.506 539.683 894.192 539.059 894.13 538.366L891.022 503.641L890.418 505.283C890.21 505.849 889.832 506.324 889.355 506.656C888.879 506.988 888.304 507.179 887.7 507.179L857.695 507.2V507.202H857.694C857.178 507.202 856.712 506.992 856.373 506.654C856.034 506.316 855.824 505.847 855.824 505.331C855.823 504.814 856.031 504.347 856.369 504.009C856.707 503.67 857.176 503.46 857.692 503.459L887.108 503.439L890.383 494.522C890.534 494.111 890.818 493.778 891.173 493.564C891.525 493.351 891.948 493.254 892.384 493.312C892.819 493.37 893.204 493.574 893.49 493.873C893.776 494.171 893.964 494.564 894.003 495.002L896.807 526.332L901.706 450.324C901.737 449.834 901.957 449.396 902.291 449.082C902.624 448.768 903.074 448.575 903.565 448.574L903.567 448.572H903.573C904.062 448.572 904.511 448.761 904.847 449.074C905.182 449.385 905.405 449.82 905.44 450.308L908.768 495.935L910.971 486.021C911.066 485.593 911.301 485.228 911.622 484.968C911.942 484.71 912.35 484.557 912.786 484.554L912.788 484.552H912.796C913.23 484.552 913.637 484.702 913.96 484.959C914.281 485.214 914.52 485.575 914.619 485.999L918.709 503.505L962.922 503.182C962.323 502.642 961.69 502.067 960.984 501.421C959.999 500.519 959.03 499.619 958.107 498.737L958.105 498.736C957.007 497.682 955.823 496.521 954.64 495.268C953.453 494.011 952.266 492.659 951.163 491.227C949.928 489.628 948.914 488.071 948.114 486.534C947.308 484.987 946.715 483.454 946.321 481.917L946.319 481.907C946.235 481.548 946.142 481.132 946.055 480.666C945.971 480.202 945.897 479.716 945.856 479.236H945.858C945.817 478.806 945.791 478.371 945.78 477.924C945.769 477.475 945.774 477.02 945.795 476.555C945.833 475.633 945.927 474.732 946.073 473.856C946.22 472.979 946.422 472.122 946.676 471.293C946.924 470.453 947.234 469.621 947.601 468.805C947.965 467.992 948.388 467.196 948.864 466.422C949.321 465.675 949.836 464.951 950.401 464.257C950.965 463.565 951.58 462.902 952.241 462.276L952.245 462.272C952.917 461.643 953.621 461.065 954.35 460.54C955.081 460.015 955.833 459.546 956.6 459.139L956.601 459.14C957.366 458.724 958.165 458.356 958.993 458.04C959.817 457.727 960.681 457.46 961.575 457.243L961.574 457.242C961.862 457.165 962.155 457.108 962.436 457.054L962.445 457.052H962.449L962.46 457.05V457.049C962.584 457.026 962.71 457.001 962.83 456.975L962.842 456.973L962.894 456.963L962.91 456.961L962.963 456.953L962.975 456.951L963.308 456.9L963.309 456.902L963.372 456.892C963.533 456.867 963.691 456.841 963.802 456.827C963.964 456.805 964.123 456.785 964.273 456.772V456.773C964.495 456.751 964.722 456.726 964.88 456.712C965.076 456.696 965.293 456.681 965.546 456.673C965.968 456.644 966.35 456.648 966.718 456.652H966.739L966.873 456.654V456.652C966.903 456.652 966.937 456.654 966.977 456.657V456.658C967.48 456.687 967.939 456.734 968.378 456.799C968.824 456.865 969.257 456.951 969.697 457.063C970.102 457.164 970.532 457.292 970.969 457.444C971.407 457.594 971.844 457.766 972.266 457.952H972.268C973.885 458.665 975.374 459.598 976.698 460.58C977.849 461.434 978.874 462.323 979.747 463.136C980.167 462.703 980.583 462.293 980.995 461.906C981.527 461.404 982.054 460.938 982.578 460.504H982.58C983.372 459.852 984.132 459.284 984.87 458.794C985.618 458.298 986.343 457.879 987.058 457.529C987.936 457.091 988.825 456.744 989.714 456.488L989.715 456.489C990.611 456.232 991.504 456.066 992.384 455.998H992.388C993.254 455.937 994.141 455.937 995.043 455.996C995.946 456.057 996.866 456.176 997.794 456.354H997.796C999.603 456.708 1001.34 457.296 1002.97 458.091C1004.59 458.886 1006.1 459.89 1007.45 461.079C1008.81 462.27 1010.01 463.64 1011.01 465.145C1012.01 466.646 1012.81 468.288 1013.39 470.025H1013.39C1013.68 470.856 1013.91 471.717 1014.08 472.598C1014.26 473.478 1014.38 474.387 1014.45 475.313V475.315C1014.51 476.286 1014.52 477.217 1014.45 478.122C1014.38 479.031 1014.25 479.914 1014.04 480.783H1014.04C1013.7 482.311 1013.15 483.858 1012.38 485.445C1011.62 487.026 1010.64 488.651 1009.43 490.337L1009.43 490.339C1008.35 491.84 1007.2 493.253 1006.05 494.566C1004.9 495.881 1003.76 497.091 1002.71 498.185C1001.12 499.833 999.475 501.466 997.859 503.059L1032.27 503.404L1036.48 491.935C1036.64 491.523 1036.92 491.191 1037.27 490.976C1037.63 490.764 1038.05 490.667 1038.49 490.725C1038.92 490.783 1039.31 490.987 1039.59 491.285C1039.88 491.584 1040.06 491.977 1040.1 492.413V492.415L1042.36 517.591L1047.33 440.457C1047.36 439.965 1047.58 439.527 1047.92 439.213C1048.25 438.9 1048.7 438.707 1049.19 438.705L1049.19 438.703H1049.2C1049.69 438.703 1050.14 438.894 1050.47 439.206C1050.81 439.518 1051.03 439.952 1051.06 440.441L1054.8 491.652L1056.62 483.453C1056.72 483.025 1056.95 482.66 1057.27 482.401C1057.59 482.142 1058 481.99 1058.44 481.987L1058.44 481.985H1058.45C1058.88 481.985 1059.29 482.134 1059.61 482.39H1059.61C1059.93 482.646 1060.17 483.006 1060.27 483.429L1064.96 503.367H1094.63C1095.15 503.367 1095.61 503.577 1095.95 503.916C1096.29 504.254 1096.5 504.723 1096.5 505.24C1096.5 505.756 1096.29 506.224 1095.95 506.563C1095.61 506.902 1095.15 507.111 1094.63 507.111H1063.48C1063.05 507.111 1062.64 506.962 1062.32 506.706C1062 506.451 1061.76 506.09 1061.66 505.668L1058.5 492.248L1055.81 504.385C1055.75 504.639 1055.64 504.879 1055.49 505.088V505.09C1055.34 505.3 1055.15 505.481 1054.93 505.619C1054.72 505.754 1054.47 505.844 1054.22 505.886C1053.98 505.928 1053.72 505.921 1053.47 505.865C1053.05 505.768 1052.68 505.538 1052.41 505.222C1052.15 504.909 1051.98 504.512 1051.95 504.08L1049.31 467.877L1044.73 538.943V538.949V538.955C1044.69 539.531 1044.42 540.039 1044.02 540.394C1043.61 540.751 1043.08 540.955 1042.5 540.918L1042.49 540.917H1042.49C1041.96 540.883 1041.49 540.663 1041.14 540.321C1040.79 539.977 1040.56 539.513 1040.51 538.993H1040.52L1037.12 501.052L1035.4 505.723L1035.35 505.869L1035.22 505.96L1033.65 507.058L1033.52 507.149L1033.36 507.148L994.226 506.792V506.794C993.591 506.794 993.014 506.535 992.596 506.117C992.177 505.7 991.917 505.122 991.916 504.486H991.914C991.914 504.042 992.044 503.614 992.274 503.251C992.49 502.911 992.793 502.627 993.159 502.436L994.423 501.19L994.482 501.132C996.314 499.328 998.208 497.463 1000.01 495.592C1001.03 494.536 1002.12 493.374 1003.21 492.133C1004.29 490.89 1005.38 489.558 1006.39 488.161H1006.39C1007.45 486.677 1008.31 485.259 1008.98 483.889C1009.64 482.529 1010.11 481.221 1010.39 479.949V479.945C1010.55 479.256 1010.66 478.556 1010.71 477.836C1010.77 477.111 1010.76 476.364 1010.71 475.584C1010.65 474.822 1010.55 474.072 1010.41 473.34C1010.26 472.61 1010.07 471.902 1009.84 471.225V471.221C1009.37 469.799 1008.71 468.455 1007.89 467.221C1007.07 465.989 1006.09 464.869 1004.98 463.897L1004.98 463.895C1003.88 462.922 1002.64 462.101 1001.32 461.452C999.989 460.804 998.563 460.324 997.078 460.032C996.311 459.885 995.554 459.786 994.813 459.735C994.077 459.686 993.356 459.685 992.658 459.733V459.734C992.027 459.783 991.373 459.907 990.714 460.098C990.053 460.291 989.379 460.557 988.713 460.888L988.71 460.889C988.109 461.183 987.516 461.526 986.907 461.931C986.287 462.344 985.644 462.827 984.958 463.391L984.959 463.392C984.396 463.858 983.838 464.358 983.279 464.898C982.717 465.439 982.146 466.03 981.557 466.674H981.555C981.111 467.158 980.511 467.42 979.902 467.447C979.293 467.474 978.673 467.27 978.187 466.828L978.181 466.822L978.152 466.795L978.138 466.783L978.113 466.758V466.756C976.758 465.428 975.495 464.337 974.283 463.453C973.08 462.574 971.918 461.893 970.757 461.381C970.413 461.229 970.076 461.096 969.757 460.986C969.432 460.873 969.107 460.775 968.79 460.697H968.788C968.467 460.617 968.154 460.553 967.828 460.506C967.497 460.457 967.154 460.422 966.775 460.399L966.688 460.398C966.522 460.396 966.367 460.394 966.217 460.395C966.085 460.397 965.946 460.401 965.783 460.413H965.767L965.71 460.417H965.704C965.552 460.421 965.374 460.434 965.181 460.45H965.179C964.945 460.47 964.788 460.487 964.629 460.503H964.625L964.586 460.507L964.58 460.509C964.475 460.518 964.378 460.53 964.285 460.542C964.155 460.56 964.05 460.577 963.947 460.593H963.945L963.736 460.625L963.732 460.627L963.527 460.657C963.341 460.696 963.298 460.704 963.227 460.718H963.225L963.149 460.733C963.015 460.758 962.892 460.783 962.803 460.8C962.7 460.821 962.599 460.845 962.498 460.871L962.488 460.873C961.743 461.054 961.023 461.276 960.334 461.538C959.645 461.8 958.988 462.101 958.367 462.438L958.363 462.442C957.726 462.78 957.114 463.161 956.528 463.583C955.936 464.009 955.359 464.483 954.801 465.005H954.8C954.261 465.517 953.759 466.058 953.3 466.621C952.842 467.184 952.423 467.774 952.049 468.384V468.386C951.654 469.027 951.307 469.679 951.012 470.337C950.714 471.001 950.461 471.681 950.256 472.372L950.254 472.378C950.046 473.056 949.881 473.76 949.76 474.485C949.639 475.212 949.561 475.959 949.53 476.717V476.719C949.513 477.106 949.509 477.477 949.517 477.834C949.526 478.195 949.547 478.55 949.58 478.903L949.582 478.909C949.607 479.204 949.648 479.512 949.707 479.851C949.769 480.201 949.849 480.583 949.951 481.02C950.274 482.285 950.776 483.564 951.463 484.873C952.157 486.194 953.041 487.547 954.121 488.944C955.145 490.275 956.263 491.545 957.385 492.732C958.511 493.922 959.642 495.031 960.69 496.037C961.67 496.974 962.696 497.924 963.735 498.873C964.751 499.799 965.793 500.736 966.817 501.657L967.458 502.234C967.865 502.431 968.21 502.736 968.455 503.109C968.71 503.499 968.858 503.963 968.858 504.453V504.59H968.856C968.856 504.916 968.793 505.236 968.671 505.53C968.549 505.826 968.368 506.097 968.138 506.329C967.795 506.672 967.36 506.899 966.899 506.996C966.469 507.086 966.015 507.062 965.592 506.916L917.826 507.252L917.824 507.254C917.213 507.254 916.642 507.043 916.189 506.685H916.186C915.735 506.327 915.4 505.818 915.26 505.221L912.837 494.849L910.837 503.854C910.677 504.573 910.238 505.161 909.662 505.528C909.084 505.895 908.366 506.044 907.649 505.886L907.647 505.884C907.076 505.758 906.575 505.446 906.208 505.022C905.841 504.596 905.604 504.056 905.56 503.472V503.47L903.683 477.751L899.781 538.302C899.758 538.678 899.659 539.039 899.497 539.371C899.333 539.704 899.105 540.004 898.823 540.252H898.821C898.561 540.481 898.266 540.656 897.951 540.775C897.633 540.896 897.295 540.959 896.952 540.959L896.953 540.955ZM896.904 539.958L896.959 539.959V539.957C897.186 539.957 897.404 539.917 897.606 539.841C897.81 539.764 898.002 539.65 898.17 539.5H898.169C898.356 539.336 898.505 539.143 898.608 538.932C898.712 538.719 898.775 538.485 898.791 538.238L903.161 470.436L903.629 463.184L904.157 470.432L906.561 503.396H906.562C906.589 503.762 906.738 504.102 906.968 504.368C907.199 504.636 907.512 504.831 907.865 504.91L907.866 504.909C908.319 505.009 908.771 504.916 909.133 504.686C909.495 504.456 909.771 504.087 909.87 503.637L912.345 492.495L912.82 490.358L913.318 492.489L916.238 504.992C916.326 505.363 916.533 505.679 916.813 505.901L916.812 505.902C917.091 506.123 917.446 506.252 917.83 506.252V506.254L965.685 505.918L965.783 505.917L965.869 505.951C966.136 506.055 966.427 506.075 966.701 506.017C966.975 505.959 967.235 505.826 967.436 505.623C967.575 505.484 967.682 505.323 967.754 505.148C967.826 504.972 967.864 504.782 967.864 504.586H967.862V504.449C967.862 504.158 967.773 503.883 967.623 503.652C967.468 503.416 967.246 503.224 966.982 503.109L966.909 503.077L966.85 503.023L966.153 502.395C965.141 501.486 964.113 500.56 963.067 499.606C962.046 498.673 961.02 497.724 960.004 496.753L960.002 496.751C958.943 495.734 957.8 494.614 956.663 493.411C955.522 492.204 954.384 490.911 953.336 489.549C952.219 488.104 951.304 486.704 950.584 485.333C949.858 483.951 949.329 482.599 948.986 481.262L948.984 481.253C948.875 480.786 948.791 480.382 948.727 480.019V480.017C948.662 479.641 948.617 479.305 948.59 478.987H948.591C948.556 478.615 948.532 478.238 948.524 477.853C948.515 477.466 948.519 477.073 948.537 476.671C948.57 475.864 948.652 475.078 948.779 474.316C948.906 473.552 949.082 472.807 949.302 472.086C949.519 471.357 949.787 470.635 950.105 469.927C950.425 469.213 950.792 468.522 951.201 467.858H951.202C951.598 467.213 952.043 466.587 952.53 465.988C953.018 465.388 953.551 464.815 954.121 464.274L954.125 464.27C954.706 463.727 955.316 463.226 955.949 462.77C956.586 462.313 957.236 461.907 957.897 461.555L957.898 461.557C958.562 461.196 959.259 460.876 959.985 460.6C960.705 460.327 961.459 460.094 962.247 459.903V459.902C962.357 459.874 962.476 459.846 962.602 459.82C962.742 459.792 962.855 459.768 962.963 459.748L963.037 459.733L963.35 459.671L963.379 459.665L963.588 459.635V459.636L963.791 459.604C963.927 459.583 964.055 459.563 964.148 459.549C964.278 459.531 964.397 459.516 964.498 459.508V459.51L964.527 459.506C964.747 459.483 964.962 459.461 965.093 459.449C965.265 459.434 965.452 459.422 965.666 459.416L965.707 459.414V459.412C965.862 459.401 966.029 459.396 966.207 459.394C966.367 459.392 966.527 459.394 966.697 459.397L966.807 459.398H966.829C967.246 459.423 967.617 459.461 967.969 459.513C968.326 459.566 968.67 459.635 969.027 459.725V459.726C969.36 459.808 969.714 459.914 970.078 460.04C970.448 460.168 970.811 460.31 971.156 460.462C972.374 460.999 973.595 461.716 974.866 462.644C976.126 463.564 977.429 464.687 978.815 466.046L978.821 466.05L978.846 466.075L978.845 466.076L978.855 466.085H978.856C979.138 466.343 979.501 466.462 979.856 466.446C980.21 466.429 980.559 466.278 980.817 465.997H980.816C981.413 465.343 982.001 464.737 982.585 464.173C983.171 463.609 983.747 463.091 984.319 462.617H984.321C985.034 462.03 985.703 461.529 986.349 461.097C987.006 460.659 987.637 460.294 988.265 459.988C988.974 459.635 989.704 459.348 990.433 459.135C991.164 458.922 991.887 458.785 992.58 458.732H992.584C993.326 458.68 994.093 458.68 994.876 458.733C995.656 458.786 996.455 458.89 997.264 459.046H997.266C998.831 459.354 1000.34 459.862 1001.75 460.552C1003.16 461.24 1004.46 462.11 1005.63 463.142C1006.82 464.173 1007.85 465.361 1008.72 466.665C1009.58 467.966 1010.28 469.39 1010.78 470.899H1010.78C1011.03 471.624 1011.23 472.374 1011.39 473.14C1011.54 473.906 1011.65 474.699 1011.71 475.508V475.51C1011.76 476.338 1011.76 477.131 1011.71 477.901C1011.65 478.675 1011.54 479.426 1011.36 480.167H1011.36C1011.06 481.521 1010.56 482.899 1009.87 484.322C1009.18 485.736 1008.3 487.201 1007.2 488.735L1007.2 488.737C1006.17 490.166 1005.06 491.521 1003.95 492.785C1002.85 494.052 1001.75 495.221 1000.73 496.278C998.917 498.156 997.017 500.028 995.178 501.839L995.119 501.897L993.799 503.199L993.738 503.26L993.662 503.295C993.434 503.402 993.246 503.574 993.115 503.779C992.985 503.985 992.911 504.228 992.911 504.483H992.909C992.91 504.843 993.058 505.17 993.295 505.408C993.532 505.644 993.86 505.791 994.223 505.791L994.227 505.793L1033.21 506.148L1034.52 505.232L1036.95 498.621L1037.71 496.537L1037.91 498.75L1041.51 538.906H1041.51C1041.53 539.182 1041.66 539.427 1041.84 539.605C1042.02 539.785 1042.27 539.902 1042.55 539.919V539.92H1042.56H1042.56C1042.86 539.939 1043.15 539.833 1043.36 539.647C1043.57 539.459 1043.71 539.191 1043.73 538.887V538.882V538.878L1048.78 460.562L1049.25 453.312L1049.78 460.558L1052.95 504.007V504.015C1052.96 504.226 1053.04 504.421 1053.17 504.575C1053.3 504.729 1053.48 504.844 1053.69 504.89C1053.81 504.917 1053.93 504.919 1054.06 504.899C1054.18 504.878 1054.3 504.835 1054.4 504.769C1054.51 504.702 1054.6 504.613 1054.68 504.509H1054.68C1054.75 504.407 1054.8 504.29 1054.83 504.167L1058 489.902L1058.47 487.773L1058.97 489.895L1062.63 505.437C1062.68 505.635 1062.79 505.803 1062.94 505.921C1063.08 506.039 1063.27 506.108 1063.48 506.108H1094.63C1094.87 506.108 1095.09 506.01 1095.24 505.853C1095.4 505.696 1095.5 505.477 1095.5 505.237C1095.5 504.995 1095.4 504.777 1095.24 504.62C1095.09 504.462 1094.87 504.364 1094.63 504.364H1064.56H1064.17L1064.08 503.977L1059.29 483.654C1059.25 483.458 1059.14 483.288 1058.99 483.169H1058.99C1058.84 483.052 1058.65 482.982 1058.44 482.982H1058.44V482.98C1058.23 482.982 1058.04 483.054 1057.89 483.175C1057.74 483.295 1057.63 483.466 1057.59 483.664L1055.03 495.18L1054.3 498.498L1054.05 495.107L1050.06 440.507C1050.05 440.279 1049.94 440.077 1049.79 439.931C1049.63 439.787 1049.42 439.699 1049.19 439.699H1049.19V439.697C1048.96 439.699 1048.75 439.789 1048.59 439.935C1048.44 440.081 1048.34 440.286 1048.32 440.514L1042.93 524.113L1042.52 530.576L1041.94 524.125L1039.11 492.499C1039.09 492.295 1039 492.111 1038.87 491.973C1038.73 491.832 1038.55 491.737 1038.35 491.71C1038.15 491.684 1037.95 491.729 1037.79 491.828C1037.62 491.927 1037.49 492.083 1037.42 492.275L1033.08 504.074L1032.96 504.404L1032.61 504.4L996.646 504.039L995.438 504.027L996.303 503.183L996.349 503.138L996.437 503.052C998.272 501.244 1000.17 499.377 1001.99 497.489C1003.04 496.397 1004.17 495.196 1005.29 493.905C1006.42 492.612 1007.56 491.223 1008.62 489.755H1008.62C1009.79 488.114 1010.74 486.538 1011.48 485.008C1012.21 483.486 1012.74 482.008 1013.07 480.559V480.553C1013.26 479.734 1013.38 478.904 1013.45 478.048C1013.51 477.189 1013.51 476.303 1013.45 475.38C1013.38 474.501 1013.26 473.635 1013.09 472.79C1012.93 471.944 1012.71 471.126 1012.44 470.342V470.338C1011.89 468.689 1011.13 467.126 1010.17 465.692C1009.22 464.258 1008.08 462.957 1006.79 461.825L1006.79 461.823C1005.5 460.692 1004.07 459.737 1002.52 458.981C1000.98 458.227 999.325 457.668 997.598 457.329C996.711 457.159 995.834 457.044 994.974 456.987C994.118 456.931 993.275 456.931 992.453 456.989C991.63 457.053 990.803 457.206 989.981 457.442V457.444C989.152 457.682 988.321 458.008 987.497 458.419L987.493 458.421C986.81 458.755 986.12 459.152 985.415 459.62C984.699 460.096 983.967 460.642 983.208 461.266L983.209 461.268C982.691 461.696 982.181 462.148 981.673 462.626C981.157 463.111 980.642 463.627 980.12 464.176L979.777 464.538L979.416 464.193C978.491 463.315 977.373 462.32 976.099 461.375C974.833 460.437 973.409 459.544 971.861 458.861V458.859C971.451 458.679 971.04 458.517 970.64 458.38C970.241 458.241 969.84 458.122 969.452 458.026H969.45C969.044 457.923 968.644 457.843 968.228 457.782C967.808 457.719 967.374 457.677 966.905 457.648H966.897L966.867 457.647L966.861 457.645L966.721 457.643H966.7C966.365 457.639 966.017 457.635 965.606 457.664H965.588C965.391 457.67 965.175 457.685 964.955 457.703C964.696 457.725 964.522 457.744 964.357 457.761L964.347 457.763C964.193 457.776 964.056 457.793 963.931 457.81C963.755 457.834 963.631 457.854 963.517 457.872L963.453 457.882L963.451 457.884C963.37 457.897 963.291 457.909 963.097 457.935L963.073 457.939L963.032 457.947C962.9 457.976 962.77 458.001 962.642 458.025H962.638L962.628 458.027V458.028L962.619 458.029C962.352 458.081 962.075 458.134 961.823 458.202L961.812 458.204C960.967 458.408 960.141 458.664 959.342 458.969C958.543 459.274 957.78 459.623 957.065 460.013L957.06 460.017C956.327 460.406 955.614 460.85 954.926 461.344C954.238 461.838 953.567 462.391 952.917 462.997C952.288 463.594 951.703 464.225 951.168 464.882C950.632 465.539 950.145 466.227 949.708 466.938L949.706 466.94C949.254 467.674 948.852 468.433 948.505 469.207C948.157 469.979 947.863 470.77 947.627 471.571L947.625 471.577C947.384 472.362 947.191 473.178 947.052 474.016C946.911 474.857 946.822 475.718 946.785 476.592V476.594C946.765 477.043 946.761 477.477 946.77 477.897C946.78 478.319 946.805 478.734 946.844 479.144L946.846 479.149C946.886 479.615 946.953 480.064 947.03 480.482C947.106 480.893 947.197 481.301 947.284 481.667C947.657 483.128 948.224 484.59 948.995 486.069C949.771 487.56 950.752 489.069 951.946 490.614C953.025 492.016 954.192 493.343 955.36 494.581C956.531 495.821 957.703 496.971 958.79 498.014C959.75 498.931 960.706 499.82 961.649 500.683C962.488 501.45 963.507 502.369 964.539 503.296L965.494 504.155L964.207 504.165L918.309 504.499L917.912 504.503L917.821 504.114L913.641 486.221C913.595 486.024 913.484 485.854 913.333 485.736C913.184 485.618 912.994 485.548 912.79 485.548H912.782V485.546C912.581 485.548 912.39 485.62 912.241 485.741C912.091 485.862 911.98 486.033 911.936 486.23L908.997 499.461L908.261 502.779L908.014 499.388L904.438 450.372C904.422 450.145 904.318 449.942 904.162 449.798C904.007 449.653 903.797 449.566 903.567 449.566H903.561V449.564C903.333 449.565 903.124 449.655 902.968 449.802C902.813 449.948 902.71 450.152 902.696 450.38L897.381 532.851L896.964 539.316L896.387 532.863L893.005 495.082C892.987 494.881 892.899 494.697 892.765 494.558C892.631 494.419 892.452 494.323 892.25 494.295C892.046 494.268 891.847 494.315 891.682 494.414C891.518 494.514 891.385 494.668 891.315 494.86L887.919 504.103L887.799 504.429H887.451L857.686 504.449C857.446 504.449 857.227 504.548 857.07 504.706C856.912 504.865 856.814 505.084 856.814 505.325C856.814 505.565 856.912 505.783 857.07 505.941C857.227 506.098 857.446 506.196 857.688 506.196H857.689V506.198L887.694 506.177C888.09 506.177 888.466 506.051 888.779 505.833C889.091 505.615 889.338 505.304 889.475 504.933L890.844 501.204L891.611 499.118L891.809 501.333L895.116 538.272C895.156 538.719 895.36 539.124 895.667 539.422C895.975 539.723 896.384 539.918 896.831 539.947L896.904 539.958Z" fill="#DC2A51"/>
<path fill-rule="evenodd" clip-rule="evenodd" d="M802.762 392.836V417.481H779.889C773.08 417.481 767.567 411.967 767.567 405.158C767.567 401.753 768.951 398.679 771.171 396.438C773.41 394.219 776.485 392.835 779.89 392.835L802.762 392.836Z" fill="#EF4367"/>
<path fill-rule="evenodd" clip-rule="evenodd" d="M802.479 392.836V417.481H825.353C832.162 417.481 837.675 411.967 837.675 405.158C837.675 401.753 836.291 398.679 834.071 396.438C831.832 394.219 828.756 392.835 825.352 392.835L802.479 392.836Z" fill="#DC2A51"/>
<path fill-rule="evenodd" clip-rule="evenodd" d="M797.72 435.006V459.651H774.846C768.037 459.651 762.524 454.137 762.524 447.329C762.524 443.925 763.908 440.85 766.128 438.609C768.367 436.389 771.443 435.006 774.847 435.006H797.72V435.006Z" fill="#DC2A51"/>
<path fill-rule="evenodd" clip-rule="evenodd" d="M797.438 435.006V459.651H820.311C827.121 459.651 832.633 454.137 832.633 447.329C832.633 443.925 831.249 440.85 829.029 438.609C826.79 436.389 823.715 435.006 820.31 435.006H797.438V435.006Z" fill="#EF4367"/>
<path fill-rule="evenodd" clip-rule="evenodd" d="M794.198 476.623V501.268H771.325C764.516 501.268 759.003 495.754 759.003 488.946C759.003 485.541 760.387 482.467 762.607 480.225C764.846 478.006 767.921 476.623 771.326 476.623H794.198Z" fill="#EF4367"/>
<path fill-rule="evenodd" clip-rule="evenodd" d="M793.917 476.623V501.268H816.79C823.599 501.268 829.112 495.754 829.112 488.946C829.112 485.541 827.728 482.467 825.508 480.225C823.268 478.006 820.193 476.623 816.789 476.623H793.917Z" fill="#DC2A51"/>
<path fill-rule="evenodd" clip-rule="evenodd" d="M787.075 626.354C799.997 626.354 810.536 615.816 810.536 602.894C810.536 589.972 799.997 579.433 787.075 579.433C774.154 579.433 763.615 589.972 763.615 602.894C763.615 615.816 774.154 626.354 787.075 626.354Z" fill="#DC2A51"/>
<path fill-rule="evenodd" clip-rule="evenodd" d="M791.407 566.771C804.329 566.771 814.868 556.233 814.868 543.311C814.868 530.389 804.329 519.851 791.407 519.851C778.485 519.851 767.947 530.389 767.947 543.311C767.947 556.233 778.485 566.771 791.407 566.771Z" fill="#EF4367"/>
<path fill-rule="evenodd" clip-rule="evenodd" d="M863.589 582.509H898.623C900.357 582.509 901.776 583.928 901.776 585.662C901.776 587.396 900.357 588.814 898.623 588.814H863.589C861.855 588.814 860.436 587.396 860.436 585.662C860.436 583.928 861.854 582.509 863.589 582.509Z" fill="white"/>
<path fill-rule="evenodd" clip-rule="evenodd" d="M861.797 593.821H924.026C925.76 593.821 927.179 595.24 927.179 596.974C927.179 598.708 925.76 600.126 924.026 600.126H861.797C860.063 600.126 858.644 598.708 858.644 596.974C858.644 595.24 860.063 593.821 861.797 593.821Z" fill="white"/>
<path fill-rule="evenodd" clip-rule="evenodd" d="M860.744 605.928H922.973C924.707 605.928 926.126 607.346 926.126 609.08C926.126 610.814 924.707 612.234 922.973 612.234H860.744C859.01 612.234 857.591 610.814 857.591 609.08C857.591 607.346 859.01 605.928 860.744 605.928Z" fill="white"/>
<path fill-rule="evenodd" clip-rule="evenodd" d="M1059.4 405.27H1094.43C1096.16 405.27 1097.58 406.689 1097.58 408.423C1097.58 410.157 1096.16 411.576 1094.43 411.576H1059.4C1057.66 411.576 1056.24 410.158 1056.24 408.423C1056.24 406.688 1057.66 405.27 1059.4 405.27Z" fill="white"/>
<path fill-rule="evenodd" clip-rule="evenodd" d="M1221.58 774.766H151.505C141.175 774.766 132.801 766.392 132.801 756.063C132.801 745.734 141.175 737.36 151.505 737.36H1221.58C1231.91 737.36 1240.28 745.734 1240.28 756.063C1240.28 766.392 1231.91 774.766 1221.58 774.766Z" fill="#2F3E56"/>
<path fill-rule="evenodd" clip-rule="evenodd" d="M1167.54 815.628H208.722C186.155 815.628 167.86 797.333 167.86 774.766H1208.4C1208.4 797.333 1190.11 815.628 1167.54 815.628Z" fill="#2F3E56"/>
<path opacity="0.1" fill-rule="evenodd" clip-rule="evenodd" d="M1202.89 795.196C1206.37 789.181 1208.4 782.217 1208.4 774.765H167.859C167.859 782.216 169.886 789.181 173.371 795.196H1202.89Z" fill="black"/>
<path opacity="0.15" fill-rule="evenodd" clip-rule="evenodd" d="M802.966 774.766H278.784C268.438 774.766 260.052 766.379 260.052 756.034C260.052 745.689 268.439 737.302 278.784 737.302H802.966C813.312 737.302 821.698 745.689 821.698 756.034C821.698 766.379 813.312 774.766 802.966 774.766Z" fill="white"/>
<path opacity="0.1" fill-rule="evenodd" clip-rule="evenodd" d="M1140.15 774.766H1031C1020.67 774.766 1012.3 766.392 1012.3 756.063C1012.3 745.734 1020.67 737.36 1031 737.36H1140.15C1150.48 737.36 1158.85 745.734 1158.85 756.063C1158.85 766.392 1150.48 774.766 1140.15 774.766Z" fill="black"/>
<path opacity="0.3" fill-rule="evenodd" clip-rule="evenodd" d="M1000.84 393.203L931.608 622.207H983.387L1052.62 393.203H1000.84Z" fill="white"/>
<path fill-rule="evenodd" clip-rule="evenodd" d="M702.369 733.396C702.369 735.901 701.163 738.123 699.298 739.507H704.984C708.576 739.507 711.473 736.595 711.473 733.003V722.872H702.369V733.396Z" fill="#C8B58B"/>
<path fill-rule="evenodd" clip-rule="evenodd" d="M711.473 674.293V649.164C711.473 645.573 708.576 642.679 704.984 642.679H702.37V674.293H711.473Z" fill="#C8B58B"/>
<path fill-rule="evenodd" clip-rule="evenodd" d="M702.369 733.396V722.873H659.83V728.584C659.83 729.682 658.941 730.57 657.845 730.57H657.844C656.746 730.57 655.858 729.681 655.858 728.584V722.873H649.734V733.004C649.734 736.596 652.713 739.508 656.305 739.508H699.298C701.163 738.123 702.369 735.901 702.369 733.396Z" fill="#E1CFA2"/>
<path fill-rule="evenodd" clip-rule="evenodd" d="M655.857 666.017C655.857 664.92 656.746 664.032 657.843 664.032H657.844C658.941 664.032 659.829 664.921 659.829 666.017V674.293H702.368V642.679H656.304C652.712 642.679 649.733 645.574 649.733 649.164V674.293H655.857V666.017Z" fill="#E1CFA2"/>
<path fill-rule="evenodd" clip-rule="evenodd" d="M655.857 728.584C655.857 729.682 656.746 730.57 657.843 730.57H657.844C658.941 730.57 659.829 729.681 659.829 728.584V722.873H655.856V728.584H655.857Z" fill="#ECDCB9"/>
<path fill-rule="evenodd" clip-rule="evenodd" d="M659.83 666.017C659.83 664.92 658.941 664.032 657.845 664.032H657.844C656.746 664.032 655.858 664.921 655.858 666.017V674.293H659.831V666.017H659.83Z" fill="#ECDCB9"/>
<path d="M711.468 674.317H702.396V722.859H711.468V674.317Z" fill="#DBCDAE"/>
<path d="M702.369 674.293H659.83V722.873H702.369V674.293Z" fill="#ECDCB9"/>
<path d="M655.857 674.293H649.733V722.873H655.857V674.293Z" fill="#ECDCB9"/>
<path d="M659.838 674.317H655.817V722.859H659.838V674.317Z" fill="#F3E9D7"/>
<path fill-rule="evenodd" clip-rule="evenodd" d="M711.147 630.265H704.688C706.136 631.506 706.978 633.446 706.978 635.539V651.095C706.978 653.68 705.659 655.799 703.586 657.201H711.147C714.737 657.201 717.64 654.262 717.64 650.672V636.772C717.641 633.182 714.737 630.265 711.147 630.265Z" fill="#EA7624"/>
<path fill-rule="evenodd" clip-rule="evenodd" d="M706.979 651.095V635.539C706.979 633.445 706.137 631.506 704.689 630.265H650.11C646.521 630.265 643.565 633.182 643.565 636.772V650.672C643.565 654.262 646.521 657.201 650.11 657.201H703.587C705.659 655.799 706.979 653.68 706.979 651.095Z" fill="#F78D26"/>
<path fill-rule="evenodd" clip-rule="evenodd" d="M657.313 647.73C657.313 650.068 655.418 651.963 653.081 651.963H652.941C650.604 651.963 648.709 650.067 648.709 647.73V639.921C648.709 637.583 650.605 635.689 652.941 635.689H653.081C655.419 635.689 657.313 637.584 657.313 639.921V647.73Z" fill="#FFCA6A"/>
<path fill-rule="evenodd" clip-rule="evenodd" d="M668.31 666.159C674.135 666.159 678.857 670.881 678.857 676.705V728.962C678.857 734.786 674.135 739.508 668.31 739.508H576.919C571.095 739.508 566.372 734.786 566.372 728.962V676.705C566.372 670.881 571.095 666.159 576.919 666.159H668.31Z" fill="#B3B4B3"/>
<path fill-rule="evenodd" clip-rule="evenodd" d="M669.575 700.598C670.831 700.598 671.849 701.616 671.849 702.871C671.849 704.126 670.83 705.144 669.575 705.144H575.727C574.471 705.144 573.454 704.126 573.454 702.871C573.454 701.616 574.472 700.598 575.727 700.598H669.575Z" fill="#9A9999"/>
<path d="M584.403 729.923C589.828 729.923 594.226 725.525 594.226 720.1C594.226 714.675 589.828 710.277 584.403 710.277C578.978 710.277 574.58 714.675 574.58 720.1C574.58 725.525 578.978 729.923 584.403 729.923Z" fill="#D9DAD9"/>
<path d="M583.95 730.764C589.375 730.764 593.773 726.366 593.773 720.941C593.773 715.516 589.375 711.118 583.95 711.118C578.525 711.118 574.127 715.516 574.127 720.941C574.127 726.366 578.525 730.764 583.95 730.764Z" fill="white"/>
<path fill-rule="evenodd" clip-rule="evenodd" d="M589.768 719.656C590.507 719.663 591.099 720.268 591.092 721.008C591.083 721.746 590.479 722.34 589.739 722.331L578.144 722.208C577.405 722.2 576.812 721.595 576.82 720.855C576.828 720.117 577.433 719.524 578.173 719.532L589.768 719.656Z" fill="#D9DAD9"/>
<path d="M584.403 694.694C589.828 694.694 594.226 690.296 594.226 684.871C594.226 679.446 589.828 675.048 584.403 675.048C578.978 675.048 574.58 679.446 574.58 684.871C574.58 690.296 578.978 694.694 584.403 694.694Z" fill="#D9DAD9"/>
<path d="M583.95 695.536C589.375 695.536 593.773 691.138 593.773 685.713C593.773 680.288 589.375 675.89 583.95 675.89C578.525 675.89 574.127 680.288 574.127 685.713C574.127 691.138 578.525 695.536 583.95 695.536Z" fill="white"/>
<path fill-rule="evenodd" clip-rule="evenodd" d="M589.768 684.427C590.507 684.436 591.099 685.04 591.092 685.78C591.083 686.518 590.479 687.112 589.739 687.104L578.144 686.98C577.405 686.972 576.812 686.367 576.82 685.627C576.828 684.889 577.433 684.296 578.173 684.304L589.768 684.427Z" fill="#D9DAD9"/>
<path d="M610.028 729.923C615.453 729.923 619.851 725.525 619.851 720.1C619.851 714.675 615.453 710.277 610.028 710.277C604.603 710.277 600.205 714.675 600.205 720.1C600.205 725.525 604.603 729.923 610.028 729.923Z" fill="#D9DAD9"/>
<path d="M609.575 730.764C615 730.764 619.398 726.366 619.398 720.941C619.398 715.516 615 711.118 609.575 711.118C604.15 711.118 599.752 715.516 599.752 720.941C599.752 726.366 604.15 730.764 609.575 730.764Z" fill="white"/>
<path fill-rule="evenodd" clip-rule="evenodd" d="M615.393 719.656C616.131 719.663 616.724 720.268 616.716 721.008C616.708 721.746 616.103 722.34 615.364 722.331L603.768 722.208C603.03 722.2 602.437 721.595 602.445 720.855C602.453 720.117 603.058 719.524 603.797 719.532L615.393 719.656Z" fill="#D9DAD9"/>
<path d="M610.028 694.694C615.453 694.694 619.851 690.296 619.851 684.871C619.851 679.446 615.453 675.048 610.028 675.048C604.603 675.048 600.205 679.446 600.205 684.871C600.205 690.296 604.603 694.694 610.028 694.694Z" fill="#D9DAD9"/>
<path d="M609.575 695.536C615 695.536 619.398 691.138 619.398 685.713C619.398 680.288 615 675.89 609.575 675.89C604.15 675.89 599.752 680.288 599.752 685.713C599.752 691.138 604.15 695.536 609.575 695.536Z" fill="white"/>
<path fill-rule="evenodd" clip-rule="evenodd" d="M615.393 684.427C616.131 684.436 616.724 685.04 616.716 685.78C616.708 686.518 616.103 687.112 615.364 687.104L603.768 686.98C603.03 686.972 602.437 686.367 602.445 685.627C602.453 684.889 603.058 684.296 603.797 684.304L615.393 684.427Z" fill="#D9DAD9"/>
<path d="M635.652 729.923C641.077 729.923 645.475 725.525 645.475 720.1C645.475 714.675 641.077 710.277 635.652 710.277C630.227 710.277 625.829 714.675 625.829 720.1C625.829 725.525 630.227 729.923 635.652 729.923Z" fill="#D9DAD9"/>
<path d="M635.2 730.764C640.625 730.764 645.023 726.366 645.023 720.941C645.023 715.516 640.625 711.118 635.2 711.118C629.775 711.118 625.377 715.516 625.377 720.941C625.377 726.366 629.775 730.764 635.2 730.764Z" fill="white"/>
<path fill-rule="evenodd" clip-rule="evenodd" d="M641.017 719.656C641.756 719.663 642.349 720.268 642.341 721.008C642.333 721.746 641.728 722.34 640.988 722.331L629.393 722.208C628.654 722.2 628.061 721.595 628.069 720.855C628.077 720.117 628.682 719.524 629.422 719.532L641.017 719.656Z" fill="#D9DAD9"/>
<path d="M635.652 694.694C641.077 694.694 645.475 690.296 645.475 684.871C645.475 679.446 641.077 675.048 635.652 675.048C630.227 675.048 625.829 679.446 625.829 684.871C625.829 690.296 630.227 694.694 635.652 694.694Z" fill="#D9DAD9"/>
<path d="M635.2 695.536C640.625 695.536 645.023 691.138 645.023 685.713C645.023 680.288 640.625 675.89 635.2 675.89C629.775 675.89 625.377 680.288 625.377 685.713C625.377 691.138 629.775 695.536 635.2 695.536Z" fill="white"/>
<path fill-rule="evenodd" clip-rule="evenodd" d="M641.017 684.427C641.756 684.436 642.349 685.04 642.341 685.78C642.333 686.518 641.728 687.112 640.988 687.104L629.393 686.98C628.654 686.972 628.061 686.367 628.069 685.627C628.077 684.889 628.682 684.296 629.422 684.304L641.017 684.427Z" fill="#D9DAD9"/>
<path d="M661.277 729.923C666.702 729.923 671.1 725.525 671.1 720.1C671.1 714.675 666.702 710.277 661.277 710.277C655.852 710.277 651.454 714.675 651.454 720.1C651.454 725.525 655.852 729.923 661.277 729.923Z" fill="#D9DAD9"/>
<path d="M660.824 730.764C666.249 730.764 670.647 726.366 670.647 720.941C670.647 715.516 666.249 711.118 660.824 711.118C655.399 711.118 651.001 715.516 651.001 720.941C651.001 726.366 655.399 730.764 660.824 730.764Z" fill="white"/>
<path fill-rule="evenodd" clip-rule="evenodd" d="M666.642 719.656C667.381 719.663 667.973 720.268 667.965 721.008C667.957 721.746 667.353 722.34 666.613 722.331L655.018 722.208C654.279 722.2 653.686 721.595 653.694 720.855C653.702 720.117 654.307 719.524 655.047 719.532L666.642 719.656Z" fill="#D9DAD9"/>
<path d="M661.277 694.694C666.702 694.694 671.1 690.296 671.1 684.871C671.1 679.446 666.702 675.048 661.277 675.048C655.852 675.048 651.454 679.446 651.454 684.871C651.454 690.296 655.852 694.694 661.277 694.694Z" fill="#D9DAD9"/>
<path d="M660.824 695.536C666.249 695.536 670.647 691.138 670.647 685.713C670.647 680.288 666.249 675.89 660.824 675.89C655.399 675.89 651.001 680.288 651.001 685.713C651.001 691.138 655.399 695.536 660.824 695.536Z" fill="white"/>
<path fill-rule="evenodd" clip-rule="evenodd" d="M666.642 684.427C667.381 684.436 667.973 685.04 667.965 685.78C667.957 686.518 667.353 687.112 666.613 687.104L655.018 686.98C654.279 686.972 653.686 686.367 653.694 685.627C653.702 684.889 654.307 684.296 655.047 684.304L666.642 684.427Z" fill="#D9DAD9"/>
<path d="M579.345 580.93H575.746V593.312H579.345V580.93Z" fill="#DDDDDE"/>
<path d="M590.011 580.93H583.971V593.312H590.011V580.93Z" fill="#F0B84F"/>
<path d="M583.971 580.93H579.345V593.312H583.971V580.93Z" fill="#FFCA6A"/>
<path fill-rule="evenodd" clip-rule="evenodd" d="M569.634 597.32V607.99H573.029V592.058C571.027 592.965 569.634 594.979 569.634 597.32Z" fill="#DDDDDE"/>
<path fill-rule="evenodd" clip-rule="evenodd" d="M573.028 592.059V607.991H575.411V591.545C574.562 591.544 573.755 591.729 573.028 592.059Z" fill="#EFF0EF"/>
<path d="M587.37 591.544H575.411V607.99H587.37V591.544Z" fill="#FFCA6A"/>
<path fill-rule="evenodd" clip-rule="evenodd" d="M596.123 597.32C596.123 594.13 593.537 591.544 590.347 591.544H587.37V607.99H596.123V597.32V597.32Z" fill="#F0B84F"/>
<path fill-rule="evenodd" clip-rule="evenodd" d="M601.022 645.635V631.375C601.022 629.336 599.377 627.693 597.339 627.693H595.855V645.634H601.022V645.635Z" fill="#5798BA"/>
<path fill-rule="evenodd" clip-rule="evenodd" d="M569.46 627.703C567.537 627.833 565.984 629.422 565.984 631.375V645.635H569.46V640.939V627.703Z" fill="#74C0EB"/>
<path fill-rule="evenodd" clip-rule="evenodd" d="M571.715 627.693V640.938V645.635H595.855V627.693H571.715Z" fill="#74C0EB"/>
<path fill-rule="evenodd" clip-rule="evenodd" d="M570.588 639.812C569.965 639.812 569.46 640.317 569.46 640.939V645.635H571.715V640.939C571.715 640.316 571.21 639.812 570.588 639.812Z" fill="#CFE5F7"/>
<path fill-rule="evenodd" clip-rule="evenodd" d="M570.587 639.812C571.21 639.812 571.715 640.317 571.715 640.939V627.694H569.714C569.629 627.694 569.544 627.699 569.46 627.704V640.939C569.46 640.316 569.965 639.812 570.587 639.812Z" fill="#CFE5F7"/>
<path fill-rule="evenodd" clip-rule="evenodd" d="M601.021 643.465H579.345V655.037L603.481 655.586V646.494C602.407 645.349 601.492 644.266 601.021 643.465Z" fill="#5798BA"/>
<path fill-rule="evenodd" clip-rule="evenodd" d="M610.015 652.758C610.015 652.758 606.23 649.426 603.481 646.494V655.586L608.832 655.708L610.015 652.758Z" fill="#5798BA"/>
<path fill-rule="evenodd" clip-rule="evenodd" d="M558.04 655.708L556.856 652.758C556.856 652.758 564.172 646.317 565.85 643.465H582.118V655.037L558.04 655.708Z" fill="#5798BA"/>
<path fill-rule="evenodd" clip-rule="evenodd" d="M603.456 733.973C603.456 736.268 602.352 738.303 600.643 739.572H605.852C609.142 739.572 611.796 736.905 611.796 733.614V724.333H603.456V733.973V733.973Z" fill="#5798BA"/>
<path fill-rule="evenodd" clip-rule="evenodd" d="M611.796 679.826V656.805C611.796 653.514 609.142 650.864 605.852 650.864H603.456V679.827H611.796V679.826Z" fill="#5798BA"/>
<path fill-rule="evenodd" clip-rule="evenodd" d="M603.456 733.973V724.332H564.484V729.564C564.484 730.568 563.67 731.382 562.666 731.382H562.665C561.66 731.382 560.845 730.568 560.845 729.564V724.332H555.235V733.613C555.235 736.904 557.965 739.571 561.256 739.571H600.644C602.352 738.303 603.456 736.268 603.456 733.973Z" fill="#74C0EB"/>
<path fill-rule="evenodd" clip-rule="evenodd" d="M560.845 672.243C560.845 671.238 561.66 670.424 562.665 670.424H562.666C563.67 670.424 564.484 671.238 564.484 672.243V679.826H603.456V650.863H561.255C557.965 650.863 555.234 653.513 555.234 656.804V679.825H560.844V672.243H560.845Z" fill="#74C0EB"/>
<path fill-rule="evenodd" clip-rule="evenodd" d="M560.845 729.564C560.845 730.568 561.66 731.382 562.665 731.382H562.666C563.67 731.382 564.484 730.568 564.484 729.564V724.332H560.844V729.564H560.845Z" fill="#CFE5F7"/>
<path fill-rule="evenodd" clip-rule="evenodd" d="M564.484 672.243C564.484 671.238 563.67 670.424 562.666 670.424H562.665C561.66 670.424 560.845 671.238 560.845 672.243V679.826H564.485V672.243H564.484Z" fill="#CFE5F7"/>
<path d="M611.792 679.848H603.48V724.32H611.792V679.848Z" fill="#DBCDAE"/>
<path d="M603.456 679.826H564.484V724.332H603.456V679.826Z" fill="#ECDCB9"/>
<path d="M560.844 679.826H555.234V724.332H560.844V679.826Z" fill="#ECDCB9"/>
<path d="M564.493 679.848H560.809V724.32H564.493V679.848Z" fill="#F3E9D7"/>
<path d="M606.748 627.693H559.009V632.744H606.748V627.693Z" fill="#DDDDDE"/>
<path fill-rule="evenodd" clip-rule="evenodd" d="M573.028 547.08V582.424H577.595V538.766C574.851 540.514 573.028 543.584 573.028 547.08Z" fill="#EFF0EF"/>
<path fill-rule="evenodd" clip-rule="evenodd" d="M582.878 537.23C580.935 537.23 579.122 537.793 577.596 538.765V582.423H587.37V538.311C586.023 537.62 584.496 537.23 582.878 537.23Z" fill="#FFCA6A"/>
<path fill-rule="evenodd" clip-rule="evenodd" d="M592.728 547.08C592.728 543.258 590.551 539.944 587.371 538.311V582.423H592.728V547.08Z" fill="#F0B84F"/>
<path d="M606.201 580.024H559.557V584.824H606.201V580.024Z" fill="#F0B84F"/>
<path fill-rule="evenodd" clip-rule="evenodd" d="M606.748 613.515C606.748 609.301 604.243 605.672 600.643 604.034V627.694H606.748V613.515Z" fill="#F78D26"/>
<path fill-rule="evenodd" clip-rule="evenodd" d="M600.643 604.033C599.33 603.437 597.872 603.104 596.337 603.104V627.693H600.643V604.033Z" fill="#EA7624"/>
<path fill-rule="evenodd" clip-rule="evenodd" d="M569.42 603.104C563.67 603.104 559.009 607.765 559.009 613.514V627.693H573.029V603.104H569.42Z" fill="#F78D26"/>
<path d="M583.97 603.104H573.028V627.693H583.97V603.104Z" fill="#EA7624"/>
<path d="M596.337 603.104H583.971V627.693H596.337V603.104Z" fill="#F78D26"/>
<path fill-rule="evenodd" clip-rule="evenodd" d="M798.016 734.111C798.015 734.111 798.015 734.112 798.016 734.111C798.896 732.57 799.392 730.774 799.392 728.869V728.865C799.392 723.041 794.704 718.318 788.881 718.318H773.892H758.914C753.09 718.318 748.364 723.041 748.364 728.865V728.869C748.364 730.772 748.863 732.566 749.748 734.107C749.751 734.109 749.75 734.109 749.753 734.111C751.578 737.277 754.999 739.389 758.914 739.389H773.892H788.881C792.796 739.39 796.202 737.277 798.016 734.111Z" fill="#3A92CD"/>
<path fill-rule="evenodd" clip-rule="evenodd" d="M798.016 734.106C796.27 734.992 794.294 735.508 792.202 735.508H773.895V739.389H788.881C792.796 739.39 796.202 737.273 798.016 734.106Z" fill="#EA7624"/>
<path fill-rule="evenodd" clip-rule="evenodd" d="M799.392 728.865C799.392 723.041 794.704 718.318 788.881 718.318H773.895V735.508H792.202C794.295 735.508 796.263 735.003 798.01 734.118C798.895 732.573 799.393 730.777 799.393 728.868V728.865H799.392Z" fill="#F78D26"/>
<path fill-rule="evenodd" clip-rule="evenodd" d="M755.594 735.509C753.49 735.509 751.499 734.987 749.74 734.092C751.563 737.268 754.993 739.39 758.914 739.39H773.894V735.509H755.594Z" fill="#98A4A9"/>
<path fill-rule="evenodd" clip-rule="evenodd" d="M773.895 735.509V718.319H758.915C753.091 718.319 748.365 723.042 748.365 728.866V728.87C748.365 730.773 748.864 732.563 749.749 734.104C751.508 735 753.49 735.509 755.595 735.509H773.895Z" fill="#D3DEE1"/>
<path fill-rule="evenodd" clip-rule="evenodd" d="M786.063 722.336H787.813C787.823 722.336 787.834 722.345 787.843 722.345C787.854 722.344 789.134 722.317 790.662 722.78C792.638 723.38 794.09 724.495 794.979 726.089C795.041 726.2 795.124 726.292 795.219 726.362C795.482 726.555 795.844 726.591 796.147 726.423C796.412 726.276 796.567 726.01 796.586 725.73L796.588 725.729C796.587 725.728 796.586 725.727 796.586 725.726C796.587 725.708 796.588 725.691 796.588 725.673C796.588 725.53 796.553 725.387 796.479 725.254C795.372 723.27 793.512 721.839 791.102 721.122C789.398 720.615 787.985 720.634 787.8 720.634H786.062H773.894V722.337H786.063V722.336Z" fill="#EA7624"/>
<path fill-rule="evenodd" clip-rule="evenodd" d="M752.488 726.091C753.378 724.496 754.83 723.384 756.804 722.785C758.333 722.321 759.614 722.344 759.624 722.345C759.634 722.345 759.645 722.336 759.654 722.336H761.404H773.893V720.633H761.404H759.666C759.481 720.633 758.068 720.614 756.365 721.121C753.955 721.838 752.095 723.267 750.987 725.252C750.913 725.385 750.878 725.529 750.878 725.671C750.878 725.689 750.879 725.707 750.88 725.725C750.879 725.725 750.879 725.727 750.878 725.728L750.88 725.729C750.9 726.009 751.055 726.276 751.318 726.422C751.622 726.592 751.984 726.557 752.246 726.363C752.344 726.292 752.427 726.201 752.488 726.091Z" fill="#F4F5FB"/>
<path fill-rule="evenodd" clip-rule="evenodd" d="M717.976 738.762C717.976 738.762 717.975 738.763 717.975 738.764C718.889 737.163 719.404 735.301 719.404 733.325V733.321C719.404 727.279 714.542 722.38 708.501 722.38H692.952H677.413C671.372 722.38 666.47 727.279 666.47 733.321V733.325C666.47 735.3 666.988 737.161 667.906 738.76C667.909 738.761 667.908 738.761 667.911 738.763C669.805 742.048 673.354 744.24 677.414 744.24H692.953H708.5C712.561 744.238 716.095 742.047 717.976 738.762Z" fill="#3A92CD"/>
<path fill-rule="evenodd" clip-rule="evenodd" d="M717.976 738.758C716.164 739.676 714.115 740.212 711.944 740.212H692.954V744.238H708.5C712.561 744.238 716.095 742.043 717.976 738.758Z" fill="#5798BA"/>
<path fill-rule="evenodd" clip-rule="evenodd" d="M719.403 733.32C719.403 727.278 714.541 722.379 708.5 722.379H692.953V740.212H711.943C714.114 740.212 716.156 739.689 717.968 738.771C718.885 737.168 719.403 735.305 719.403 733.325V733.32V733.32Z" fill="#74C0EB"/>
<path fill-rule="evenodd" clip-rule="evenodd" d="M673.968 740.212C671.785 740.212 669.721 739.67 667.897 738.742C669.788 742.035 673.346 744.238 677.413 744.238H692.954V740.212H673.968Z" fill="#98A4A9"/>
<path fill-rule="evenodd" clip-rule="evenodd" d="M692.953 740.212V722.379H677.412C671.371 722.379 666.469 727.278 666.469 733.32V733.324C666.469 735.299 666.987 737.156 667.905 738.755C669.729 739.684 671.786 740.212 673.968 740.212H692.953V740.212Z" fill="#D3DEE1"/>
<path fill-rule="evenodd" clip-rule="evenodd" d="M705.576 726.546H707.391C707.401 726.546 707.412 726.557 707.422 726.556C707.433 726.556 708.762 726.527 710.347 727.008C712.396 727.629 713.903 728.785 714.826 730.44C714.89 730.554 714.976 730.65 715.075 730.723C715.348 730.924 715.723 730.961 716.038 730.786C716.311 730.634 716.474 730.358 716.493 730.067L716.495 730.066C716.495 730.065 716.494 730.063 716.493 730.062C716.495 730.043 716.495 730.026 716.495 730.007C716.495 729.86 716.459 729.711 716.383 729.573C715.233 727.513 713.304 726.03 710.804 725.286C709.037 724.761 707.571 724.78 707.38 724.78H705.576H692.953V726.546H705.576Z" fill="#CFE5F7"/>
<path fill-rule="evenodd" clip-rule="evenodd" d="M670.747 730.441C671.67 728.787 673.177 727.633 675.226 727.012C676.811 726.531 678.14 726.555 678.151 726.555C678.162 726.556 678.172 726.545 678.182 726.545H679.997H692.953V724.779H679.997H678.193C678.003 724.779 676.536 724.759 674.768 725.285C672.269 726.029 670.339 727.512 669.19 729.571C669.114 729.708 669.077 729.858 669.077 730.005C669.077 730.024 669.078 730.042 669.079 730.061C669.079 730.062 669.078 730.064 669.077 730.065L669.079 730.066C669.1 730.357 669.261 730.632 669.534 730.785C669.849 730.961 670.224 730.925 670.497 730.724C670.597 730.65 670.683 730.557 670.747 730.441Z" fill="#F4F5FB"/>
<path fill-rule="evenodd" clip-rule="evenodd" d="M245.724 369.427H347.893C355.067 369.427 360.936 375.296 360.936 382.47C360.936 389.644 355.067 395.513 347.893 395.513H245.724C238.549 395.513 232.681 389.644 232.681 382.47C232.681 375.296 238.549 369.427 245.724 369.427Z" fill="white"/>
</g>
<defs>
<linearGradient id="paint0_linear" x1="935.042" y1="657.758" x2="935.042" y2="705.98" gradientUnits="userSpaceOnUse">
<stop stop-color="#333C3E"/>
<stop offset="0.18" stop-color="#80898E"/>
<stop offset="0.61" stop-color="#C5CED2"/>
<stop offset="1" stop-color="#C5CED2"/>
</linearGradient>
<clipPath id="clip0">
<rect width="1400" height="980" fill="white"/>
</clipPath>
</defs>
</svg>
