<?xml version="1.0" encoding="UTF-8" standalone="no"?>
<svg
   xmlns:dc="http://purl.org/dc/elements/1.1/"
   xmlns:cc="http://creativecommons.org/ns#"
   xmlns:rdf="http://www.w3.org/1999/02/22-rdf-syntax-ns#"
   xmlns:svg="http://www.w3.org/2000/svg"
   xmlns="http://www.w3.org/2000/svg"
   version="1.1"
   id="Layer_1"
   x="0px"
   y="0px"
   viewBox="0 0 792 792"
   style="enable-background:new 0 0 792 792;"
   xml:space="preserve"
   width="792px"
   height="792px"><metadata
   id="metadata111"><rdf:RDF><cc:Work
       rdf:about=""><dc:format>image/svg+xml</dc:format><dc:type
         rdf:resource="http://purl.org/dc/dcmitype/StillImage" /><dc:title></dc:title></cc:Work></rdf:RDF></metadata><defs
   id="defs109" />

<g
   id="g48">
	<path
   d="M204.8,712.2c-0.7-2.9-5.5-5.8-7.6-7.5c-0.5-0.1-0.9-0.4-1.1-0.8c-0.6-1.3-1-2.7-1.3-4.1   c0.7-1.3,0.6-3-0.4-4.1c1.8-1.8,3-16.9,1.1-18.7c0.3-0.2,2.2-5.1,0.3-5.1c1.5-1.7,1.5-3,0.1-5.1c1.9-1.4,1.4-7.2,0.8-8.9   c-0.1-0.1-0.1-0.4,0-0.6c0.8-1.3,0.7-3.1-0.4-4.2c8-8-5.2-47.7-17.2-35.7c-1.8,2.8-7,2.9-9,7c-1.2,1.2-1.8,3.1-2,4.8h-1.8   c0,4.4-0.5,9.2,0,13.5c-0.1,0.7,0,1.5,0.4,2.1v2.1c-0.4,0.7-0.4,1.5-0.3,2.3c-1.6,8.7-1.7,23,0,31.7c0,1,0.4,1.8,1.1,2.5   c-1.7,1.3-1.1,3.6,0,4.9c-1.6,1.5-1.2,3.6,0,5.1c-0.6,0.4-0.8,1-1,1.7c0,2.4-0.3,5.2,1.3,7.5c0.1,0.1,0.1,0.4,0.1,0.7   c-0.3,1.7,0.7,3.2,2.4,3.8c-1.4,8.2,10.5,5.7,11.8,9.6c0.9,1.5,10.2,4,11.4,4.2C198,720.9,208.2,720.1,204.8,712.2L204.8,712.2z    M305.3,711c-0.8-3.2-6.2-6.5-8.5-8.3c-0.6-0.1-1-0.4-1.3-0.9c-0.7-1.5-1.1-3-1.4-4.6c0.8-1.4,0.6-3.3-0.5-4.6   c2-2,3.3-18.8,1.3-20.9c0.3-0.2,2.5-5.7,0.3-5.7c1.7-1.9,1.7-3.3,0.2-5.7c2.1-1.6,1.6-8.1,0.9-9.9c-0.2-0.2-0.2-0.5,0-0.6   c0.9-1.4,0.8-3.5-0.5-4.7c2.8-2.8,1.5-16.2,1.1-20.4c-1-9.5-3.8-18.8-14.8-20.3c-7.2-1-12.7,3.2-15.4,8.6c-1.4,1.4-2.1,3.4-2.2,5.3   h-1.7c0,4.9-0.5,10.2,0,15.1c-0.2,0.6,0,1.3,0.2,1.7c-0.7,12.5-3.7,28.8-0.3,41c0,0.3,0.2,0.6,0.3,0.9h0.2c0.2,0.6,0.6,1.3,1.1,1.9   c-1.9,1.5-1.3,4,0,5.5c-1.8,1.6-1.3,4,0,5.7c-0.6,0.5-0.9,1.1-1.1,1.9c0,2.7-0.3,5.8,1.4,8.3c0.2,0.2,0.2,0.5,0.2,0.8   c-0.3,1.7,0.6,3.6,2.4,4.2c-1.5,9.1,11.8,6.4,13.2,10.7c1,1.7,11.3,4.5,12.7,4.7C298.2,720.9,309.2,720,305.3,711L305.3,711z"
   style="fill:#382D16;"
   id="path2" />
	<path
   d="M377.9,201.7c0.1-0.3,0.2-0.7,0.4-1c-0.1-0.2-0.1-0.4,0-0.5c0.5-0.3,0.6-0.7,0.5-1.2c-0.1-0.1-0.1-0.2-0.2-0.2   c-0.1-0.1-0.1-0.1,0-0.1l0.5-0.2c-0.2-0.2-0.3-0.4-0.2-0.6c0.6-0.1,0.6-0.3,0.1-0.8c0.9,0.5,0.9-2.3,1.2-2.1   c-1.1,0.1-4.7-3.1-5.8-1.5c0-1-0.2-1-0.8-0.3c0-0.9-0.2-1-0.9-0.3c0.1-0.2,0.1-0.4-0.1-0.6c-0.3-0.1-0.6-0.4-0.9-0.3   c0.2-1.2,2-3,0.8-4.2c1-0.2,1.8-2.9,1.4-3.7c1.8-0.4,3.1-6.8,3.7-8.4c1.6,0.3,2.9,1,4.4,1.5l0.2,0l1.4,0.4l0.4-1.3   c0.6,0,2.8-6.7,1.9-7.6c1.1-0.3,2.2-3.5,1.7-4.5c2-0.4,2.4-4.2,3-5.7c0.5-1.5,2.8-5,1.3-6.4c1.4-0.4,1.7-1.1,0.8-2.2   c1.4-0.3,1.6-1.4,0.8-2.2c0.2,0.1,0.6-0.1,1-0.5c0.4-1.2,1.9-4.4,1.3-5.5c0.2,0.1,0.5-0.1,1-0.7c0.5-1.3,0.6-2.3,0.8-3.5   c-0.2,0.9,0.9-2.6,0.5-1.8c0,0,0.5-0.7,0.5-0.6c0.3-1.9,1.8-4.7,2.6-6.9c-1.4-0.5-2.7-0.8-3.8-1.2c-1.1-0.4-3.5-1.2-4.4-1.9   c0.6-1.6,3.6-7.2,2.9-9c0.7-0.5,0.9-1.1,0.7-1.8c0.6-0.4,0.9-1.3,0.7-1.8c0.1,0,0.3-0.1,0.5-0.5c0.4-1.1,1.5-3.2,1.3-4.4   c0.1,0.1,0.2-0.2,0.5-0.7l0.7-1.8c0-0.3,0.1-0.7,0.2-1c1.2-1.3,1.7-4.7,2.4-6.4c1.1-3,2.4-5.9,3.2-9c0-0.2,0-0.3,0-0.3l0-0.1   c-0.1,0-0.1,0-0.1-0.1c0-0.5-0.2-0.7-0.6-0.6c-0.1,0.2-0.2,0.3-0.4,0.2c-0.1-0.7-0.2-0.7-0.8-0.1c0.1-0.2,0-0.4-0.2-0.6   c0.2,0.1-1.7-0.2-1.5-0.4c-0.3,1.2-2.2,3.9-1.5,5.1c-0.6,0.5-0.8,1-0.7,1.8c-0.6,0.5-0.8,1-0.7,1.9c-0.1-0.1-0.2,0.1-0.5,0.5   c-0.4,1.1-1.6,3.3-1.3,4.4c-1.1,0.7-1.2,2.6-1.6,3.7c-0.6,1.9-1.4,3.6-2,5.5c-0.5,1.4-0.9,2.7-1.5,4c-0.1,0.3-0.9,3.4-1,3.5   c-0.5,0.4-1.1,2.4-1.4,3.1c-0.5,1.2-0.7,2.5-1.1,3.7c-0.4-0.5-1.3-0.2-1.8-0.3c-1-0.2-0.5-1.3-2-0.5c0.1-0.2-0.1-0.5-0.8-1   c-0.5-0.2-1.4-0.1-2-0.3c-0.7-0.2-0.9-1.2-1.9-0.9c-0.1,1.6-3.1,4.9-1.5,6.4c-1.4,0.4-1.7,1-0.9,2.2c-1.4,0.4-1.5,1-0.8,2.3   c-0.2-0.1-0.6,0-1,0.5c-0.4,1.1-2,4.5-1.3,5.5c-1.7,0.4-1.6,2.7-2,3.9c-0.7,2.4-1.9,4.6-2.7,7c-0.2,0.7-3.2,9.4-2.7,9.3   c-0.7,0.2-1.3,2.9-1.6,3.5c-0.8,1.5-1,4.3-2.2,5.5c0.2,0.4,0.2,0.9,0.1,1.4c-0.3,0.8-1.1,1.3-1.4,2.1c2,0.8,4.1,1.4,6.1,2.3   c0,0.2,0.6,0.8,0.2,0.9c-0.8,0.3-0.9,2.3-1.2,3c-0.7,1.3-0.9,3.4-1.9,4.4c0.1,0.2,0.2,0.5,0.2,0.9c-0.5,1.2-1.1,2-1.5,3.3   c-0.5,1.4-1,2.9-1.7,4.2V189l-0.2-0.5c-0.2,0.1-0.4,0.2-0.6,0.4c0-0.2-0.1-0.5-0.2-0.7c-0.7-0.4-4-0.6-4.6-1.6   c-0.1,0.1-0.4,0.2-0.7,0.2c-0.6-0.3-0.7-0.7-1.5-1.1c-0.9,2.5-1.8,4.9-2.6,7.4l0,0.1l-0.4,1.1l1,0.3l0,0c0.7,0.3,4.6,2,5.2,1.2   l0.1,0.7c0.1,0.2,1.4,0.2,1.6-0.1c-0.1,1.1,4,2.5,4.6,1.6c0,0.9,0.3,1,0.8,0.3c-0.1,1,0.4,1,0.8,0.3c-0.1,0.2,0,0.4,0.1,0.7   c0.1,0.1,1.8,0.6,1.6,0.7l0.5-0.4c-0.1,0.2,0,0.4,0.2,0.6l0.8,0.3c0.2-0.2,0.3-0.2,0.5-0.1l0.2,0.4c0.2-0.3,0.4-0.4,0.6-0.2   l0.2,0.5l0.6-0.3c0.4,1.8,4.2,1.7,5.5,2.5C377,202.2,377.6,202.4,377.9,201.7L377.9,201.7z"
   style="fill:#4F73B8;"
   id="path4" />
	<path
   d="M388.1,151.3c0.8,0,1.3-1.4,0.8-2c1.1,0,2.8-4.8,1.9-5.4c1-0.1,1.1-0.4,0.4-1c1,0,1-0.5,0.3-1   c0.2,0.1,0.4,0,0.7-0.1c0.3-0.7,0.9-2,0.4-2.5c0.2,0.1,0.4,0,0.6-0.3c0.5-1.4,0.4-2,0.9-3.1c0.2-0.3,0.6-1.4,0.9-2.2   c0.1-0.3,0.2-0.9,0.2-1.1c0-0.2,0.5-0.4,0.4-0.8c-0.4-1.5-3.1-2.4-4.4-2.6c-0.2,0-0.3,0-0.3,0.1c-0.6,0.2-2.5-1.3-3.3-1.1   c0.1-0.1-0.1-0.3-0.6-0.5c-0.9-0.4-3.1-1.2-4-0.6c-0.6,0.4-1.1,1.2-0.3,1.8c-1,0-1.1,0.3-0.4,1c-0.9,0.1-1,0.3-0.4,1   c-0.2-0.1-0.4,0-0.7,0.1c-0.2,0.7-0.9,2-0.4,2.5c-1,0-1.8,3.3-2.1,4.1c-0.3,0.8-0.5,1.7-0.8,2.6c-0.2,0.5-0.4,1-0.7,1.5   c0,0.3,0.1,0.6,0.3,0.8c-0.4,0.8-0.8-0.3-0.3,1c0,0.1-0.1,0.1-0.2,0.1c-0.7,0-0.8,2.5-1.5,3c0.1,0.1,0.2,0.3,0.3,0.6   c-0.3,0.6-0.9,1.4-1.3,2.2c-0.7,2.2,12.9,6.4,13.1,4.6C387.8,152.9,389.1,152.1,388.1,151.3L388.1,151.3z"
   style="fill:#FFFFFF;"
   id="path6" />
	<path
   d="M315,518.8c0-0.7,0-1.3-0.1-1.9c-0.2-6.8,0.1-13.7-0.5-20.5c-3.4-20.7-23.7-35.4-43.4-39.2   c-1.2-0.3-2.5-0.5-3.7-0.7c-1.9-0.2-4-0.6-6-0.6c-6.5-0.5-15.5-1-21.6,0.7c-0.9,0.3-2,0.4-3,0.3c-3.8-0.4-8.2,0.2-11.8,1.3   c-1,0.4-2.1,0.7-3.3,0.8c-12.3,0.7-24.4,3.3-36.7,4.5l-0.4,0.1c-26.1,4.2-41.3,20.1-42.5,46.7c-1.2,27.9,0.8,58.3,4.1,86   c0,17.8,0.2,40,4.8,57.5c-1.4,7.7-0.8,22.5,4.1,29.2c1.2,1.7,2.8,2.9,4.8,3.6c8.7,7.1,33.7,1.5,43.7,1.1c0.9,0,1.8-0.2,2.6-0.5   c0.6-0.3,1-0.7,1.4-1.1c1-1.1,0.7-2.3,1-3.5c0.3-13.4,4.4-29.3,1.3-42.4c1.4-5.6,1.7-11.5,0.8-17.2c1.4-5.3,1.6-13.2,0.7-17.3   c3-10.9-1.7-22.3-0.3-33.1c0.3-4.6,0.6-9.1,0.1-13.7c1.4-6.9,1.4-14.4,8.1-18.3c3-1.4,6.2-2.3,9.5-2c3.1,0.8,6.7,2.2,9.4,4.2   l1.1,0.9l0.4,0.3c0.3,0.2,0.5,0.5,0.7,0.8c0.3,0.4,0.4,0.8,0.6,1.3c1.5,4.8,3.7,9.7,4.3,14.7c-0.4,14.9-2.6,30.5-1.3,45.2   c0.1,0.6,0.1,1.2,0.1,1.8c-0.5,7.8,0,15.8,0.4,23.6c0.7,12,5.1,29.3,2.7,40.8c-0.4,3.3-0.3,6.7,0.1,10c0.2,2,0.8,3.8,2.7,4.6   c5.3,1.4,11,1.5,16.3,0.8c22.8,5.7,47.3-3.4,38.5-32.6c1.3-5.6,1.4-11.5,0.9-17.3c1.6-6,1.9-10.2,1.3-17.5   c3.7-10.2,0.2-22,2.9-32.3c0.9-4.7,1.3-9.5,0.9-14.2C316,557.4,315.7,536,315,518.8L315,518.8z"
   style="fill:#4F73B8;"
   id="path8" />
	<path
   d="M320.1,529.4c0.6-3.9,0.4-9.4-2.5-12.4c2.7-3.4,3.6-7.7,2.1-10.8c-3-6.1,1.9-11.6-1.9-18.5   c1.6-1.9,2.4-4.4,2.3-7l-2.2-10c0-10.4-1.9-20.2-4-30.3c0.5-3.6,0.3-8.7-2.5-11.4c2.6-3.1,3.6-7.1,2.1-9.9   c-2.9-5.6,1.9-10.5-1.8-17c1.6-1.7,2.4-4,2.2-6.4c0.2-10.1-1-20.9-2.7-30.8c-1.4-8.1-3.3-31.3-11.1-35.5c1-2.8,1.2-5.2,0.6-7.3   c-0.8-2.4-2.5-4.4-4.7-5.7c1.6-4.9-1.1-10.8-6.1-12.4c0.8-5.5-5.4-31.4-11.1-32.8c-1.5-6-11.9-15.4-18.1-16c-1,0.1-2-0.6-2.4-1.4   c-1-1.7-2.4-3.1-4-4c-2.6-1.3-5.9-2.3-8.2-3.3c-1.2-0.5-10.9-4.2-10.7-4c-7.9-7.9-18.8-7.8-28.7-11.6c-1.3-0.4-2.6-0.4-3.8,0.1   c-3.5,1-6.5-1.7-10-2.1c-4.1-0.2-8.2-0.2-12.4,0c-8.8,0-20.4,2.4-27.8,7.1c-4.1,3-10.6,4.4-12.7,9.7c-0.2,0.8-0.8,1.5-1.6,1.7   c-4.6,2-6.4,6.2-5.8,11c-5.5,4-4.6,16.4-5.5,22.4c-1,6.8-5.4,22.9,0.3,28.1c-3.7,4.4-4,8.3-1,13.5c-3.6,4.6-3.8,7.8-0.9,13.6   c-5.1,3.7-4.3,18.4-2.9,23.6c1.9,3.7-2.8,7.9,0.6,12.7c-6.1,6.7-2.6,25.1-2.9,33.4c-0.5,11.5-0.8,24.1,0,35.6   c-1.9,5.9-2.2,16.4-0.7,22.4c1.9,4.1-2.8,8.6,0.6,13.8c-5.7,6.7-2.4,24.6-2.8,32.8c-0.4,11-0.7,22-0.8,32.9   c-0.1,12.5-2.2,27.6,1.1,39.9c3.2,20.5,27.6,20.5,42.8,21.6c1.5,0,2.9-0.3,4.1-1.1c3.5-1.7,9.5,1.1,13.5,1.3   c6.8,0.4,13.7-2.5,20.5-1.1c6-3.6,15.5-0.1,22.2-0.2c10.3-0.2,20.4-0.3,30.7-0.8c19.9-1,45,2.2,63.2-7.5c0.2-0.2,0.6-0.3,0.8-0.6   l1.6-1.3c1.9-1.8,3.5-4,4.7-6.5l0.5-1.3c3-4.8,4-11.4,4-16.9c-0.7-12.1-4.9-24.1-6-36.3L320.1,529.4L320.1,529.4z"
   style="fill:#FFFFFF;"
   id="path10" />
	<path
   d="M212.7,180c-1.4-2.3-0.6-5.1-2-7.5c-1-1.7-3.5-4.7-5-6.1c-1.9-1.8-8.9-5.8-11.4-5.6l-1.3,4.1l1.3-4.1   c-1.7-1.4-6.1-1.8-8.2-2.4c-2.7-0.8-5.4-2.2-7.1,1c-0.2-0.7-0.7-2.4-1.5-2.7c-1.2-0.5-1.7,1-2.4,0.9c-0.5-0.1-3.3-1.3-3.9-1l-0.1,0   c-0.9,0.7-1.5,1.6-1.8,2.7c-1.8-2.7-4.6-1.3-6.8-0.1c-3,2.5-16.7,12.3-11.5,16.6c-4,0.1-4.7,2.2-1.4,4.4c-3.3,0.6-3.8,3.7-0.3,4.6   c-4.1,1.9-1.4,5.6,0.2,8.2c-0.3-0.6,2.8,3.4,1.7,2.7c1.3,0.9,1.3,1.2,3.4,0.7c-1.4,4.8,3.3,4.4,5.5,5.7c0.5,0.3-0.8,2-0.1,2.4   c0.7,0.4,2.7-0.5,2.9-0.1c0.1,0.2-1,2-0.9,2.8c0.1,0.2,2.5,0.6,2.4,0.7c-1.8,2.4-1.3,5.3-0.2,7.8c-0.2-0.4,0.7,2.4,0.7,1.8   c0.5,0,0.7,0.2,0.8,0.6c0.2,0.6-0.2,1-1.1,1.2c0,1.1-0.6,2.4-0.6,3.7c0,1,1,1.9,1,2.7c0,1.8-2,2.4-1.5,4.8c0.2,1.2,2.3,2.9,2.3,3.2   c0,0.7-2.1,1-2.1,2.2c0.1,1.2,1.7,1.2,1.8,2.1c0.3,2.2-3.6,2.7,0.9,4.2c-3.4,2.9,0.3,2.4,1,4.1c0.4,1-0.9,1.8-0.5,2.9   c0.3,0.8,1.8,0.4,2.1,0.8c1.2,2,3.4,9.8,8.1,5.7c-0.4,3.8,2,4.8,4.6,1.9c1,3.4,4,3.4,5.3,0c1.4,2.6,4.6,1.5,6.6,0.2   c1.4-0.7,2.2-2,2.3-3.4c-0.1-2,4.8-0.6,1.8-4.5c8.3,0.3,4.1-19.1,3.6-23c-0.2-2-0.5-4.2-0.7-6.2c-0.2-1.6,0.2-3.4,0-4.9   c-0.1-0.7-1.6-4.8-2-3.8c0.3-0.7,2.4-0.1,2.7-1.2c0.3-0.9-1.9-2.1-1.6-2.5c0.3-0.5,2.2-0.2,2.8-1c0.4-0.5-1.4-2.6-1-2.6   c4.8-1.3,2.8-5.5,6.3-7.5l0.1-0.1c0.4-0.7-0.4-2-0.1-2.7c0.3-0.7,2.2-1.6,2.8-3c1-2.2,2-6.4,2.2-8.7   C213.3,181.7,213.1,180.8,212.7,180L212.7,180z"
   style="fill:#382D15;"
   id="path12" />
	<path
   d="M402.4,223.4c-0.2-1-0.4-1.9-0.5-2.9c-0.1-0.5-0.1-1,0-1.4c0-0.5,0.1-1,0.2-1.5v-0.2c-0.7-0.9-1.5-1.7-2.5-2.4   c-0.3-1.8,0.5-2.8-0.5-4.4l-0.6-0.7c-0.3-0.5-0.7-1-1.2-1.4c-0.4-0.5-0.9-0.9-1.3-1.3c-1.9-1.3-4.2-1.9-5.8-3.6   c-1.6-1.4-3.6-2.3-5.7-2.5c-0.8,0-1.7-0.2-2.5-0.4c-5.5-1.6-8.6-0.5-14.2-1.3c-3.9-0.1-9.7,4.3-12.4,7l-1,1.2   c-0.6,0.9-1.1,1.7-1.6,2.6l-0.2,0.6c-0.2,0.2-0.3,0.3-0.4,0.6c-1,1.7-2.1,3.5-2.4,5.4c-0.2,3.9-6.5,9.6-2,13.2   c-3.4,0.8-5.4,8.4-3.6,10.8c-5.4,0.9-3.6,8-6,11.3c-1,1.6-1.7,3.5-1.7,5.4c0.2,4.1-6.1,9.1-1.7,12.8c-3.9,0.8-4.4,2.5-1.7,5.4   c-2.3,0.3-3.4,1.3-3.4,2.6c-1.3-2.7-3.1-1.9-5.2,0c-1.3-6.3-8.5-3.5-12.6-6.5c-1.8-1.1-3.9-1.8-5.9-1.7c-4.3,0.5-10.3-6.6-13.8-1.2   c-1.1-4.6-2.9-5-5.9-1.7c-0.8-4.7-3.8-4.9-6-1.6c-0.2-1.3-0.6-2.9-1.5-3.2c-3.3-1-12.8-3.5-15-0.8c-0.7-1.3-1.4-2.7-2.6-2.7   c-3.3-1.4-6.2-1-8.5,1.1c-0.4,0.7-0.6,0.9-1.3,0.2c-0.7-0.9-1.7-1.3-2.7-1.3c-0.9,0.1-9.3,4.1-9,4.2c-3-1.8-6.8-1.4-9.5,1.2   c-1.3,1.4-3,2.3-4.8,2.5c-1.5,0.3-0.7,3.5-1.9,3.4c-4.1-0.3-6.2,2.7-8.4,5.8c-0.6,0.7-0.8,1.6-0.6,2.4c0.2,1-0.2,1.3-0.8,1.9   c-3.2,3.4-3.2,8.9-1.1,12.9c0.4,0.5,0.8,0.8,1.4,0.9c2.9,0.8-3.2,5.8,3,6.8c3.2,0.3-0.7,6.6,5.6,4.9c0,6.4,9.3,3.6,11,6.5   c1.7,3.6,8.8,6.2,11.3,2.3c1,4.7,2.8,5.2,5.8,2.1c1.2,4.5,2.6,4.9,6,1.8c0.2,1.4,0.5,2.9,1.4,3.2c3,0.9,12.4,4.3,14.5,2.1   c1.4,6.2,9.1,3.3,12.8,6.3c3.8,2.6,38,12.9,40.2,9.5c-2.2,2.7,8.1,2,6.6,1.1c0.4,1.4,1.2,2.5,2.4,3.4c1.2,0.4,2.6-1.5,3.2-1.6   l0.3,0.1c0.8,1.3,1.5,2.8,3.1,3.1c1,0.1,2,0.4,3,0.6c0.5,0,1,0,1.6,0c1.9,0.2,3.8-0.1,5.5-1l0.1-0.1l0.2,0c0.5,0,1.1,0,1.6,0.1   l0.2,0c0.6-0.1,0.9-0.5,1.2-1c1.5,0.4,2.6-0.2,3.2-1.8c1.1,0,2-0.3,2.8-1.1l0.7-0.7l0.2-0.2c0.3-0.2,0.5-0.4,0.6-0.6   c0.2-0.2,0.4-0.5,0.6-0.7c0.5-0.5,0.9-1.1,1.3-1.6c0.2-0.4,0.4-0.8,0.6-1.3c1.2-0.6,1.6-1.6,1.2-3c0.3-0.7,0.7-1.4,1.1-2   c1.4-0.3,1.9-1.1,1.6-2.4c0.4-0.9,0.8-1.8,1-2.8c2.2-1.8,4.2-7,1.7-9.3l0.1-0.5c3.5-0.8,3.9-2.3,1.5-5.2c3.8-0.9,4.2-2.1,1.8-5.5   c4.1-0.3,7-12.3,5.2-14.4c5-0.9,3.4-8.5,5.9-11.5c2.5-3.6,12.9-34.3,9.9-36.8c-0.7-0.7,3.8-6.9,4.2-8.2c0.4-1.1,1.4-4.6,1.7-6   c0.2-1,0.4-1.8,0.6-2.8C402.5,225.3,402.5,224.4,402.4,223.4L402.4,223.4z"
   style="fill:#FFFFFF;"
   id="path14" />
	<path
   d="M233.5,579.1c0-1.3,0.3-2.8-0.1-4.1c-0.8-2.5,0.8-4.9,0-7.5c-1.1-2.7,2.2-8-1.7-9.5c2.5-1.5,2.5-2.8,0.1-4.2   c2.6-1.3,2.2-3.2-0.1-4.3c2.7-1.5,2.4-9.9,0.2-11.5c2-1.5,1.4-3.9,1.4-6.2c0,0.7-0.9-2.3-0.9-2.2c0.8-0.6,1-1.4,0.7-2.3   c-0.5-0.4-1-0.9-1.5-1.4c0-0.8,1.5-1.1,1.5-2.2c0-1.1-1.5-1.2-1.5-2.1c0-0.9,1.4-3,1.4-4.4c0-1.8-1-3.4-0.3-5.2   c0.2-0.7-1-1.1-1.1-1.7c-0.2-0.8,1-1.6,1-2.6c0-1.6-1.4-4.9-0.9-6c0.1-0.3,0.2-0.7,0.3-1h0.4l-0.2-1.2c0-0.4,0-0.9,0-1.3   c0.2-2.8,0-5.5,0-8.2c0-2.1,0.4-4.2-1.8-5.3c3.4-1.9,0.6-2.1,0.6-4.3c0-2.4,2.6-1.9-0.5-4.3c2.2-1.1,2.2-4,1.7-6.1   c-0.8-2.5,0.8-4.9,0-7.5c-1.1-2.7,2.2-8-1.7-9.5c2.5-1.5,2.5-2.8,0.1-4.2c2.6-1.3,2.2-3.2-0.1-4.3c2.7-1.5,2.4-9.9,0.2-11.5   c2-1.5,1.4-3.9,1.4-6.2c0,0.7-0.9-2.3-0.9-2.2c0.8-0.6,1-1.4,0.7-2.3c-0.5-0.4-1-0.9-1.5-1.4c0-0.8,1.5-1.1,1.5-2.2   c0-1.1-1.5-1.2-1.5-2.1c0-0.9,1.4-3,1.4-4.4c0-1.8-1-3.4-0.3-5.2c0.2-0.7-1-1.1-1.1-1.7c-0.2-0.8,1-1.6,1-2.6c0-1.6-1.4-4.9-0.9-6   c0.5-1.4,1-6.3-1.1-6.8c-0.5-0.2,1.8-2.8-0.2-4.1c-1.3-1,2.3-2.5-0.9-4.2c2.1-2.2,0.2-2-0.2-3.9c0.3-0.8,0.6-1.5,0.9-2.3   c-0.3-0.6-0.7-1-1.2-1.2c0.1-2.1,1.7-7.9-2.2-8.1c2.2-2.2,2-3.5-0.6-4.2c2-2.3,1.8-3.3-0.8-4.2c1.9-1.7,1.5-6-0.5-7.6   c-0.2-0.1-0.3-0.2-0.1-0.5c1-1.8,0.3-2.8-1.5-3.1c2.3-2.7-0.1-6.8-0.9-9.7c-0.8-2.9-1.2-8.4-2.9-10.9c-1.7-2.1-2.2-6.9-3.1-9.4   c-0.5-1.5-0.6-2.9-1.3-4.4c-0.3-0.8-2.1-0.9-2.1-1c-0.3-1.3,1.2-1.8,0.5-3.4c-0.3-0.7-2.5,0.4-1.6-1c1.2-1.5-0.1-1.8-0.3-2.8   c-0.4,0.1-0.8,0-1.1-0.3c-0.6-0.4-0.5-0.9,0.3-1.7c-0.2-0.5-2.1-7.8-2.8-7.8c-0.5-0.3-1.1-0.5-1.7-0.6c0.2-0.8,0.4-1.7,0.3-2.5   c-0.6-1.7-1.9-2.9-2.5-4.4c-0.1-0.2-0.1-0.6,0.1-0.8l0.2-0.2l-0.1-0.1l-0.1-0.2c-0.2-0.6-6.3,1.2-6.3,1.2c0,0.5,0,1.4,0.2,1.8   c0.1,0.3,0.1,0.6,0.2,0.8c0.8,2.1,2.1,6.3,3.6,8c1.9,1.5,1.1,8.1,4.8,6.9c-1.7,3-1.2,4,1.4,3.6c-1.8,2.9-0.9,4.3,1.4,3.7   c-1.3,2-1.2,6.1,1.4,7.3c1.3,0.4-1.3,2.8,1.8,3.1c-1.3,2.3-0.3,4,0.4,6.3c0.2,0.6,0.6,0.9,1.1,0.8c-0.8-0.1,1.1,5,1.7,4.2   c-2.3,2.2,1.5,3.1,1.3,3.5c-1.6,3.4,0.3,6.5,1.1,9.7c0.2,0.9,0.9,0.7,1.1,1.8c0.3,1.6,0.1,3.6,0.4,5.4c0,0.4,0.7,2.6,0.9,3.1   c0.3,1.3-0.3,5.2,2,5.2c0.6,0.1-1.7,2.9,0.5,3.9c1.2,0.7-1.9,2.7,1.1,4c-2.1,2.4,0.1,1.9,0.3,3.8c-0.3,0.8-0.6,1.5-0.9,2.3   c0.2,0.6,0.6,0.9,1.2,1.2c0,2.2-1.9,7.6,1.9,8.2c-2.3,2-2.2,3.2,0.3,4.2c-2.2,1.9-2.1,2.9,0.4,4.2c-2.1,1.4-2.1,5.6-0.5,7.4   c0.1,0.2,0.2,0.2,0.1,0.5c-1.3,1.4-0.7,2.5,1,3.3c-2.7,1.8-1.1,6-1,8.6c0.1,3.4-0.3,6.8-0.2,10.3c0,3.1,0.4,6.3,0.4,9.4   c0,2-1.2,8.2,1.1,9.3c-1-0.5-0.9,5.6-0.1,5.1c-2.1,1-0.2,3.3-0.2,4.4c0,0.8-1,2.6-1,3.6c-0.1,1.8,1,3.5,0.1,5.3v0.1   c0.3,0.5,0.6,1,0.9,1.4c0.5,0.4,0.4,0.8-0.4,1.2c0.1,1.5-1,3.4-0.5,5.3c0.3,1,0.3,2.2-0.1,3.2c-1,3.4-0.1,8.2-0.1,11.7   c0,3.1,0.9,8.4-0.1,11.3c-0.5,1.9-0.1,3.9,0.4,5.7c0,1.8-0.4,3.7,0.9,5.3c0.1,0.2,0.2,0.2,0.1,0.5c-1.3,1.4-0.7,2.5,1,3.3   c-2.7,1.8-1.1,6-1,8.6c0.1,3.4-0.3,6.8-0.2,10.3c0,3.1,0.4,6.3,0.4,9.4c0,2-1.2,8.2,1.1,9.3c-1-0.5-0.9,5.6-0.1,5.1   c-2.1,1-0.2,3.3-0.2,4.4c0,0.8-1,2.6-1,3.6c-0.1,1.8,1,3.5,0.1,5.3v0.1c0.3,0.5,0.6,1,0.9,1.4c0.5,0.4,0.4,0.8-0.4,1.2   c0.1,1.5-1,3.4-0.5,5.3c0.3,1,0.3,2.2-0.1,3.2c-1,3.4-0.1,8.2-0.1,11.7c0,3.1,0.9,8.4-0.1,11.3c-0.3,1.2-0.2,3.1,0.1,4.4l6.2-0.2   c0.8-2.1,0-5.9,0-8.1c0-2.3,0.9-4.9-1.7-6.1c3.4-1.9,0.6-2.1,0.6-4.3c0-2.4,2.6-1.9-0.5-4.3C232.7,580.6,233.5,580.1,233.5,579.1   L233.5,579.1z"
   style="fill:#4F73B8;"
   id="path16" />
	<path
   d="M217.5,255.6c1-3.4-0.1-8.2-0.3-11.8c-0.3-3.7-0.7-5.3-2.3-7.5c0.4-1,0.2-1.8-0.6-2.4l-1.4-0.3   c-0.6-0.8-1.8-1.8-2.4-2.5c-2.2-2.4-6.1-2.5-8.7-4.6c-0.4,0.2-1,0.4-1.8,0.5c-2.8-0.8-4.3-1.7-7.6-2c-2.1-0.1-4.1-0.3-6.2-0.1   c-1.9,0.1-18.2,1.6-18.6,3l0.4,2.2l0,0l-1.1-2.1l-0.1,0c-2.2,1.1-10.4,5.9-8.8,9.2c-2.5-0.1-4.5,5.5-3.3,7.2   c-5,2.3,4.3,19.6,8.3,18.8c-0.6,2.2,0.2,3.2,2.3,2.9c-0.7,2.1,0.6,3.3,2.4,2.9c-0.3,0.3-0.4,0.9-0.1,1.8c1.3,1.5,4.6,6,6.7,5.9   c-0.3,0.2-0.2,0.8,0.3,1.9c2.3,2.3,4.8,3.7,6.6,5.5c1.6,1.6,2.5,3.6,4.4,5.5c2,2,4.6,3.7,6.3,5.3c2.7,2.5,6.1,6.2,9.6,7.4   c0.4,0,0.6,0,0.8-0.2c0.2-0.1,8.9,6.2,8.3,0.1c0.2,0.3,1-0.1,1.9-1.2c0.7-1.5,0.5-3.8,1-5.3c0.7-1.8,3.2-5.8,0.6-7.5   c2-1,2.2-2.2,0.6-3.7c1.9-1.2,2-2.1,0.4-3.8c0.4,0.1,0.8-0.3,1.3-1.2c0.2-2,1-7.7-0.4-8.9C219.4,268.4,216.6,258.9,217.5,255.6   L217.5,255.6z"
   style="fill:#382D15;"
   id="path18" />
	<path
   d="M264.5,328c0.1-0.9-0.2-1.8-0.2-2.7l0.1-1c0.3-0.2,0.4-0.4,0.1-0.5c-0.2-0.1-0.3-0.3-0.3-0.5   c0-0.8,0-1.2-0.2-2c0-0.3-0.2-2.4,0.4-2.2c-0.3-0.2-0.5-0.5-0.6-0.9c0-0.4,0.5-0.7,0.4-0.9c0-0.2-0.5-0.4-0.6-0.7   c-0.1-0.4,0.2-0.8,0.5-1.1c-0.9-0.4-0.7-2.1-0.6-2.9c0-0.2,0-1.8,0-1.7c0.4-0.7,1.2,0,1.8,0c0.2,0,2-0.7,1.8,0   c0.7-0.7,0.8-0.2,1.6-0.2c0.5,0,1-0.5,1.6-0.4c0.4,0.1,0.5,0.1,0.7,0.3c-0.1-0.1,0.2,0.8,0.2,0.8c0.5,2.2,0.3,4.3,0.4,6.4   c0,1,0.4,2.2,0.5,3.4c0,0.6-0.3,1.2-0.2,1.7c0,0.4,0.3,0.6,0.4,1.1c0.1,0.5-0.3,0.7-0.3,1.1c0,0.3,0.4,0.5,0.4,0.9l-0.3,0.7   l0.3,0.6c0.1,0.3,0.1,0.7,0.1,1.1c0,0.2,0.2,1.9-0.3,1.7c0.5,0.4,1.2,4.9,0.2,4.9c1,0.6,0.2,1.4,0.3,2c0,0.3,0.4,0.5,0.4,0.9   c0,0.2-0.1,0.4-0.3,0.6c-0.3,0.2-0.2,0.4,0.2,0.5c0.3,1.6,0.6,3.5,0.5,5.1c0,0.8,0,1.5,0.2,2.3c0,0.3,0.1,1,0.1,1.3   c0,0.2-0.5,0.8-0.4,0.9c0,0.3,0.5,0.5,0.6,0.9c0,0.3-0.3,0.6-0.3,0.8c0,0.9,0.9,1.1-0.1,2c1.1,0.6,0.6,2.6,0.7,3.6   c0.1,1.1,0.4,1.5-0.2,2.4c-0.1,0.2-0.4-0.1-0.5,0.2c-0.2,0.3,0.1,0.6-0.1,0.8c-0.3,0.3-1.7,0.1-2,0.1c-1,0-1.9,0.3-2.9,0.2   c-0.3,0-1.5,0.1-1.6,0c-0.4-0.3-0.5-1.6-0.5-2.1c0-1.1-0.1-2.2-0.2-3.4l-0.2-3.3c0-0.5,0.2-1,0.2-1.4c0-0.5-0.2-1-0.3-1.5   c-0.2-1.2-0.1-2.2-0.1-3.3c0-0.5-0.3-0.7-0.3-1.2c0-0.5,0.4-0.7,0.3-1.1c-0.1-0.3-0.3-0.7-0.4-1.1l0.3-0.5   c-0.1-0.1-0.2-0.2-0.3-0.3c-0.1-1.2-0.2-2.6-0.4-3.8c-0.2-1.3-0.2-2.5-0.3-3.8c-0.1-0.7,0.1-1.4,0-2.2   C264.7,329.4,264.4,328.8,264.5,328L264.5,328z"
   style="fill:#EA472C;"
   id="path20" />
	<path
   d="M268.7,368.4l0.1,0.1c0.1,0.1-0.4,0.2,0.3,0.5c-0.9-0.1-0.1,1.1,0,1.4l0.2,0.9c0,0,0.2,0.5,0.1,0.4   c0.1,0.1,0.6,0.4,0.6,0.1l-0.4,0.2c-0.1,0.1,0.5,0.1,0.5,0.1c0,0.1-0.4,0.1-0.4,0.3l0.5,0c-0.6,0.4-0.3,0.7,0.2,0.8   c0,0.1-0.3,0.1-0.3,0.2l0.1,0.3c0,0.2,0.2,0.5,0.2,0.7c0.1,0.3,0.1,0.9,0.2,1.2c0.5,1.1,1.7,0.9,2.1-0.2c0.2-0.5,0.3-0.9-0.4-1.1   c-0.2,0,0.7,0,0.6-0.1l-0.4-0.2c0.2,0,0.3,0,0.4-0.1c-0.1-0.1-0.3-0.2-0.5-0.2c0.6,0,0.6-0.4,0.6-0.8c0-0.5,0.2-0.7-0.5-0.8   c-0.3,0,0.7,0,0.6-0.1c-0.2-0.1-0.3-0.2-0.5-0.2c0.2,0,0.4,0,0.6-0.1c0.1-0.1-0.7-0.3-0.5-0.2c0.3,0,1-0.2,0.4-0.5   c0-0.1,0.1-0.1,0.2-0.1c-0.1-0.1-0.2-0.2-0.4-0.2c1.1,0.2,0.2-0.4,0.2-0.6l0.3-0.1c0.1,0-0.4-0.3-0.4-0.2c0.1-0.1,0.4,0.1,0.5-0.1   l-0.4-0.2c0.7-0.1,0.5-0.7,0.5-1.2c0,0-0.3,0-0.2,0c0.1,0,0.2-0.1,0.2-0.2c-0.2-0.2,0.1-0.6,0.1-0.8l-0.1,0.1   c-0.5-0.8-0.7,0.2-1.1,0.3c0,0,0.1-0.5,0-0.5c-0.2,0-0.3,0.3-0.4,0.4c0,0-0.2-0.8-0.4,0.1c0-0.2-0.1-0.2-0.2-0.4l-0.1,0.4   c0-0.1-0.1-0.3-0.2-0.4l-0.1,0.3c0,0-1.4-0.8-0.8,0.3c0,0-0.6-0.7-0.7-0.5c0,0.2,0.1,0.4,0.2,0.5c-0.2-0.1-0.5-0.6-0.8-0.5   c-0.1,0.1,0.5,0.6,0.4,0.5c-0.2-0.1-0.3-0.2-0.5-0.3C268.7,368,268.7,368.2,268.7,368.4L268.7,368.4z"
   style="fill:#382D16;"
   id="path22" />
	<path
   d="M266.5,358.3c0,0.4,0.3,0.6,0.3,1c0,0.2-0.1,0.3,0,0.5c0.1,0.2,0.2,0.3,0.2,0.5l0.2,1c0,0.2,0,0.4,0.1,0.5   c0.1,0,0.4,0.1,0.4,0.1c0,0.1-0.4,0.2-0.4,0.3c0,0.2,0.4,0.1,0.5,0.1c0,0-0.4,0.3-0.3,0.4c0,0.1,0.4,0.1,0.4,0.1   c0,0-0.3,0.3-0.3,0.4c0,0.3,0.4,0.5,0.2,0.8c0.1,0,0.3,0.1,0.4,0.2l-0.3,0.3c0,0.1,0,0.3,0,0.4c0.1,0.2,0.1,0.3,0.2,0.5   c0,0.2,0,0.3,0.1,0.5c0.1,0.2,0,0.3,0.1,0.6c0,0.2,0.2,0.3,0.2,0.4l0,0.6l0.2,0.5l0.1,1.5c0.5-0.2,1.2-0.3,1.7-0.3   c0.4,0,0.7,0.2,0.8-0.5c0.2,0.5,0.2,0.5,0.4,0.4c0,0,0-0.2,0.1-0.2l0.1,0.1c0.3,0.1,0.6,0.2,0.6-0.3c0.2,0.3,0.7,0.4,1,0.6   c0,0-0.1-0.4-0.1-0.5c0-0.3-0.1-0.7,0-0.9l0.1-0.3c0.1-0.6,0,0.4,0.1-0.2c0-0.2-0.1-0.3-0.1-0.4c0-0.5,0.4-0.8-0.3-1   c0.5-0.1,0.6-0.3,0-0.5c0.6-0.1,0.6-0.4,0-0.5c0.3,0,0.4-0.1,0.5-0.3c0.1-0.3-0.1-0.3-0.1-0.5c-0.1,0-0.1-0.1,0-0.1l0.2-0.1   c0-0.2-0.1-0.2-0.3-0.3c0.3,0.1,0.4-0.2,0.4-0.5c0-0.5-0.2-0.2-0.3-0.5c0,0,0.3-0.1,0.3-0.2c0-0.2-0.4-0.2-0.4-0.3   c0-0.1,0.4,0,0.4-0.2l-0.1-0.2c0,0-0.3-0.1-0.2-0.2c0-0.1,0.3-0.1,0.3-0.2c0.2-0.2,0.1-0.6,0-0.8c0-0.1,0.1-0.1,0.1-0.2l-0.3-0.2   c0.1,0.2,0.3-0.5,0.3-0.5c0-0.3-0.1-0.4-0.1-0.5l0.2-0.5c0-0.2,0.1-0.4,0-0.6c-0.1-0.3-0.1-0.1-0.3-0.2c0,0,0.6-0.7,0.4-0.9   l-0.6,0.3c0.1,0-0.1-0.3-0.2-0.3c-0.2-0.1-0.5,0.3-0.6,0.4c0.1-0.2-0.2-0.3-0.3-0.3c-0.2,0-0.3,0.3-0.3,0.3c-0.1,0-0.1-0.3-0.3-0.3   c-0.1,0-0.1,0.3-0.2,0.3c0.1-0.1-0.5-0.3-0.6-0.2c-0.3,0.1-0.3,0.1-0.4,0.5c-0.2-0.5-0.4-0.6-0.5,0c-0.2-0.5-0.4-0.5-0.5,0   c0-0.3-0.2-0.4-0.4-0.4c-0.3,0-0.3,0.1-0.5,0.2c-0.1,0-0.1-0.2-0.2-0.2c-0.1,0-0.2,0.3-0.2,0.4c-0.2-0.5-0.8-0.4-1.2-0.3l-0.8,0.1   C266.4,357.7,266.5,358.1,266.5,358.3L266.5,358.3z"
   style="fill:#F2C617;"
   id="path24" />
	<path
   d="M263.4,308.1c0.2-0.4-0.5-0.8,0.3-1.1l-0.4-0.2c0.1,0.1,0-0.9,0-0.9c0.1-0.1,0.2-0.2,0.4-0.2   c-0.2,0-0.3-0.1-0.4-0.2c0.1-0.2,0.2-0.3,0.4-0.3c-0.5-0.2-0.5-0.4,0.1-0.5c-0.5-0.2-0.3-0.4-0.2-0.8c-0.1,0.2,0.4-0.8,0.3-0.6   l0.4-0.1c-0.1-0.1-0.1-0.2,0-0.4c0.2-0.1,0.3,0,0.4,0l-0.1-0.4c-0.7,1,1.5-0.9,0.5-0.4c0.2,0.2,0.3,0.2,0.4,0.1l0-0.2   c0.2-0.3,0.8-0.4,1.1-0.5c0.5-0.1,0.5-0.1,0.8,0.2c0.1,0.1,1.3-0.6,1.4,0.4l0.4-0.2c0.1,0.1,0.1,0.3,0,0.5c0.1-0.1,0.3-0.1,0.4-0.2   c0,0.1,0,0.3,0,0.4c0.1-0.1,0.2-0.1,0.4,0c0.1,0.1,0.2,0.3,0.4,0.5c0,0.2-0.1,0.3-0.2,0.4l0.4,0c0.1,0.1,0.3,0.9,0.3,1.1   c-0.1,0.2-0.2,0.2-0.4,0.3c0.2,0,0.3,0.1,0.4,0.2c-0.1,0.2-0.2,0.3-0.4,0.3c0.6,0.1,0.6,0.3,0,0.5c0.7,0.1,0.8,2.3,0.2,2.5l0.4,0.2   c0,0.2-0.1,0.2-0.3,0.3c0.2,0,0.2,0.1,0.3,0.3l-0.4,0.2c0.9,0.1,0.2,0.5,0.4,0.9c0,0.1,0.3,0.6,0.1,0.6l0.2,0.8l-0.9,0l0,0   c-0.7,0.1-1.4,0.1-2,0.2c-0.8,0-1.4-0.1-2-0.2l-0.2,0.3c-0.4-0.3-0.7,0.4-1.1-0.3c0.2,0.8-0.8,0-0.7,0c0,0-0.8,0.7-0.8,0.3l0.2-0.4   c0,0.4-0.4-0.3-0.4-0.5l0-0.7C263.7,309.8,263.1,308.6,263.4,308.1L263.4,308.1z"
   style="fill:#4F73B8;"
   id="path26" />
	<path
   d="M294.2,326.9l0.5,9.4c-0.2,0.1-0.5,0.2-0.8,0.2c-0.8,0.1-1.7,0.2-2.5,0.1c-0.8-0.1-1.6-0.1-2.4,0.1   c-0.4,0.1-0.8,0.1-1.3,0.1c-0.4,0-0.9,0-1.3-0.1c-0.8-0.1-1.6-0.1-2.3,0.1c-0.9,0.2-1.7,0.3-2.6,0.1c-0.8-0.1-1.6-0.1-2.3,0.1   c-0.9,0.2-1.7,0.3-2.6,0.2c-0.8-0.1-1.5,0-2.3,0.2c-0.9,0.2-1.8,0.2-2.8,0.3c-0.4,0.1-0.8-0.1-1.2-0.5c-0.7,0.8-1.5,0.9-2.3,0.5   c-0.1,0-0.2,0-0.3,0c-1.2,0.7-2.6,0.4-3.9,0.6c-0.3,0-0.7-0.2-1-0.6c-1.1,1-1.8,1.1-2.8,0.2c-0.9,1-1.8,1-2.8,0.1   c-0.4,0.7-1,0.8-1.8,0.8l-1.8,0.1c-0.5,0-1.1-0.1-1.6-0.4c-0.4-0.2-0.8,0.5-1.4,0.4c-0.6,0-1-0.5-1.4-0.5c-0.4,0-0.7,0.5-1.3,0.4   c-0.4,0-0.9-0.2-1.3-0.6c-0.5,0.3-0.8,0.5-1.2,0.5c-0.3,0-0.6-0.1-0.8-0.3l-0.5-8.5c0.5-0.3,0.9-0.2,1.7,0.2c0.1,0.1,0.3,0.1,0.4,0   c0.6-0.2,1.3-0.3,2-0.3c0.7,0,1.4,0.1,2,0.1c0.4,0,0.7,0.4,1,0.7c0.3-0.5,0.8-0.7,1.3-0.8c0.5,0,1,0.2,1.5,0.7   c0.9-1,1.7-1.1,2.8-0.1c0.4-0.6,1-0.8,1.8-0.8c0.7,0,1.5-0.2,2.2-0.1c0.7,0.1,1.4,0.1,2.1-0.1c0.9-0.2,1.8-0.3,2.8-0.2   c0.7,0.1,1.5,0,2.2-0.2c0.9-0.2,1.8-0.2,2.7-0.3c0.4-0.1,0.9,0.1,1.3,0.6c0.8-0.8,1.5-1,2.1-0.7c0.6,0.4,0.9,0.3,1.4-0.1   c0.6-0.5,1.4-0.3,2.1,0.4c0.4-0.7,1-0.9,1.7-0.9c0.7,0,1.5-0.2,2.2-0.1c0.8,0.1,1.5,0.1,2.3-0.1c0.9-0.2,1.8-0.1,2.7-0.1l0.3,0   l0.2-0.1c0.8-0.1,1.6-0.3,2.4-0.3c0.9,0.1,1.7-0.1,2.5-0.4C292.8,327,293.5,326.9,294.2,326.9L294.2,326.9z"
   style="fill:#4F73B8;"
   id="path28" />
	<path
   d="M299.2,372.8c-0.3-3.3-0.6-6.7-0.7-10c-0.2-3.1-0.5-6.4-0.7-9.5c0-0.3,0-0.6-0.1-0.8l-0.1-1.2   c-0.2-3.6-0.4-7.3-0.7-10.7c-0.1-1.3-0.2-2.6-0.3-3.9l-0.3-5.7l-2.2,0.1l-2.9,0.2l-2.2,0.1l-4.4,0.3c-2.9,0.2-5.4,0.4-7.1,0.8   c-2.7-0.1-5.9,0-8.2,0.3c-2.2,0.3-3.3,0.4-5.5,0.4c-2.2,0-5,0.3-8.3,0.8c-1.6-0.1-3.4-0.1-5.2,0.1l-7.6,0.5l0.3,4.3l0.2,2.4   c0.3,2.8,0.4,5.7,0.6,8.5c0.2,3.6,0.4,7.3,0.7,10.9c0.3,2.8,0.4,5.6,0.6,8.4c0.1,2.7,0.4,5.8,0.5,8.7c0.1,1.5,0.2,2.9,0.3,4.1   l0.2,2.2c0.1,0.9,0.2,1.7,0.3,2.3l0.3,0l4.2,0c0.9,0,1.8,0,2.7-0.1c1.8-0.1,3.6-0.3,5.4-0.7c1.8,0.1,3.8,0.1,5.8,0   c2-0.1,3.9-0.4,5.2-0.6c1,0.1,2,0.2,3.7,0.1l8-0.4c2.6-0.1,5.2-0.3,7.8-0.6c0.5,0,1-0.1,1.4-0.1c3,0,4.6-0.1,6.7-0.3   C297.6,383.7,299.4,375.6,299.2,372.8L299.2,372.8z"
   style="fill:#FFFFFF;"
   id="path30" />
	<path
   d="M367.9,208.9l0.1-0.2L367.9,208.9L367.9,208.9z M368.3,208.3l0.2-0.1c-0.1,0.5-0.2,0.9-0.2,0.9   C368.3,209,368.3,208.7,368.3,208.3z M368.8,208.1c0.2,0,0.5-0.1,0.7-0.1c-0.2,0.9-0.3,1.1-0.3,1.1c-0.1,0-0.2-0.1-0.3,0   C368.8,209.1,368.8,208.8,368.8,208.1L368.8,208.1z M369.8,207.3L369.8,207.3c0-0.5,0-1,0.1-1.6L369.8,207.3L369.8,207.3z    M369.8,208.1l0.3,0C369.7,209.7,369.6,209.7,369.8,208.1z M370.3,207.7l-0.1-0.1l0.3-1.6C370.4,206.7,370.3,207.3,370.3,207.7z    M370.2,208.1l0.3,0C370.2,209.8,370.1,209.7,370.2,208.1z M370.6,208l0.2-1.1C370.7,207.3,370.7,207.7,370.6,208L370.6,208z    M373.7,200.4l0.1,0c0,0.4-0.1,0.7-0.1,0.5L373.7,200.4L373.7,200.4z M374.1,200.4L374.1,200.4L374.1,200.4   C374.2,201.4,374.1,201.3,374.1,200.4L374.1,200.4z M374.6,199.2l0.1-0.1l0,0.4L374.6,199.2L374.6,199.2z M375.2,199.1l0.1,0   l-0.1,1.8C375.2,200.4,375.2,199.7,375.2,199.1z M375.5,199.3l0.1,0l0,0.4c0,0.3,0,0.1-0.1-0.1L375.5,199.3z M376.2,198.6l0,0.5   c-0.2-0.2-0.3-0.4-0.5-0.5C375.9,197.4,376,198.5,376.2,198.6z M376.2,199.5l0.1,0.1c0,0.6-0.1,1.3-0.1,2.2l-0.1-2.1   C376.2,199.7,376.2,199.5,376.2,199.5z M376.6,199.6l-0.2-0.2C376.4,198,376.5,198,376.6,199.6z"
   style="fill:#382D15;"
   id="path32" />
	<path
   d="M289.4,403.9c2.7-7.5,5.6-15.7,6.5-23.7c0-0.5,0.1-0.9,0.1-1.4l0.1-1c0-0.6,0-1.3-0.1-1.9   c-0.2-1.1-0.6-2.1-1.3-2.6c-0.6-0.5-1.4-0.8-2.2-1c-0.1,0-0.3,0-0.4,0l-0.5-0.2c-3.1-0.5-13.8-1.6-16.5,0.6   c-1.3-1.6-8.4-1.3-9.9-0.6c-1.6-2.4-24.8-2.7-27.1-0.6c-0.2-0.3-0.5-0.5-0.8-0.7c-0.4-0.3-0.8-0.4-1.3-0.5   c-0.8-0.1-1.8,0.2-2.7,0.7c-0.5-0.9-1.3-1.4-2.2-1.4c-0.8-0.1-1.8,0.2-2.7,0.9c-3.8-6-13,9.8-13.3,12.9c-2.2,3.2-4.3,9.5-4.1,13.4   c0.3,1.9-1.4,4.4-1.8,6.4c0.1,0.7-0.1,1.4-0.5,2c-6.4,9.5-11,28.3-12.8,39.8c-0.4,4.9-5,9.1-4.6,14.3c0.1,0.4-0.1,0.9-0.4,1.2   c-1.2,2-1.7,3.8-1.7,6c0.3,2.8-1.8,4.6-1.1,7.7c-1.3,3-0.4,5.1,1.1,7.7c0.3,0.5,0.7,0.9,1.1,1c1-0.1,1.9-0.2,2.8-0.4   c1.9,0.9,7.8,1.1,9.3-0.2c1.3,1.5,2.7,1.6,4.9,0.3c1.3,1.4,2.5,1.5,5,0.2c0.3,0.6,0.8,0.9,1.4,1c2.3,0.1,4.6,0.7,7.1,0.1   c0.2-0.1,0.4-0.1,0.6,0c1.1,0.8,2.6,0.8,4.2-0.2c0.4,0.6,1.1,1,1.8,1c9.1,0.7,18.4,1,27.5,2.2l0.6,0.1c8-1.4,15.5-16.9,15.5-24.7   c-0.1-0.4,0.1-1,0.4-1.4c4.2-6.6,4.3-16.4,7.5-23.7C281.4,426.2,285.5,414.4,289.4,403.9L289.4,403.9z"
   style="fill:#eebb4d;fill-opacity:1"
   id="path34" />
	<path
   d="M399.7,200.3c-0.5,0.8-0.7,1.3,0,2.1l0,0.1c-2.3,0.4-2.4,1.2-0.2,2.2c-0.1,0.4-0.1,0.8-0.1,1.3   c0,0.4-0.2,0.9-0.5,1.2c-0.6,0.4-0.8,1.2-0.5,1.9c0.3,0.9,0,1.9-0.8,2.4c-0.6,1.4-1.4,2.8-2.2,4.1c-0.8,0.9-1.4,1.9-1.8,3   c-0.3,0.3-0.7,0.5-1.1,0.6c-0.9,0.1-1.7,0.7-1.9,1.6c-0.3,0.8-1.3,1-1.9,1.4l-0.2,0c-0.4,0.5-1,1-1.8,1.1c-2.1,0-6,4.7-6.9-0.6   c-0.2,0.9-0.6,1.7-1.3,2.4c-1.8,1.1-4.2-2.3-3.8-3.8c-2.1,1.8-3.6,1.4-4.6-1.3c0-0.8-0.5-1.7-1.2-2.1c-0.9-0.7-1.3-1.9-0.9-3.1   c0.7-1.2-0.6-4.1,0.1-5.6v0.1l0.1-0.3c0.1-0.1,0.2-0.2,0.3-0.3c0,0.4,0,0.7,0,0.7c0,0,0.1-0.4,0.2-0.9l0.3-0.1c0,0.7,0,1,0.1,1   c0.1-0.1,0.2,0,0.3,0c0.1,0,0.2-0.2,0.3-1.1l0.2,0c-0.1,1.6,0,1.6,0.3,0l0.2,0c-0.1,1.6,0,1.6,0.3,0l0.1,0l0.2,0l-0.2-0.2   c0-0.4,0-0.8,0.1-1.2l-0.2,1.1l-0.3-0.3c0-0.5,0.1-1.1,0.2-1.7l-0.3,1.6l-0.3-0.3l0.1-1.6c-0.1,0.6-0.2,1.1-0.2,1.5   c-1.2-1.8-0.4-2.2,2.4-1c-2.5-2.7-1.3-3.4,1.4-1.8c-1.7-1.4-1.7-2.7,0.2-3.9l0,0.5c0,0.2,0.1-0.1,0.1-0.5h0.3l0.1,0v0   c0.2,0,0.4,0.1,0.6,0.1c0.1-0.4,0-0.7-0.2-1l0-0.4c0.1-0.1,0.2,0,0.5,0c0,0.6,0,1.2,0,1.9l0.1-1.8l0.2,0.1l0,0.3   c0.1,0.3,0.1,0.2,0.1-0.2l0.5,0.2c0,0.8,0,1.5,0.1,2.3c0-0.9,0-1.7,0.1-2.2l0.2,0.1l0.1,0.1l-0.1-0.2c-0.1-1.6-0.1-1.6-0.2-0.2   l-0.2-0.2l0-0.5c-0.2-0.1-0.3-1.2-0.4,0c-1-1.2,1.1-2.5,1.7-2.1c0.8,0.4-1.7-4.2,1.2-3c-2.1-0.7-3.1-5.3-3.1-5.5l-0.5-1.7   c-0.1-0.2,0-0.4,0.4-0.8c0.6-0.4,0.2-0.4-0.1-0.6c-1.7-0.5-1.7-1.7-1.3-3.1c0.2-0.3,0.5-0.5,0.9-0.7c0.6-0.4,0.6-0.4-0.1-0.4   c-2.3,0.1-2.5-0.5-0.7-1.7c0-0.9,0-1.7,0.1-2.6c-1.3-0.1-2.1-2.5-2.2-3.4c0.6-0.4,1.2-0.9,1.6-1.4c-2.1-1.7,0.4-5.7,2.6-5.8   c0.9,0,1.7,0.6,2.1,1.5c2.1-3.7,3.2-3.5,3.6,0.6c3.2-1.7,3.8-1,1.9,2c1-0.5,2.1-0.9,2.3-0.7c0.6,0.9,2.1,1.1,1.1,3   c-0.1,0.1-0.1,0.3,0.1,0.2c1.9-0.5,1.7,0.4,0.1,2.1c1.9-1,3-0.5,3.4,1.5c-0.1,0.7,0.3,1.4,1,1.5c0.8,0.2,1.2,1,1.1,1.9   c-0.2,0.7,0.2,1.5,1,1.6c0.7,1.2,1.3,2.4,1.9,3.7c0.7,0.4,1,1.2,0.9,2c-0.3,0.7,0.1,1.5,0.8,1.9c0.7,0.5,0.5,1.3,0.8,2   c0.1,0.4-0.1,0.8-1.3,1.4c1.4-0.6,1.5,5.3,0.6,4.8c0.8,0.3,2.1,0.5,2.1,1.1C399.7,198.8,400.2,199.5,399.7,200.3L399.7,200.3z    M369.8,207.3l0.3,0.3l-0.1,0.5c-0.3,1.6-0.4,1.6-0.3,0L369.8,207.3z M370.3,207.7l0.3,0.3l0,0.2c-0.3,1.6-0.4,1.6-0.3,0   L370.3,207.7z M370.7,208.1l0.2,0.2l-0.2,0V208.1z M373.7,198.1c0.1,0.8,0,1.6,0,2.3c-2.4,0.5-0.9,2.9-0.2,3.9   c-2.7-1.6-3.9-0.9-1.4,1.8c-0.6-0.2-4.5-1.3-2.4,1c-0.1,0.8-0.2,1.6-0.8,1.9c-0.1-0.7-0.1-1.3,0-2c0,0.1-0.6,2-0.6,2   c-0.1-0.3,0-1.9,0.1-2.3c0,0.1-0.4,2.1-0.5,2.1c0-0.9,0.1-1.7,0.2-2.6c0.1,1-0.1,1.9-0.7,2.5c0-0.7,0.1-1.5,0.3-2.2   c-0.2,0.8-0.4,1.5-0.6,2.3l0.3-2.4l0,0.1c-0.1,0.9-0.4,1.6-0.9,2.3c-0.1-0.6-0.1-1.2,0-1.9c-0.2,0.5-0.3,1-0.6,1.4   c-0.2-0.1-0.3-0.1-0.4-0.1l0.2-2.2c-0.1,0.6-0.7,1.4-0.7,2c-0.1-1.1-0.5-0.1-0.8,0l0.4-2.7c-0.1,0.6-1.1,2.2-0.9,2.7   c0.1-1,0.3-2.1,0.5-3.1c-0.3,1-0.6,2-1,3c0.2-0.8,0.3-1.5,0.3-2.3c-0.2,0.7-0.4,1.4-0.8,2l-0.4-0.1c0.1-0.9,0.3-1.8,0.5-2.7   c-1,3.1-1.1,3.3-0.8,1.3l0-0.3c-1.1,2.3-0.2,1.4-1,1c0.2-1.1,0.5-2,0.8-3.1c-1.3,4-1.8,4.7-0.4-0.1c-1.5,4.4-1.7,4.4-0.4-0.2   c-0.9,2.8-1.3,3.2-1.3,3.2l-0.3-0.4c0.4-1.6-0.4,0.4-0.7,0.3c0,0-0.4-0.5-0.8-0.6c0.2-1.1,0.5-2.1,0.9-3.1   c-0.4,1.1-0.9,2.1-1.5,3.1c0.2-0.8,0.5-1.6,0.7-2.3c-0.3,0.8-0.7,1.5-1.2,2.2c0.2-1.2,0.6-2.4,1.1-3.5c-0.3,0.8-1.8,4.6-2.7,2.6   l4.7-10.8c-0.9,0.3,1.6,0.5,0.9-0.1c0,0.4-0.1,0.8-0.1,1.2c0.2-0.3,0.5-0.6,0.7-0.9c-0.1,0.4-0.1,0.8-0.1,1.2   c0.2-0.3,0.4-0.6,0.6-0.9l0,1.2c0.1-0.3,0.3-0.5,0.5-0.8c0.4,0.5-0.4,2.2-0.5,2.5l0.9-2.2c-0.3,1.4,0.3,0.3,0.6,0.1l-0.6,2.7   c0.1-0.5,1.2-2,1-2.5c-0.3,1-0.5,2-0.7,2.9c-0.2-0.7,1-2.2,1.1-2.7c0.2-1.2-1.2,4.7-0.4,2.1c0.1-0.8,0.3-1.4,0.7-2   c-0.3-0.1,1.4,0.3,0.8-0.1c0,0.4,0,0.8,0,1.2c0.2,0.1,2-0.1,1.9-0.1c0,0.5-0.1,0.9-0.1,1.4c0.5-1.8,0.6-2.1,0.3,0   c0.2-2.7,0.4-1.1,0.8-1.1c0.2,0.8-0.3,2.3-0.4,3.1c1-4.4,1.1-4.4,0.4,0.1c0.9-4.5,1-4.5,0.4,0.3c-0.3,1.9,0.2-3.7,1-3.3   c0.1,0.6,0,1.3-0.1,1.9c0.1-0.5,0.4-1.9,0.4-1.9c0,0.8-0.1,1.5-0.1,2.3c0.1-0.7,0.3-1.4,0.5-2.1c0.1,0.9,0,1.7-0.1,2.6   c-0.1-0.9,0.1-1.8,0.5-2.5c-0.1,0.7-0.2,1.3-0.1,2c0.1-0.7,0.3-1.4,0.5-2.1c0,1-0.1,2-0.2,2.9c0.2-0.5,0.1-3,0.8-3.1   c0.1,0.6,0.1,1.2,0.2,1.8c0.1-0.5,0.3-1,0.4-1.4c0.1,0,0.2,0.1,0.3,0l0,2.2c0-0.7,0.4-1.4,0.4-2.1   C373.1,199.4,373.5,198.2,373.7,198.1L373.7,198.1z M374.1,198.1c0,0.7,0.1,1.4,0,2.2h-0.3C373.9,199.5,374.1,198.1,374.1,198.1z    M374.9,200.2c0.1,0.2,0.2,0.3,0,0.3c-0.2-0.1-0.4-0.1-0.6-0.1c0.2-2.5,0.3-2.9,0.3-1.1v0l0,0.6l0-0.1l0-0.3   C374.7,199.6,374.8,199.9,374.9,200.2z M375.1,198.3c0,0.3,0.1,0.5,0.1,0.8c-0.3-0.1-0.4-0.1-0.5,0c0-0.3,0.1-0.6,0.1-0.8   C374.9,198.3,375,198.4,375.1,198.3L375.1,198.3z M375.5,199.3l-0.2-0.1C375.4,197.9,375.5,198,375.5,199.3z M376.2,199.1l0,0.4   l-0.5-0.2c0-0.3,0-0.5,0.1-0.7c0.1-1.2,0.3-0.1,0.4,0L376.2,199.1z M376.6,199.6L376.6,199.6l-0.2,0l0-0.2   C376.4,198,376.5,198,376.6,199.6z M225.9,431.9c1.3-1,1-6.4,0.2-7.4c-0.1-0.1-0.4-0.2-0.7-0.3c-0.8-0.2,0.8-0.8,0.7-1.3   c-0.1-0.8-0.8-2.5-1.8-2.7c1.8-1.5,0-1.4-0.3-2.3c0.1,0.3-0.7-2.7-1-1.8c0.3-0.5,0.2-1.2-0.2-1.6c-1-1-2.2-2.5-3.6-0.9   c0.1-2.1-0.9-2.5-2.1-0.8c-0.4-1.9-1.2-2.1-2.2-0.3c-0.2-1.7-2.6-2.1-3.7-0.8c-0.1,0.1-0.2,0.2-0.3,0c-0.7-1-1.2-0.7-1.7,0.7   c-1-2.6-3,0-4.7-1.1c-1.1-0.5-8-0.2-9.2,0.4c-0.5,0.3-1.2,0.4-1.8,0.2c-0.8-0.1-1.5,0-2.2,0.3c-0.9,0.3-0.7,1.8-1.4,1.5   c-0.5-0.3-1.3-0.3-1.7,0.2c-0.4,0.5-0.4,1.3,0,1.8c-0.6-1-1.5,4.1-0.3,2.9c-0.5,0.3-0.9,0.7-1.1,1.2c0.1,0.6-0.2,1.2,0.2,1.8   c0.4,0.5,0.4,1.2,0.1,1.7c0,0,1,1.1,1,0.9c-0.3,0.3-0.6,0.6-0.9,0.9c0.1,0.5,0.4,3.3,0.3,3.6c-0.5,1.3-0.2,7.7,0.4,9.1   c0.3,0.6,0.3,1.3,0.1,1.9c-0.1,0.6-0.1,1.2,0,1.8l0.1,0.3l2.4-0.2l-0.3,0.3c-0.5-0.1-1-0.2-1.6-0.2l-0.2,0.1l-0.1,2.7l-0.3,2.4h0.1   c0.7,0.3,1.4,0.3,1.9,0.2c1.8-0.8,3.7,1.9,4.7-0.9c0.4,1.8,3.3,1.7,4.1,0.5c0.3,1.5,1.2,1.9,2.9,1.5c1.2,0.1,2.4,0.3,3.6,0.3   c1.7-0.8,4,2,4.8-0.9c0.8,1.9,1.5,1.9,2.1,0c0.7,1.6,1.9,1.6,2.1-0.3c0.3,0.5,0.7,1.2,1,1.1c1.1-0.4,2.7,0,3.1-1.5   c0.1-0.2,0.2-0.2,0.3-0.1c1.2,0.3,1.7-0.2,1.4-1.5c1.7,0.7,2-0.1,3.3-1.8c0.2-0.3,0.2-0.7-0.1-1c-0.4-0.8,1,0,1.2-1   c0.2-0.5-1.3-1.5-0.4-1.5c0.5,0.1,0.9-0.2,1.2-0.6c-0.2-0.5-0.4-1-0.8-1.4c2.8-1.1,0.5-3,1.9-4.7   C227,432.6,225.6,432.2,225.9,431.9L225.9,431.9z M208.2,423.3c0,0.7,1.9,0.1,2-2.2c0,0.9,0.1,1.7,0.3,2.6c0.1-0.6,0.2-1.2,0.3-1.8   c0.1,0.6,0.2,1.2,0.3,1.8c0.2-0.8,0.3-1.6,0.3-2.4c0,0.7,0,1.6,0.3,2.3c0,0,1.2-0.4,0.8-0.5c0.9,0.2,0.1,0.2,1,0   c1-0.3,1.1,1.7,1.1-1.9c0.4,3.3,0.6,3.3,0.6,0c0.4,3.4,0.7,2.9,0.6-0.1c0,0.7,0.1,1.4,0.4,2.2c0.8,0,0.7,1.3,0.9-0.9   c0.3,0.2,0.4,0.6,0.4,1c0.2-0.6,0.3-1.3,0.1-2c0,0.7,0.1,1.3,0.4,1.9c1.4,0,0-1.1,0.5-1.7c0.3,0.5,0.4,0.9,0.5,1.5   c0,0,0.2-2.2,0.1-2.2c0.3,0,0.1,2,0.6,2v-2c0.9,3.2,1.2,0.5,1.7,1.6c-0.1-0.3,0.1-1.2,0-1.6c0.3,1.2,0.2,1.3,1.1,1.3   c0-0.1,0.1-1.1,0-1.1c0.3,0.4,0.5,0.7,0.8,1.1c0.5-0.1,0.4-2,0.1-2.3c0.2,0.2,0.9,1.9,0.9,1.9c0-0.5,0-0.9,0-1.4   c0.7,2,0.7,1.7,0.4-0.6c0.1,0.6,0.3,1.1,0.7,1.7v-1.6c0,0,0.7,1.4,0.7,1.4c0,0,0-1.5,0-1.4c0.1,0.5,0.4,0.9,0.7,1.3   c0.8-0.8,0.5-1.1,0.1-2.6c1,3.2,1.3,3.2,0.6,0c1,3,1.1,2.9,0.6-0.1c0.1,0.7,0.4,1.4,0.7,2c0.3-0.1,0.9,0.9,0.6-1   c0.7,1.6,0.7,1,0.1-1.1c0.9,2.5,0.6,1.4,1.5,1.1c0.2,0.2,0.4,0.4,0.7,0.5c0.1-0.3,0.2-0.6,0.3-1l0.9,0.6c0.1-0.3,0.2-0.6,0.2-0.9   c0.2,0.2,0.5,0.4,0.7,0.6c0.1-0.3,0.2-0.6,0.3-0.9c0.2,0.2,0.5,0.4,0.8,0.4c0.4-0.4,0.2-2.1-0.3-2.4c0.4,0.6,0.7,1.2,1,1.8   c0,0-0.1-1.8-0.4-1.9c0.5,0.2,0.5,1.8,1.1,1.8c-0.1,0-0.3-1.7-0.4-1.9c1.2,2,1.7,0.8,2,1.1c-0.2-0.5-0.4-1-0.4-1.6   c0.5,0,0.5,1.8,1.2,1.4c0.2-0.1,0.5-0.9,0.5-0.9c0.2,0.2,0.5,0.4,0.8,0.5c0.1-0.3,0.2-0.7,0.2-1c0.3,0.1,0.6,0.3,0.9,0.4   c0.1-0.3,0.1-0.6,0.1-0.9c0.2,0.2,0.5,0.4,0.8,0.5c0-0.3,0.1-0.7,0.1-1c0.7-0.2,0.5,0.6,1.1,0v-0.1l-4-7c-0.9,0,0.1,0.4-0.4,0.7   c-1,0.5-1.4-0.8,0,2.2c-0.4-0.8-0.9-1.5-1.5-2.1c0.2,0.6,0.4,1.1,0.5,1.6l-1-1.4c0.2,0.8,0.5,1.5,0.8,2.3c-0.3-0.7-0.7-1.3-1.3-1.9   c0.1-0.1-0.7,0.9-0.5,0.7c-0.3-0.2-0.5-0.3-0.8-0.5c-0.3,0.2,0.5,1.6-0.4,0.7h-0.4c0,0-0.1,0.4,0.7,2.3c-1.6-2.9-1.6-2.9-0.6,0.1   c-1.6-3-1.6-2.6-0.6,0.3c-0.3-0.7-0.6-1.3-1-2c-0.7,0-0.8-0.7-0.4,1c-0.4,0-0.6-0.2-0.6-0.8c0,0.7,0.1,1.3,0.5,1.9l-0.9-1.7   c-0.8,0.8-0.3,0.3-0.3,1.7c-0.1-0.5-0.3-0.9-0.6-1.4c0.2,0.3,0,1.7,0.3,2.1c-0.5-0.5-0.4-1.4-1-1.9c0.3,0.3,0.3,1.5,0.4,1.9   c-1-2.1-1.5-1-1.7-1.4l0.1,1.4l-0.7-1.4c-0.1,0.1-0.3,0.1-0.4,0.1c-0.1,0.2,0,0.6,0,0.9c-0.4-0.1-0.7-0.4-0.8-0.8   c-0.4,0.2-0.1,1.5,0,1.8c0.1-0.9-0.1-1.3-0.7-1.4c0.1,0.5,0.1,1.1,0.2,1.6c-0.6-1.1-0.9-2.6-0.3,0.3c-0.1-0.6-0.4-1.1-0.7-1.7   l0.1,1.6c-0.2-0.5-0.4-0.9-0.6-1.4c0,0.2,0,1.4,0,1.4l-0.6-1.3c-0.7,0.5-0.3,1.4-0.1,2.4c-0.9-3.2-1-3.2-0.6,0c-0.9-3-1-3-0.6,0.1   c-0.1-0.7-0.3-1.4-0.6-2c-0.3,0-0.7-1-0.6,0.9c-0.4-1.7-0.6-1-0.3,1.1c-0.1-0.7-0.3-1.3-0.6-1.9c0,0-1.2,0.4-0.8,0.5   c-0.1-0.3-0.3-0.5-0.5-0.7c-0.2,0.3-0.4,0.6-0.4,0.9c-0.2-0.3-0.4-0.6-0.6-0.9c-0.1,0.3-0.3,0.5-0.4,0.8c-0.1-0.3-0.3-0.5-0.5-0.7   c-0.2,0-0.3,1.4-0.6,0.3h-0.4c0,0.2-0.2,2.1-0.2,2.1c0,0-0.5-2.1-0.5-2l-0.1,1.9c-0.3-0.3-0.4-1.7-0.4-2.1c0,0.4-0.3,1.7-0.1,2   c0-0.7-0.1-1.3-0.4-1.9c-0.5,0-0.7,1-0.9,0.1c0,0.5-0.1,1.1-0.1,1.6c0-2.3-0.6-0.9-1.1-1.1c-0.1-0.3-0.3-0.5-0.5-0.8   c-0.2,0.2-0.4,0.5-0.5,0.8c-0.1-0.3-0.3-0.5-0.4-0.8c-0.2,0.2-0.4,0.5-0.6,0.8c-0.1-0.3-0.2-0.5-0.4-0.8l-0.4,0.8   c-0.5-0.1,0-0.5-0.6-0.5l-0.1,0.1L208.2,423.3L208.2,423.3z M209.3,433.2c0,0.7,1.9,0.1,2-2.2c0,0.9,0.1,1.7,0.3,2.6   c0.1-0.6,0.2-1.2,0.3-1.8c0.1,0.6,0.2,1.2,0.3,1.8c0.2-0.8,0.3-1.6,0.3-2.4c0,0.7,0,1.6,0.3,2.3c0,0,1.2-0.4,0.8-0.5   c0.9,0.2,0.1,0.2,1,0c1-0.3,1.1,1.7,1.1-1.9c0.4,3.3,0.6,3.3,0.6,0c0.4,3.4,0.7,2.9,0.6-0.1c0,0.7,0.1,1.4,0.4,2.2   c0.8,0,0.7,1.3,0.9-0.9c0.3,0.2,0.4,0.6,0.4,1c0.2-0.6,0.3-1.3,0.1-2c0,0.7,0.1,1.3,0.4,1.9c1.4,0,0-1.1,0.5-1.7   c0.3,0.5,0.4,0.9,0.5,1.5c0,0,0.2-2.2,0.1-2.2c0.3,0,0.1,2,0.6,2v-2c0.9,3.2,1.2,0.5,1.7,1.6c-0.1-0.3,0.1-1.2,0-1.6   c0.3,1.2,0.2,1.3,1.2,1.3c0-0.1,0.1-1.1,0-1.1c0.3,0.4,0.5,0.7,0.8,1.1c0.5-0.1,0.4-2,0.1-2.3c0.2,0.2,0.9,1.9,0.9,1.9   c0-0.5,0-0.9,0-1.4c0.7,2,0.7,1.7,0.4-0.6c0.1,0.6,0.3,1.1,0.7,1.7v-1.6c0,0,0.7,1.4,0.7,1.4c0,0,0-1.5,0-1.4   c0.1,0.5,0.4,0.9,0.7,1.3c0.8-0.8,0.5-1.1,0.1-2.6c1,3.2,1.3,3.2,0.6,0c1,3,1.1,2.9,0.6-0.1c0.1,0.7,0.4,1.4,0.7,2   c0.3-0.1,0.9,0.9,0.6-1c0.7,1.6,0.7,1,0.1-1.1c0.9,2.5,0.6,1.4,1.5,1.1c0.2,0.2,0.4,0.4,0.7,0.5c0.1-0.3,0.2-0.6,0.3-1l0.9,0.6   c0.1-0.3,0.2-0.6,0.2-0.9c0.2,0.2,0.5,0.4,0.7,0.6c0.1-0.3,0.2-0.6,0.3-0.9c0.2,0.2,0.5,0.4,0.8,0.4c0.4-0.4,0.2-2.2-0.3-2.4   c0.4,0.6,0.7,1.2,1,1.8c0,0-0.1-1.8-0.4-1.9c0.5,0.2,0.5,1.8,1.1,1.8c-0.1,0-0.3-1.7-0.4-1.9c1.2,2,1.7,0.8,2,1.1   c-0.2-0.5-0.4-1-0.4-1.6c0.5,0,0.5,1.8,1.2,1.4c0.2-0.1,0.5-0.9,0.5-0.9c0.2,0.2,0.5,0.4,0.8,0.5c0.1-0.3,0.2-0.7,0.2-1   c0.3,0.1,0.6,0.3,0.9,0.4c0.1-0.3,0.1-0.6,0.1-0.9c0.2,0.2,0.5,0.4,0.8,0.5c0-0.3,0.1-0.7,0.1-1c0.7-0.2,0.5,0.6,1.1,0v-0.1l-4-7   c-0.9,0,0.1,0.4-0.4,0.7c-1,0.5-1.4-0.8,0,2.2c-0.4-0.8-0.9-1.5-1.5-2.1c0.2,0.6,0.4,1.1,0.5,1.6l-1-1.4c0.2,0.8,0.5,1.5,0.8,2.3   c-0.3-0.7-0.7-1.3-1.3-1.9c0.1-0.1-0.7,0.9-0.5,0.7c-0.3-0.2-0.5-0.3-0.8-0.5c-0.3,0.2,0.5,1.6-0.4,0.7h-0.4c0,0-0.1,0.4,0.7,2.3   c-1.6-2.9-1.6-2.9-0.6,0.1c-1.6-3-1.6-2.6-0.6,0.3c-0.3-0.7-0.6-1.3-1-2c-0.7,0-0.8-0.7-0.4,1c-0.4,0-0.6-0.2-0.6-0.8   c0,0.7,0.1,1.3,0.5,1.9l-0.9-1.7c-0.8,0.8-0.3,0.3-0.3,1.7c-0.1-0.5-0.3-0.9-0.6-1.4c0.2,0.3,0,1.7,0.3,2.1c-0.5-0.5-0.4-1.4-1-1.9   c0.3,0.3,0.3,1.5,0.4,1.9c-1-2.1-1.5-1-1.7-1.4l0.1,1.4l-0.7-1.4c-0.1,0.1-0.3,0.1-0.4,0.1c-0.1,0.2,0,0.6,0,0.9   c-0.4-0.1-0.7-0.4-0.8-0.8c-0.4,0.2-0.1,1.5,0,1.8c0.1-0.9-0.1-1.3-0.7-1.4c0.1,0.5,0.1,1.1,0.2,1.6c-0.6-1.1-0.9-2.6-0.3,0.3   c-0.1-0.6-0.4-1.1-0.7-1.7l0.1,1.6c-0.2-0.5-0.4-0.9-0.6-1.4c0,0.2,0,1.4,0,1.4l-0.6-1.3c-0.7,0.5-0.3,1.4-0.1,2.4   c-0.9-3.2-1-3.2-0.6,0c-0.9-3-1-3-0.6,0.1c-0.1-0.7-0.3-1.4-0.6-2c-0.3,0-0.7-1-0.6,0.9c-0.4-1.7-0.6-1-0.3,1.1   c-0.1-0.7-0.3-1.3-0.6-1.9c0,0-1.2,0.4-0.8,0.5c-0.1-0.3-0.3-0.5-0.5-0.7c-0.2,0.3-0.4,0.6-0.4,0.9c-0.2-0.3-0.4-0.6-0.6-0.9   c-0.1,0.3-0.3,0.5-0.4,0.8c-0.1-0.3-0.3-0.5-0.5-0.7c-0.2,0-0.3,1.4-0.6,0.3h-0.4c0,0.2-0.2,2.1-0.2,2.1c0,0-0.5-2.1-0.5-2   l-0.1,1.9c-0.3-0.3-0.4-1.7-0.4-2.1c0,0.4-0.3,1.7-0.1,2c0-0.7-0.1-1.3-0.4-1.9c-0.5,0-0.7,1-0.9,0.1c0,0.5-0.1,1.1-0.1,1.6   c0-2.3-0.6-0.9-1.1-1.1c-0.1-0.3-0.3-0.5-0.5-0.8c-0.2,0.2-0.4,0.5-0.5,0.8c-0.1-0.3-0.3-0.5-0.4-0.8c-0.2,0.2-0.4,0.5-0.6,0.8   c-0.1-0.3-0.2-0.5-0.4-0.8l-0.4,0.8c-0.5-0.1,0-0.5-0.6-0.5l-0.1,0.1L209.3,433.2L209.3,433.2z M211.1,439.7   c-0.1,0.7,1.8,0.2,2.2-2c-0.1,0.9-0.1,1.7,0.1,2.6c0.2-0.6,0.3-1.2,0.4-1.7c0,0.6,0,1.2,0.1,1.8c0.3-0.8,0.4-1.6,0.5-2.4   c-0.1,0.7-0.1,1.6,0.1,2.3c0,0,1.2-0.3,0.8-0.5c0.1,0.3,0.2,0.5,0.4,0.7c0.2-0.2,0.4-0.4,0.6-0.7c1-0.2,0.9,1.8,1.2-1.8   c0.1,3.3,0.3,3.3,0.6,0c0.1,3.5,0.5,2.9,0.6-0.1c-0.1,0.7,0,1.4,0.2,2.2c0.8,0.1,0.6,1.3,0.9-0.8c0.3,0.3,0.4,0.6,0.4,1   c0.3-0.6,0.4-1.3,0.3-2c-0.1,0.7,0,1.3,0.3,1.9c1.4,0.1,0.1-1.1,0.7-1.6c0.2,0.5,0.3,1,0.4,1.5c0,0,0.4-2.2,0.3-2.2   c0.3,0-0.1,2,0.4,2l0.2-2c0.6,3.3,1.1,0.6,1.6,1.7c-0.1-0.3,0.2-1.2,0.1-1.6c0.2,1.2,0.1,1.3,1,1.4c0-0.1,0.2-1.1,0.1-1.1   c0.2,0.4,0.5,0.8,0.8,1.1c0.5-0.1,0.6-2,0.3-2.3c0.2,0.2,0.7,1.9,0.7,1.9c0-0.5,0-0.9,0.1-1.4c0.5,2.1,0.6,1.8,0.5-0.5   c0.1,0.6,0.2,1.2,0.6,1.8l0.1-1.6c0,0,0.6,1.5,0.6,1.5c0,0,0.1-1.5,0.1-1.4c0.1,0.5,0.3,1,0.6,1.3c0.8-0.7,0.6-1.1,0.4-2.6   c0.7,3.2,1,3.3,0.6,0c0.7,3.1,0.9,3,0.6-0.1c0.1,0.7,0.3,1.5,0.5,2.1c0.3-0.1,0.8,0.9,0.7-1c0.6,1.6,0.6,1.1,0.2-1.1   c0.7,2.6,0.5,1.4,1.4,1.3c0.2,0.2,0.4,0.4,0.7,0.6c0.1-0.3,0.3-0.6,0.4-0.9l0.8,0.7c0.1-0.3,0.2-0.6,0.3-0.9   c0.2,0.2,0.4,0.5,0.7,0.7c0.2-0.3,0.3-0.6,0.4-0.9c0.2,0.2,0.5,0.4,0.8,0.5c0.5-0.4,0.3-2.1,0-2.4c0.3,0.6,0.6,1.2,0.8,1.9   c0,0,0-1.8-0.3-2c0.4,0.3,0.4,1.8,1,1.9c-0.1,0-0.2-1.7-0.3-1.9c1,2.1,1.7,0.9,1.9,1.3c-0.2-0.5-0.3-1.1-0.3-1.6   c0.5,0,0.4,1.8,1,1.5c0.2-0.1,0.6-0.9,0.5-0.8c0.2,0.3,0.5,0.5,0.8,0.6c0.1-0.3,0.2-0.6,0.3-1c0.3,0.2,0.5,0.3,0.8,0.4   c0.1-0.3,0.1-0.6,0.2-0.9c0.2,0.2,0.4,0.4,0.7,0.6c0.1-0.3,0.1-0.7,0.2-1c0.7-0.2,0.5,0.6,1.1,0.1l0-0.1l-3.4-7.4   c-0.9-0.1,0.1,0.4-0.5,0.6c-1,0.4-1.3-0.9-0.2,2.2c-0.3-0.8-0.8-1.5-1.3-2.2c0.1,0.6,0.3,1.1,0.4,1.7l-0.9-1.5   c0.1,0.8,0.3,1.6,0.6,2.3c-0.2-0.7-0.6-1.3-1.1-2c0.1-0.1-0.8,0.8-0.5,0.6c-0.2-0.2-0.5-0.4-0.8-0.6c-0.3,0.2,0.4,1.6-0.5,0.6   l-0.4,0c0,0-0.2,0.4,0.5,2.4c-1.3-3-1.3-3-0.6,0.1c-1.3-3.1-1.4-2.7-0.6,0.2c-0.2-0.7-0.5-1.3-0.8-2.1c-0.7-0.1-0.8-0.8-0.5,1   c-0.4,0-0.6-0.3-0.6-0.8c-0.1,0.7,0,1.3,0.3,1.9l-0.7-1.8c-0.9,0.8-0.3,0.2-0.5,1.6c-0.1-0.5-0.2-1-0.5-1.4   c0.2,0.3-0.2,1.7,0.1,2.1c-0.4-0.5-0.3-1.5-0.8-2c0.2,0.3,0.2,1.5,0.3,1.9c-0.9-2.2-1.4-1.2-1.6-1.6l0,1.4l-0.6-1.5   c-0.2,0.1-0.3,0.1-0.4,0.1c-0.1,0.2,0,0.6-0.1,0.9c-0.4-0.1-0.6-0.4-0.8-0.9c-0.4,0.1-0.2,1.5-0.2,1.8c0.2-0.8,0-1.3-0.6-1.4   c0,0.5,0,1.1,0,1.6c-0.5-1.2-0.7-2.7-0.4,0.3c-0.1-0.6-0.3-1.2-0.6-1.8l0,1.6c-0.2-0.5-0.3-1-0.4-1.5c0,0.2-0.1,1.4-0.1,1.4   l-0.5-1.3c-0.7,0.4-0.4,1.3-0.4,2.4c-0.6-3.2-0.7-3.2-0.6,0c-0.6-3.1-0.7-3.1-0.6,0.1c-0.1-0.7-0.2-1.5-0.4-2.1   c-0.3,0-0.6-1.1-0.6,0.8c-0.3-1.8-0.5-1.1-0.4,1.1c-0.1-0.7-0.2-1.3-0.4-1.9c0,0-1.2,0.3-0.8,0.5c-0.1-0.3-0.2-0.5-0.4-0.7   c-0.2,0.2-0.4,0.5-0.5,0.8c-0.1-0.3-0.3-0.6-0.5-0.9c-0.2,0.3-0.3,0.5-0.5,0.8c-0.1-0.3-0.2-0.5-0.4-0.7c-0.2,0-0.4,1.4-0.6,0.3   l-0.4,0c0,0.2-0.4,2.1-0.3,2.1c0,0-0.3-2.2-0.3-2l-0.2,1.9c-0.2-0.3-0.3-1.7-0.2-2.1c0,0.4-0.4,1.7-0.3,2c0.1-0.7,0-1.3-0.3-1.9   c-0.5,0-0.8,0.9-0.9,0.1c0,0.5-0.2,1-0.3,1.6c0.2-2.3-0.5-1-1-1.1c-0.1-0.3-0.3-0.5-0.4-0.8c-0.2,0.2-0.4,0.4-0.6,0.7   c-0.1-0.3-0.2-0.5-0.4-0.8c-0.3,0.2-0.5,0.4-0.7,0.7c-0.1-0.3-0.2-0.5-0.3-0.8l-0.5,0.7c-0.5-0.2,0-0.5-0.6-0.6l-0.2,0.1   L211.1,439.7L211.1,439.7z M211.2,446c-0.1,0.7,1.8,0.4,2.4-1.8c-0.2,0.9-0.2,1.7-0.2,2.6c0.2-0.6,0.4-1.1,0.6-1.7   c0,0.6-0.1,1.2,0,1.8c0.3-0.7,0.6-1.5,0.7-2.3c-0.1,0.7-0.3,1.6-0.1,2.3c0,0,1.2-0.2,0.9-0.4c0.1,0.3,0.2,0.5,0.4,0.8   c0.2-0.2,0.5-0.4,0.6-0.6c1-0.1,0.8,1.9,1.4-1.7c-0.1,3.3,0,3.4,0.6,0.1c-0.2,3.5,0.2,3,0.6,0c-0.1,0.7-0.1,1.4,0.1,2.2   c0.7,0.1,0.5,1.4,1-0.7c0.2,0.3,0.3,0.6,0.3,1.1c0.3-0.6,0.5-1.2,0.5-1.9c-0.1,0.7-0.1,1.3,0.1,1.9c1.3,0.2,0.2-1.1,0.8-1.5   c0.2,0.5,0.3,1,0.3,1.5c0,0,0.6-2.1,0.5-2.2c0.2,0-0.2,2,0.2,2l0.3-2c0.4,3.3,1.1,0.7,1.4,1.9c-0.1-0.3,0.3-1.2,0.3-1.6   c0.1,1.3,0,1.3,0.9,1.5c0-0.1,0.2-1.1,0.2-1.1c0.2,0.4,0.4,0.8,0.7,1.2c0.5-0.1,0.7-1.9,0.5-2.2c0.1,0.2,0.5,2,0.5,2   c0-0.5,0.1-0.9,0.2-1.4c0.4,2.1,0.4,1.8,0.5-0.5c0,0.6,0.1,1.2,0.4,1.8l0.3-1.6c0,0,0.5,1.5,0.5,1.5c0,0,0.2-1.4,0.2-1.4   c0,0.5,0.2,1,0.5,1.4c0.9-0.6,0.6-1,0.6-2.5c0.5,3.3,0.7,3.3,0.6,0.1c0.5,3.1,0.6,3,0.6,0c0,0.7,0.2,1.5,0.4,2.1   c0.3-0.1,0.7,1,0.7-0.9c0.4,1.7,0.5,1.1,0.3-1.1c0.5,2.6,0.4,1.4,1.3,1.4c0.2,0.3,0.4,0.5,0.6,0.7c0.2-0.3,0.3-0.6,0.5-0.9l0.8,0.8   c0.1-0.3,0.3-0.6,0.4-0.8c0.2,0.3,0.4,0.5,0.6,0.7c0.2-0.3,0.3-0.5,0.5-0.8c0.2,0.3,0.5,0.5,0.8,0.6c0.5-0.4,0.5-2.1,0.2-2.4   c0.2,0.6,0.5,1.3,0.7,1.9c0,0,0.2-1.8-0.1-2c0.4,0.3,0.2,1.8,0.8,1.9c-0.1,0,0-1.8-0.1-1.9c0.9,2.2,1.6,1.1,1.8,1.5   c-0.1-0.5-0.2-1.1-0.2-1.6c0.5,0.1,0.2,1.8,0.9,1.6c0.2-0.1,0.7-0.8,0.6-0.8c0.2,0.3,0.4,0.5,0.7,0.7c0.2-0.3,0.3-0.6,0.3-0.9   c0.3,0.2,0.5,0.4,0.8,0.5c0.1-0.3,0.2-0.6,0.3-0.9c0.2,0.2,0.4,0.5,0.7,0.7c0.1-0.3,0.2-0.6,0.3-1c0.7-0.1,0.4,0.7,1.1,0.2l0-0.1   l-2.8-7.6c-0.9-0.2,0,0.4-0.5,0.6c-1.1,0.3-1.2-1-0.4,2.2c-0.3-0.8-0.7-1.6-1.1-2.3c0.1,0.6,0.2,1.1,0.3,1.7   c-0.3-0.5-0.5-1-0.8-1.5c0.1,0.8,0.2,1.6,0.4,2.4c-0.2-0.8-0.5-1.4-1-2.1c0.1-0.1-0.9,0.7-0.6,0.6c-0.2-0.2-0.5-0.4-0.7-0.6   c-0.3,0.2,0.2,1.7-0.5,0.6l-0.4-0.1c0,0-0.2,0.4,0.3,2.4c-1.1-3.1-1.1-3.1-0.6,0c-1-3.2-1.1-2.8-0.6,0.2c-0.2-0.8-0.3-1.4-0.6-2.2   c-0.7-0.1-0.7-0.9-0.6,0.9c-0.4,0-0.5-0.3-0.5-0.9c-0.1,0.6-0.1,1.3,0.1,2l-0.6-1.8c-1,0.7-0.4,0.2-0.6,1.6c0-0.5-0.2-1-0.4-1.4   c0.1,0.3-0.3,1.7,0,2.1c-0.4-0.6-0.2-1.5-0.6-2.1c0.2,0.3,0,1.5,0.1,1.9c-0.7-2.2-1.3-1.3-1.5-1.7l-0.1,1.4l-0.5-1.5   c-0.2,0.1-0.3,0.1-0.4,0.1c-0.1,0.2-0.1,0.6-0.2,0.9c-0.4-0.2-0.6-0.5-0.7-1c-0.4,0.1-0.3,1.5-0.3,1.8c0.2-0.8,0.1-1.3-0.5-1.5   c0,0.5-0.1,1.1-0.1,1.6c-0.4-1.2-0.4-2.7-0.4,0.3c0-0.6-0.2-1.2-0.4-1.8l-0.1,1.6c-0.1-0.5-0.2-1-0.3-1.5c0,0.2-0.3,1.4-0.2,1.4   l-0.3-1.4c-0.7,0.4-0.5,1.3-0.6,2.4c-0.3-3.3-0.5-3.3-0.6-0.1c-0.3-3.1-0.5-3.1-0.6,0c0-0.7,0-1.5-0.2-2.1c-0.3,0-0.5-1.1-0.7,0.8   c-0.1-1.8-0.4-1.1-0.5,1.1c0-0.7-0.1-1.3-0.2-1.9c0,0-1.2,0.2-0.9,0.4c-0.1-0.3-0.2-0.5-0.4-0.8c-0.3,0.2-0.5,0.5-0.6,0.8   c-0.1-0.3-0.3-0.7-0.5-1c-0.2,0.2-0.4,0.5-0.6,0.7c-0.1-0.3-0.2-0.5-0.4-0.8c-0.2,0-0.6,1.4-0.6,0.2l-0.4-0.1c0,0.2-0.6,2-0.5,2.1   c0,0-0.1-2.2-0.2-2l-0.4,1.9c-0.2-0.3-0.1-1.7-0.1-2.1c-0.1,0.4-0.6,1.6-0.5,2c0.1-0.7,0.1-1.3-0.1-1.9c-0.5-0.1-0.9,0.9-0.9,0   c-0.1,0.5-0.3,1-0.4,1.5c0.4-2.3-0.4-1-0.9-1.2c-0.1-0.3-0.2-0.6-0.4-0.8c-0.2,0.2-0.4,0.4-0.6,0.7c-0.1-0.3-0.2-0.6-0.3-0.8   c-0.3,0.2-0.5,0.4-0.7,0.6c0-0.3-0.1-0.5-0.2-0.8l-0.6,0.7c-0.5-0.2,0-0.5-0.5-0.6l-0.2,0.1L211.2,446L211.2,446z M205.8,423.1   c0.7-0.1-0.9-1.3-1.9-1.3c0.7,0,1.3-0.2,1.9-0.4c-0.5-0.1-0.9-0.1-1.4-0.1c0.4,0,0.8-0.2,1.2-0.3l-1.7-0.1c0.5,0,1.2-0.1,1.7-0.3   c0,0-0.4-0.9-0.5-0.6c0.2-0.1,0.4-0.2,0.6-0.4c-0.2-0.2-0.4-0.3-0.7-0.4c-0.1-0.8,2.2-0.5-1.3-0.9c2.5,0,2.5-0.1,0.1-0.4   c2.7,0.1,2.3-0.1,0-0.4l1.7,0.1c0.1-0.2,0.9-0.3-0.5-0.7c0.9,0,1.7,0-0.6-0.5c0.4,0.1,1,0.1,1.5,0l0.1-0.4   c-0.4-0.1-0.8-0.3-1.2-0.4c0.4,0.1,0.9,0.1,1.3,0c-0.5-0.2-1-0.3-1.6-0.6c0.3-0.2,1.3,0.2,1.7,0.1c-0.4,0-1-0.6-1.4-0.5   c0.3,0,1.4,0.3,1.7-0.1c0.2-0.3-0.6-1-1.1-1.1c1,0.2,0.9,0.3,1.3-0.2c0.2-1.4-0.2,1.1,0.3-0.5c0.2-0.7-1.4-0.6-1.4-0.9   c0.5,0.1,1.1,0.2,1.6,0.3l-1.2-0.6c0.4,0,0.8,0.1,1.2,0.3c-0.2-0.5-0.6-0.7-1.2-0.8c0.5,0.2,0.9,0.3,1.4,0.3   c-0.3-0.2-0.7-0.4-1-0.6c0.4,0.1,0.8,0.2,1.2,0.2c0-0.1-0.9-0.6-0.9-0.6c2.8,1.1-0.2-0.9-0.4-1.1c2.4,0.9,2.4,0.9,0.3-0.4   c2.3,0.9,2.3,0.8,0.2-0.5c0.5,0.3,1,0.5,1.5,0.6c0.1-0.2,0.9,0-0.2-0.9c1.3,0.6,0.9,0.3-0.5-0.7c0.5,0.3,0.9,0.5,1.4,0.5   c0.4-0.5,0.9-0.8,1.1-1.1c-0.1-0.3-0.2-0.5-0.3-0.8l0.7,0c0.1-0.1,0.7-2.3-0.8-2.2c0.4,0.4,0.8,0.7,1.3,0.9c0.2-0.4,0-0.7-0.8-1   l0.1,0l1,0.6c0.1-0.1-0.9-1-1-1.1c1.7,1.4,1.2-0.1,1.8,0.2c-0.3-0.3-0.5-0.7-0.8-1c0.4,0,0.8,1.1,1.3,0.7c0-0.2-0.1-0.4-0.1-0.6   c-0.2,0.2,1.6-1.2,1.1-1c0.2,0.1,0.4,0.3,0.7,0.4c0.2-0.1,0.4-0.6,0.6-0.8l0-0.1l-3.6-5.1c-0.7,0.1-0.1,0.4-0.4,0.8   c-0.5,0.6-1.8-1.1,0.2,1.7l-1.3-1.3c0.1,0.4,0.3,0.7,0.5,1c-0.4-0.3-0.7-0.6-1.1-0.9c0.3,0.6,0.6,1.1,1,1.6   c-2.2-2.1-1.8,0.7-2.6,0.2l-0.4,0.3c0,0,0,0.4,1.1,1.6c-2-1.6-2.1-1.4-0.3,0.4c-2.1-1.6-2-1.2-0.3,0.5c-0.5-0.4-0.9-0.7-1.4-1   c-0.5,0.3-0.9,0,0,1c-0.3,0-0.5,0-0.7-0.2l1,1.1c-0.4-0.3-0.8-0.5-1.3-0.7c0,0.4,0.4,0.9,0.5,1.3c-0.4-0.2-0.7-0.3-1.1-0.5   c0.4,0.4,0.8,0.8,1.2,1.2c-0.5-0.2-1-0.8-1.6-0.7c0.2,0,0.9,0.9,1.1,1c-1.7-1-2.3,0.6-1,1.1c-0.4-0.2-0.7-0.3-1.1-0.3l-0.2,0.5   c0.2,0.2,0.4,0.4,0.6,0.6c-0.3-0.2-0.7-0.2-1-0.1c-0.3,0.6,1.2,0.8,1.2,1.2c-0.5-0.2-1-0.4-1.5-0.5c0.3,0.3,0.6,0.6,1,0.7   c-0.4,0-0.9-0.1-1.3-0.3l1.2,0.8c-0.4-0.2-0.9-0.3-1.4-0.3l0.9,0.7c-0.4-0.1-0.8-0.2-1.2-0.2c0,0,0.9,0.7,0.9,0.7   c-0.4-0.1-0.7-0.2-1.1-0.1l-0.1,0.3c-0.1,0.1,0.1,0.3,1.6,1c-2.5-0.8-2.6-0.6-0.3,0.5c-2.4-0.7-2.4-0.5-0.2,0.5   c-0.6-0.2-1-0.4-1.6-0.3c-0.5,1.3,1,0.3-0.5,0.9c0.4,0.4,0.8,0.6,1.4,0.7c-1.8-0.3-1.9,0.7-2.2,1.9c0.1-0.3,0.1,4.1,1.5,2.5   c-0.5,0.1-1.1,0.1-1.6,0.1c0.5,0.2,1.1,0.3,1.6,0.4c-0.6,0.1-1.1,0.1-1.7,0.2c0.1-0.1,1.3,0.4,1.5,0.4c-2.2,0.2-0.9,0.8-1.6,1   c0.4,0.1,0.8,0.1,1.2,0.2c-2.4,0.2-0.9,3.6-0.8,4.7C201.7,423.5,203.8,423.3,205.8,423.1L205.8,423.1z"
   style="fill:#382D15;"
   id="path36" />
	<path
   d="M196.7,430.9c-0.1-1.4-0.4-2.6-0.9-3.8c1-3.8,0-12.3-2.4-15.4c-0.2-0.3-0.5-0.6-0.8-0.8   c-0.2-0.1-0.3-0.2-0.4-0.3c-0.6-0.3-1.2-0.5-1.9-0.5c-0.6,0.1-1.3-0.1-1.7-0.5c-2.1-1.2-4.4-1.5-6.7-0.7c-0.5,0.3-1.1,0.3-1.5-0.1   c-1.1-0.6-2.2-0.9-3.4-1c-2-0.3-3.8,0.6-4.4,0.3c-7.2-3.7-16.2-0.4-23.1-3.2c-5.1-2.4-11.6-0.4-16.3-2.5c-2.2-0.6-3.8-2.6-6.8-2.3   c-0.9-0.1-1.7-0.2-2.6-0.1c-0.4,0.1-0.9-0.1-1-0.6c-0.4-0.9-0.8-1.9-1.1-2.9c-0.3-0.7-0.6-1.4-0.9-2.1c0,0-2.2-5.4-2.6-5.5l-1-0.5   c0.6-0.4,1.1-0.9,1.6-1.3c0.4-0.5,0.9-1,1.1-1.5c-0.1-1.2-0.3-2.4-0.5-3.6c1.3-5.5,14.7-16,10.8-22.2c5.3-1.1,7-3.4,5.8-7.5   c5.1-1.3,6.5-3.3,5.5-7.8c5-0.7,10.1-8.6,10.1-13.4c0.8-1.7,1.9-3.2,3.4-4.4c0.2-1.3,0-2.6-0.8-3.6c4-1.7,6.3-7.7,6.5-11.7   c0-1.2,0.2-2.4,0.6-3.6c1.3-5.5,2-9.7,1.9-15.3c0.1-1.2,0.3-2.4,0.4-3.7c1-4.6-1.3-7.1-2-11.3c-0.5-0.8-0.7-2-0.8-3.2   c-0.4-4.2-3.1-7.1-5.5-10.2c-2-3.7-4.1-6.4-7.2-9.3c-2.5-2.5-12.6-6.3-15.7-4.2c-1.7,1.4-3.8,0.2-5.9,0.9c-2.5,0.8-4,2.4-4.3,5   c-0.1,1,0.1,1.8-0.4,2c-7.4,4.5-6.2,12.2-11.7,17.8l-0.1,0.2c-0.8,1.4,0.9,2.8,0.3,3.7c-0.4,0.5-1.1,1-1.7,1.3   c-0.3,0.2-0.7,0.4-1.1,0.6c-0.4,0.3-0.7,0.6-0.9,1c-12,21.2-24,42.2-36.3,63.2c-0.1,0.3-0.1,0.4-0.2,0.7   c-4.8,5.1-9.2,15.2-11.7,21.8c-1.1,2.2-1.3,4.3,0.5,5.8c-2.1,1-7.3,10.6-6.8,13.4c0.3,1.1,0.8,2,1.5,2.9l-0.8,0   c0.1,0.4,0.1,1,0,1.8c-1,0.9-1.6,2-1.6,3.2l0,3.3c0.2,2.9,0.9,5.6,1.9,8.3c0.3,1.1,0.9,3.4,1,4.5l5.1,6.9c0.6,1.4,1.3,2.7,1.9,4   c1.4,2.5,3.5,4.8,4.8,7.4c0.2,0.3,0.4,0.7,0.6,0.9c2.9,3.8,5.7,7.4,8.8,11l1-1.4l-1,1.4c3.5,3.9,8.9,9.2,13.8,11.5l1.5,1l1.6,0.9   c3.2,1.5,10.7,5.3,13.8,3.8c2,1.5,4.5,2.2,6.4,1.6c3.7-1.4,6.8,0.9,10.9-1c6.8,3.4,40.4-1.3,46-7c2.9,0.8,6,0.1,8.4-2   c0.7,0.3,1.4,0.5,2.1,0.5c0.8,0.1,1.6,0.1,2.3,0c0.8-0.1,1.6-0.3,2.3-0.7c0.7-0.3,1.2-0.8,1.7-1.4c7,2.2,10.5-8,10.3-12.9   c-0.1-0.5,0-0.9,0.1-1.4C196.7,433.9,196.8,432.4,196.7,430.9L196.7,430.9z"
   style="fill:#FFFFFF;"
   id="path38" />
	<path
   d="M124,458.6c-0.2-0.1-4.4-0.7-4.8-0.1l-0.3,6c0,0,0.1,0.1,0.3,0.1c3.4,0.2,14.6,2,16.2-2.1   c2.5,3.1,2.6,0.3,5,0.1c2.6-0.3,2.7,2.1,4.9-1.2c2.4,2.8,10.5-0.1,13.5-0.8c3-0.7,12-1.5,12.7-5.1c2.4,1.9,3.9,1.4,4.7-1.3   c2.2,2,4.2,1.1,4.7-1.4c0.1,0.5,0.8,0.9,2,1.1c2.3-0.6,5.1-0.5,6.8-2.4c0.7-0.3,1.5-0.4,2.3-0.4c1.4-0.5,2-1.8,1.9-3.3   c0.2,0.4,1.3,0.1,2.7-1.5c0.7-1.3,1.3-3.1,1.5-4.6c0.1-1.1-0.7-2.4-0.6-3.2c0.2-1,1.2-1.8,1.4-3c0.1-0.5-1.3-1.2-1.3-1.8   c0-0.6,1.6-1.3,1.7-2.2c0.1-0.7-1.1-1.4-1-1.9c0.4-2.5,1.5-4.3,1.2-7.4c-1.1-9.2-8.4-17.1-18.6-16.4c-0.4,0.2-0.7,0.4-0.8,0.6   c-0.4,0.4-0.5,0.4-0.8-0.1c-1.8-3-2.2-0.1-4.1-0.7c-2.3-0.7-1.8-2.7-4.6-0.6c0.2-0.4-0.4-1-1.9-1.7c-0.8,0.1-1.7,0.4-2.4,0.7   c-0.7-0.5-1.4-1-2.1-1.6c-1-0.2-1.6,0.9-2.6,0.6c-2.5-0.7-6.7-4.3-9.1-0.8c-1.2-2.7-2.7-3-4.8-1c-1.4-2.6-2.5-2.8-4.9-0.8   c0.2-0.5-0.3-1.1-1.4-1.9c-2.4-0.4-9.8-2.4-11.6-0.7c-1-2.9-4.7-3.3-6.2-6c-1.8-3.3-1-5.1,0.2-8.1c1.8-3.7,3.6-7.4,5.5-11   c0.6-1.1,5.1-8.7,3.9-8.7c3-0.5,1.1-2.1,1.9-3.5c0.5-0.8,1.6-1.3,2.4-2.3c0.4-0.5-0.5-1.4-0.1-2c0.5-0.7,1.5-0.7,2-1.5   c1.5-2.2,2.5-6.2,4.6-7.8c-0.2-0.5-0.2-1.3,0-2.4l2.8-2.5c1.2-1.6,1.4-3.4,2.3-5c1.5-2.8,3.2-5.6,4.8-8.3   c3.8-6.6,7.8-13.1,11.4-19.9l0.1-0.4l-5.2-2.9l-0.1,0.1c-1.7,2.8-8.3,11.5-6.2,14.6c-3.6,0.2-2,1.9-3,3.9c-1.1,2.3-3.2,0.7-1.9,4.6   c-3.5,0.1-6.6,8-8,10.7c-1.5,2.7-6.7,10-4.9,12.7c-3,0.3-3.7,1.7-2.4,4.2c-2.9,0.1-3.7,2.2-2.4,4.3c-0.5-0.3-1.2-0.1-2.2,0.6   c-1.5,2.6-5.5,7.9-4.5,10.7c-0.4-0.3-1.1,0-2.3,1.2c-1.3,2.3-2,5-2.9,6.9c-0.4,0.8-1.5,1.7-2,2.8c-0.2,0.4,0.9,1.4,0.7,1.9   c-0.2,0.9-1.6,1.2-1.9,2.6c-0.1,0.7,0.8,1.1,0.9,1.7c0.1,1.8,0.1,4.6,1.2,6.5c2.2,3.9,7,5.9,10.6,6.9c2.3,0.6,4.8,0.4,7,0.8   c2.9,0.5,4.9,1.9,8.1,1.7c0.4-0.2,0.7-0.4,0.8-0.6c-0.7,0.8,4.6,1,4.6,1c2,0.5,2.5,2.3,5,0.4c-0.2,0.4,0.4,1,1.9,1.7   c0.8-0.1,1.7-0.4,2.4-0.7c0.7,0.5,1.4,1,2.1,1.6c1,0.2,1.6-0.9,2.6-0.6c2.5,0.7,6.7,4.3,9.1,0.8c1.2,2.7,2.7,3,4.8,1   c1.4,2.6,2.5,2.8,4.9,0.8c-0.2,0.5,0.3,1.1,1.4,1.9c1.5,0.3,4.3,0.7,5.7,1.3c1.8,0.8,0.3,2.2,3.2,2.2c-0.5,1.1-0.6,1.7-0.3,2.8   c1.4,6.8,1.7,14.7,0.1,21.6c-0.6,2.6-2.1,5-4.2,6.2c-0.7,0.4-7,2.3-6.4,2.9c-2.7-2-2.5,1-4.2,1.6c-0.3,0.1-1.2-1-1.6-0.9   c-0.2,0.1-2.2,1.1-2.1,1.1c-2.3,0.3-9.1,2.8-11.8,2.3c-0.3,0.5-0.8,1-1.7,1.7c-0.6,0.1-2.2-0.6-3-0.6c-1.4,0-2.7,0.7-4,1   c-2.7,0.6-5.6,1-8.4,1.5C139,457.9,130.1,459.9,124,458.6L124,458.6z"
   style="fill:#4F73B8;"
   id="path40" />
	<path
   d="M208.4,140.2c-0.2-2.1-1-4.9-2.3-6.6c0.3-6.1-7-14.6-12.9-15.9c-5.1-7.2-20.2-7.8-27.5-5.3   c-7.4,2.5-21.1,14.7-12.8,23.2c0.3,3.5,1.8,6.5,3.8,9.4c-0.6,3.1-1.8,6.2-2,9.3c-4.4,2.6-9.6,10.7-15.1,11.1c-3.5,1.3-4.7,2-7,4.4   c-3.3,1-5.6,3.7-7.7,6.4c-1.9,2.5-3,7.6-5,9.5c-5.5,7.1-3.7,17.8-7.1,26c-2.4,5.8-7.1,11.1-12.6,14C90,231,75.4,234,68.9,244.2   c-0.2,0.5-0.6,1-1.2,1.1c-4.3,2.1-10.6,9.9-11.6,14.6c-2.5,2.3-3.3,5.2-3.9,8.4c-2.4,5.9-7,23.5-0.6,29.1c-0.3,3.6,1.1,7.2,3.8,9.7   c0.5,3.7,2.8,6.7,6,8.6c1.7,6.8,17.1,14.8,23.9,13.7c4.1,2.8,11.8,2.3,16.6,1.8c9.5-0.9,18.1-3.7,26.4-8.6   c9.2-5.5,16.2-14.1,22.1-22.8c2.2-3.3,4.7-6.5,6.6-10c1.4-2.6,2.7-4.8,4.3-7.2c1.2-1.7,2-6.4,3.5-7.5c3-3.4,3.6-10.4,4.2-14.8   c0.8-5.8-0.2-11.7,0.4-17.6c-0.4-6.9-0.6-13.9-1.6-20.8c-0.8-5.7-3-14.3-1.3-20c2.5-8,10-12.1,16.6-16.1c8-4.8,13.5-12,19.5-18.9   C207.7,159.2,209.4,149.3,208.4,140.2L208.4,140.2z"
   style="fill:#393e46;fill-opacity:1"
   id="path42" />
	<path
   d="M428.8,116.1c0.3-0.4,0.3-0.6,0-1c-0.1-0.1-0.1-0.1,0-0.2c0.3-0.5,0.2-0.7-0.2-1.1c0,0,0.1,0,0.1-0.1   c0-0.1,0-0.3,0-0.5c0-0.3-0.3-0.4-0.3-0.5l0.1-0.7c-0.1-0.3-0.4-0.3-0.4-0.6c0.1-0.3,0.1-0.5,0-0.8l-0.3-0.8   c-0.1-0.3-0.3-0.6-0.6-0.6c0.3-0.7,0.1-1.1-0.5-1.2c0.2-0.7,0.1-1-0.5-1.1c0.1,0,0.1-0.2,0.1-0.6c-0.3-0.5-0.4-1.2-0.9-1.5   l-0.1-0.1c0-0.5-0.2-0.8-0.6-0.7c0.1-0.3,0.1-0.5-0.1-0.7c-0.1-0.2-0.4-0.7-0.7-1c-0.3-0.2-0.4-0.5-0.5-0.8   c-0.1-0.3-0.4-0.7-0.7-0.9c-0.3-0.2-0.4-0.4-0.6-0.8c-0.2-0.3-0.4-0.7-0.7-0.9c-0.3-0.2-0.5-0.4-0.6-0.8l0-0.1l0-0.1l-0.1-0.2   l-0.3-0.4c-0.2-0.2-0.4-0.4-0.6-0.6l-0.1,0.2c-0.1,0.3-0.3,0.6-0.4,0.8l-0.1,0.2l-0.1,0.2l-0.2,0.2c-0.2,0.2-0.3,0.6-0.5,0.9   c-0.2,0.3-0.1,0.4,0,0.6c0.1,0.2,0,0.2-0.1,0.2c-0.4,0-0.6,0.3-0.4,0.9c0,0.2,0,0.2-0.1,0.2c-0.2,0-0.3,0.1-0.4,0.3l0,0.7   c-0.2,0.1-0.4,0.1-0.5,0.4c-0.1,0.3-0.3,0.6-0.4,1c-0.1,0.4-0.1,0.7-0.4,0.9c0,0.1,0,0.4,0,0.6c-0.1,0.1-0.3,0.1-0.4,0.4   c-0.1,0.2-0.3,0.8-0.4,1.2c0,0.4-0.1,0.6-0.3,0.9c-0.1,0.1-0.1,0.3-0.2,0.6c-0.1,0.2-0.1,0.4-0.1,0.7c0,0.2,0,0.4-0.1,0.5   c0,0.2-0.1,0.3-0.1,0.5c-0.1,0.3-0.2,0.8-0.2,1.2c0,0.4,0,0.7-0.1,1.1c-0.1,0.4-0.1,0.8-0.1,1.2c0,0.2,0,0.4,0,0.6l0,0.3l0,0.3   c-0.1,0.4,0,0.8,0.1,1.2l0,0.1l0,0.1c0,0.4,0,0.9,0.2,1.3c0.1,0.4,0.2,0.7,0.2,1.1c0,0.2,0,0.4,0.1,0.5l0.1,0.5   c0.1,0.4,0.2,0.6,0.5,0.7c-0.2,0.4-0.2,0.9,0,1c0.3,0.2,0.3,0.3,0.2,0.6c0,0.2,0,0.3,0.1,0.5s0.3,0.2,0.5,0.3   c-0.1,0.2-0.1,0.5,0,0.8c0.1,0.3,0.4,0.8,0.6,1.1c0.3,0.3,0.4,0.5,0.5,0.8l0.1,0.1l0.1,0.1l0.2,0.3l0.2,0.2l0.1,0.1l0.1,0.1   c0.2,0.1,0.3,0.2,0.4,0.3l0.3,0.4c0.1,0.1,0.2,0.2,0.4,0.3l0.2,0.1l0.2,0.1c0.3,0.2,0.5,0.3,0.8-0.1c0.1,0.4,0.3,0.6,0.4,0.7   c0.2,0.1,0.4-0.1,0.5-0.3c0.1,0.2,0.1,0.3,0.2,0.4c0.1,0.1,0.2,0.1,0.3,0.1c0.2,0,0.4-0.1,0.5-0.4c0,0.1,0.1,0.3,0.4,0.4l0.4,0   l0.4,0c0.1,0,0.2,0,0.4-0.1c0.1-0.1,0.2-0.2,0.3-0.3l0.1,0c0.2,0.1,0.3,0.1,0.5,0c0.1-0.1,0.2-0.2,0.2-0.5c0,0.1,0.1,0.1,0.1,0.1   c0.1,0,0.2,0,0.4,0l0.5-0.3l0.4-0.4l0.1-0.2l0-0.2c0-0.2,0-0.2,0.1-0.2c0.2,0,0.3-0.1,0.4-0.2c0.1-0.1,0.1-0.3,0.1-0.6   c0-0.2,0-0.2,0.1-0.2c0.1,0,0.2,0,0.3,0l0.2-0.2c0.1-0.2,0-0.7,0.1-0.8c0.2-0.1,0.4-0.2,0.5-0.5c0.1-0.3,0.3-0.7,0.3-1.1   c0-0.4,0.1-0.7,0.3-1c0.1-0.1,0-0.3,0-0.4c0-0.1-0.1-0.2-0.1-0.3c0.1-0.2,0.3-0.3,0.3-0.6l0-0.3l0-0.3l0.1-0.6c0-0.1,0-0.3-0.1-0.4   c-0.1-0.1,0-0.2,0-0.4c0.1-0.3,0.2-0.6,0.2-1c0-0.3-0.1-0.7-0.1-1c0-0.1-0.1-0.2-0.1-0.2C428.7,116.3,428.7,116.2,428.8,116.1   L428.8,116.1z"
   style="fill:#4F73B8;"
   id="path44" />
	<path
   d="M421.7,117.5c0-0.2,0-0.5-0.1-0.7c-0.1-0.5-0.2-1-0.4-1.4l-0.2-0.5l-0.1-0.3l-0.1-0.3   c-0.2-0.5-0.4-0.9-0.7-1.2c-0.2-0.3-0.5-0.6-0.7-0.8c-0.3-0.2-0.6-0.4-0.9-0.5c-0.4-0.1-0.7,0-0.9,0.1c-0.5,0-0.8,0.4-1,0.9   c-0.2,0.2-0.3,0.4-0.4,0.7c-0.1,0.3-0.1,0.5-0.1,0.7c0,0.1-0.1,0.3-0.1,0.5l0,0.6l0,0.3l0,0.3c0,0.4,0,0.7,0.1,1.1l0,0.2   c0,0.4,0.1,0.6,0.2,0.9l0,0l0.2,0.6l0.2,0.6c0.2,0.4,0.4,0.8,0.6,1.2c0.2,0.4,0.5,0.7,0.7,1l0.1,0.1l0.1,0.1   c0.3,0.3,0.7,0.6,1.1,0.7c0.4,0.1,0.7,0.1,1.1,0c0.3-0.1,0.6-0.4,0.8-0.8c0.2-0.3,0.3-0.7,0.3-0.9c0.2-0.3,0.3-0.8,0.3-1.1l0-0.4   l0-0.4C421.9,118.3,421.8,117.9,421.7,117.5L421.7,117.5z"
   style="fill:#FFFFFF;"
   id="path46" />
</g>
<g
   id="g104">
	<path
   d="M752,427.8c1.8-6,1.3-11.4-0.8-15.9c4-10-0.5-23.6-2.5-33.6c-2.4-11.8-4.2-23.3-7.8-34.9   c-6.2-20.1-18.5-41.1-37.2-51.9c-9.7-5.5-20.1-10.6-31.5-10.4c-2.7,0.1-4.1,1.1-6.5,1.5c-2.4,0.4-4.3-0.4-6.7-0.5   c-5.7-0.3-8.1,2.6-12.9,4.1c-5.1,1.6-8.9,0.7-13.8,4c-4.4,3-8.7,3.5-13.5,5.8c-10.2,4.9-18.2,12.9-27.8,18.6   c-0.9,1.3-2.7,3.3-5.4,6.1c-5.3,4.1-11,7.5-16.3,11.8c-5,4.1-10,8.1-15.5,11.6c-11.6,7.2-22.4,15.5-33.5,23.4   c-11.6,8.3-22.1,16.6-34.7,23.4c-5.8,3.1-11.4,5.4-17.9,6.8c-3.8,0.8-7.6,1.4-11.4,2c-2,0.3-6.7,0-8.4,1.3l0.6,3.4l-0.2,0l-0.4-3.5   c-11.4,0.1-22.7,2.1-34.1,3c-7.9,0.6-21.2,1-26.9,7.6c-8.5-0.8-11.8,4.1-17.9,8.2c-6.3,4.2-10.8,6-13.6,13.8   c-15.1,7.9-15.2,35.1-12.9,49.3c1.5,9.2,5.5,18.3,8.9,26.9c2.7,6.9,7.6,18.7,14.9,21.6c1.9,7.2,6.7,12.3,13.1,13.9   c2.6,5.9,10,10.8,16.5,10.2c-0.7,1.1,4.9,3.8,5.5,4.2c7.6,2.6,15.4,4.8,23.6,5c7.4,0.1,14.2,2.4,21.5,0.3c0,0.1,18.3,2.6,20.3,2.6   c4.4,0.1,8.5-0.3,12.8-0.8c4-0.4,7.8,1.1,11.8,1c3.1-0.1,5.9-1.7,8.9-1.7c3.6,0,6.9,2,10.8,1.4c4-0.6,6.5-1.3,10.7-0.8   c4.9,0.7,9.7,0.8,14.6,0.7c8.7-0.2,17.8,0.3,26.5-0.5c8.1-0.7,16,0.1,24.3-0.4c8.5-0.6,16.8-2.2,25.3-2.9c4.7-0.4,22.8-2.2,25-7.2   c2.1-1.9,5.4-1,8-1.4c3.8-0.7,6.1-2.9,9.5-4.5c6.3-3,11.9-2.9,17.3-8.1c-0.1,0.3,4.1-0.8,4.5-0.9c3.2-1.2,5.6-2.9,8.3-4.9   c2.9-2.1,5.6-3.2,8.7-4.9c3.4-1.8,5.2-4.5,8-6.9c8.1-6.6,25.1-14.9,25.7-27.2c6.2-3.6,9.6-9,10.2-16.3c5.3-5,7.3-10.8,7.2-18.1   c1.1,1.3,5.2-12.4,5.1-12.2c0.8-3.7,1.6-7.5,2-11.2C752.2,435.9,750.9,431.3,752,427.8L752,427.8z M503.9,337.3   c-0.9-5.3-2.6-24.4-9.6-25.8c0.1-3-1.3-5-4-5.5c0-2.5-2.3-5-4.9-4.9c0.3-0.3-0.1-1.1-1.2-2.4c-3.5-2.7-10.8-7.4-15.4-5.8   c0.2-0.3-0.7-0.8-2.9-1.4c-9.9-1.1-20.2,1-29.7,2.7c-5.2,0.9-9.6,2.2-14.7,2.5c-6.4,0.3-13.1-0.2-19.4,0.7c-0.6,0.2-0.9,0.3-1,0.5   c-0.3,0.2-6.5,0.2-7.5,0.2c-2.5,0.1-3.5-0.9-5.8,0.9c0.3-0.6-9.6,1.9-10.4,2.2c-3.4,1.2-12.4,5.3-12,9.8c-2.8,0.7-4.3,2.6-4.2,5.5   c-2.6,1.3-3.5,3.4-3.2,6.2c-0.9,0.2-1.6,0.8-1.9,1.8c-1.3,3.6-4.7,12.3-2.6,16.1c-4.6,4.7-0.3,18.5,1.7,23.5   c3.6,8.8,10,14.4,18.7,18.1c6.6,2.8,13.1,4,19.7,4.1c2.7,0,5.9,0.9,8.8,1.1c4.2,0.3,8.5-1,12.7-0.6c0.9-0.5,1.8-0.9,2.8-1.2   c19.3-2.4,37-10.5,52.9-22.2c0.1-0.1,0.2-0.2,0.4-0.4l-1.1-1.7l0,0l0.1,0l1.2,1.7c0.7,0.3,8.1-4,9.3-4.2c3-0.6,8.7,0.8,10.8-2.2   c4.4,2.3,11.3-4.7,10.4-9C504.4,345.4,504.4,340,503.9,337.3L503.9,337.3z"
   style="fill:#184d47;fill-opacity:1"
   id="path50" />
	<path
   d="M435.1,306.5c-2.5-0.5-5-1.9-7.5-1.6c-0.1,0.1-0.2,0.1-0.2,0.2c-0.1,0.2-2.2-0.6-2.6-0.1   c0-0.1-0.2-0.3-0.6-0.4c-0.8,0-4.2,0-4.4,0.8c-0.5-0.6-1-0.5-1.3,0.2c-0.6-0.5-0.9-0.5-1.3,0.3c0-0.1-0.2-0.3-0.5-0.3   c-0.6,0.1-2.7,0.6-3,1.2c-0.8-0.6-2.6,0.6-3.3,0.9l0,0c1.2,2.9,2.6,5.8,4.3,8.5c0.9,1.4,2.7,3.5,2.9,5.5c0.1,0,0.3,0.2,0.5,0.3   c0.5,1.2,3.8,10.3,5,10.3l0.7-0.4l0,0l0.8,0.3l0,0c0.4-0.8,1.9-3.3,1.2-4.1c0.7-0.1,1.3-1.9,1-2.4c1.1-0.2,3.4-5.9,2.7-6.7   c0.8-0.2,0.9-0.6,0.5-1.2c0.8-0.1,0.9-0.7,0.5-1.2c0.1,0.1,0.3,0,0.6-0.2c0.3-0.6,1.2-2.4,0.9-3c0.1,0.1,0.3-0.1,0.6-0.4   C433.4,310.5,434,309,435.1,306.5C435,306.6,435.1,306.5,435.1,306.5z"
   style="fill:#FFFFFF;"
   id="path52" />
	<path
   d="M458.3,336.7c0-0.2-0.2-0.6-0.3-0.8c-0.2-0.2-0.3-3.5-0.4-4.2c-0.4-1.6-0.7-4.3-1.8-5.8   c-0.1-0.1-0.2-0.1-0.3-0.1c-0.3,0-0.7-2.6-1.4-2.8c0.2,0,0.2-0.3,0-0.8c-0.5-0.8-2.4-4.3-3.5-4.1c0.3-0.9,0-1.3-1-1.3   c0.2-0.9-0.1-1.2-1.1-1.2c0.1-0.1,0.1-0.3,0-0.7c-0.5-0.5-2.3-2.4-3.1-2.2c0.1-1.8-4.9-3.5-6.2-4.4c-1.4,2.4-2.3,5.6-3.1,8.1   c-0.4,1.4-1.5,5-2.8,6.3c0.1,0.2,0.1,0.4,0.1,0.8c-0.7,1.4-6.4,11.4-5.5,12.4l0.9,0.4l0,0v0l0,1l0,0c1,0.1,4.4,0.8,5.1-0.4   c0.4,0.7,2.6,0.7,3.2,0.2c0.5,1,8,1.3,8.6,0.3c0.5,0.8,1,0.8,1.6,0.1c0.5,0.8,1.2,0.7,1.6,0c0,0.2,0.2,0.4,0.5,0.5   c0.8,0,3.2,0.3,3.7-0.3c0,0.2,0.2,0.3,0.7,0.5c-1.2,0,2.5,0,2.4-0.2c0.2,0.4,1.7,0.5,1.8,0c0.1-0.1,0-0.3,0.2-0.3   C458.2,337.6,458.3,337.2,458.3,336.7L458.3,336.7z"
   style="fill:#EA472C;"
   id="path54" />
	<path
   d="M419.3,337.4c-0.1-0.2-0.3-0.4-0.5-0.5c-0.2-0.1-0.3-0.1-0.6-0.2c0.2-0.1,0.3-0.5,0.1-1.3   c-0.6-1.2-1.4-2-2.1-3.1c-0.3-0.4-1-1.2-1.3-1.7c0.2-0.4,0.2-0.9,0.1-1.4c-0.3-0.2-0.6-0.4-0.9-0.6c-0.3-0.7-0.4-1.8-0.7-2.7   c-0.3-0.9-1-1.8-1.5-2.7c-0.4-0.7-0.7-1.5-1.1-2.1c-1.1-2-1.9-4.5-3.4-6.2c-0.2-0.1-0.4-0.2-0.5-0.1c-0.6-0.1-1.1-3.9-2.3-4.2   c0.2,0,0.3-0.5,0.1-1.3c-0.2-0.5-3.1-4.6-2.9-4.8c-1.2,0.3-4.4,2.1-4,3.7c-1.4-0.5-2.1,0.1-2,1.5c-1.5-0.3-1.9,0.2-1.8,1.7   c-0.1-0.2-0.6-0.2-1.2,0.1c-0.9,1-3.6,3.8-3.2,5c-2.4,0-4.4,6.4-5,8.1c-1.1,3-2,6-2.4,9.2c-0.3,2.5,0.1,4.1,0.3,6.3   c0.1,1.1-0.3,2.2-0.2,3.3c0.2,1.3,0.9,3.4,0.7,4.6c0.2,0.1,0.5,0.4,0.8,0.9c0.7,3.5,1.5,6.8,3.6,10c0.7,1,5.7,9,7,8.6l1-1.1l0,0   l1.2,1l0.1,0c1.1-1.2,5-4.9,4.2-6.7c1.3,0.1,3.3-2.6,3.1-3.8c1.7,0.2,9-8.8,8.3-10.4c1.5,0.1,2-0.5,1.5-1.9c1.5,0.2,2-0.8,1.5-1.9   c0.2,0.2,0.6,0.1,1.1-0.1c0.8-0.9,1.4-1.4,1.9-2.5c0.2-0.8,0.7-1,1.3-1.5C419.8,338.2,419.6,337.8,419.3,337.4L419.3,337.4z"
   style="fill:#4F73B6;"
   id="path56" />
	<path
   d="M458.2,341.5c-1.2,0-2.1,0.4-3.1,0.5c-0.4,0-0.7-0.6-1.2-0.7c-0.4,0-0.9,0.6-1.2,0.6c-0.8,0-1.9-0.4-2.6-0.5   c-1.2-0.1-3.3,0.1-4.4-0.4c-0.2,0.2-0.5,0.3-0.9,0.5c-3-0.4-6.1-0.9-9.3-0.9c-1.1,0-9.3-1-9.7-0.3l0,1.4l0,0l-1.1-0.9l-0.1,0   c-1,1.1-4.6,4.5-3.8,6c-1.2-0.1-3,2.4-2.8,3.4c-1.5-0.2-8.2,7.9-7.5,9.4c-1.4-0.1-1.8,0.5-1.4,1.7c-1.3-0.2-1.8,0.7-1.4,1.7   c-0.2-0.2-0.5-0.1-1,0.1c-0.6,0.7-1.2,1.3-1.8,2c-1.1,0.7,2.6,3.1,3.7,2.7c-0.1,0.2,0,0.5,0.6,1c1.9,1,3.6,1.3,5.3,1.7   c1.8,0.4,3.2,1.6,5.5,1.7c3.1,0.1,7,1,10.3-0.3c0.2-0.1,0.3-0.3,0.3-0.4c-0.2,0.4,2.3-0.5,2.3-0.4c1.1-0.3,1.3,0.7,2-0.8   c0,0.2,0.4,0.3,1.2,0.3c1.2-0.4,6.6-2.6,6.3-4c1.2,0.5,1.9,0.1,1.9-1.2c1.3,0.3,1.7-0.1,1.7-1.4c0.1,0.2,0.5,0.2,1.1,0   c0.8-0.8,3.5-3.1,3.2-4.3c2.6,0.2,5.3-7.6,6-9.5c1-2.7,1.7-5.8,2-8.7C458.3,341.6,458.3,341.4,458.2,341.5z"
   style="fill:#382D16;"
   id="path58" />
	<path
   d="M485.4,321.3c-0.1-0.2-0.8-0.7-1-0.8c-0.4-0.2-1-0.1-1.1,0.4c-0.2-0.6-0.6-0.6-0.8,0c-0.6-0.5-0.7,0.6-0.7,1   c-0.1-0.1-0.2-0.1-0.3,0.1c-0.3,0.7-1,1.8-0.9,2.6c-0.5-0.1-2,3.7-2.3,4.4c-0.2,0.5-1.9,4.6-1.8,4.6c-0.5,0-0.2,0.6-0.4,0.9   c0,0.1-0.3,0.4-0.4,0.5l0,0.5c0,0.1-0.3,0.2-0.4,0.3c-0.3,0.5-0.3,1.3-0.8,1.7c0,0.1,0,0.3,0,0.6c-0.2,0.3-0.5,0.5-0.6,0.9   c-0.2,0.4-0.3,0.8-0.5,1.2c-0.4,0.8-0.8,1.6-1.1,2.4c-0.5,1.3-2.1,3.5-1.3,5l0.1,0.1l0.3-0.6l0,0c-0.1,0.2-0.2,0.4-0.3,0.6   c0,0.4,2.7,0.9,2.8-0.2c0.5,0.3,1.1-1.5,1-2c0.5,0.1,1.2-1.9,1.4-2.4c0.3-0.7,1.2-2.2,1-3c0.5,0,0.6-0.3,0.4-1   c0.4,0.1,0.6-0.4,0.4-1c0.1,0.1,0.2,0.1,0.3-0.1c0.3-0.7,1-1.7,0.9-2.6c0,0.1,0.2,0,0.4-0.2c0.2-0.5,0.4-1.1,0.5-1.6   c0-0.1,0.3-0.1,0.3-0.3c0.1-0.2,0-0.5,0-0.7c0-0.1,0.3,0,0.3-0.1c0-0.1,0.1-0.5,0.2-0.6c0.2-0.3,0.4-0.5,0.6-0.9   c0.2-0.4,0.5-1,0.6-1.4l0.1-0.6l0.3-0.3c0.2-0.5,0.4-1,0.6-1.5c0.3-0.6,0.6-0.9,0.8-1.6c0-0.1,0-0.2,0-0.3c0-0.1,0-0.2,0.1-0.2   c0.5-0.1,0.2-0.5,0.4-0.9c0.2-0.5,0.5-0.2,0.4-1c0,0.1,0.2,0,0.4-0.2C485.4,322.8,485.5,321.7,485.4,321.3L485.4,321.3z    M493.8,342.2c0-0.1-0.1-4.6-1-4.4c0.6-0.7,0-0.5-0.2-0.8c-0.2-0.3,0.3-0.7-0.5-0.5c0.5-1.1-2.8-2.8-3.2-1.7   c-0.2-0.7-0.4-0.7-0.6-0.1c-0.2-0.7-0.5-0.6-0.6,0c0-0.2-0.1-0.3-0.2-0.5c-0.5,0-0.6,0.1-1,0.3c-0.3,0.2-0.4-0.4-0.5,0.4   c0-0.1-0.2-0.2-0.4-0.3c-0.2,0.1-0.5,0.3-0.7,0.4c-0.1,0.1,0,0.3-0.1,0.4c-0.1,0.1-0.3-0.2-0.5-0.1c-0.1,0.1,0.1,0.5,0,0.6   c-0.1,0.1-0.3-0.2-0.5-0.1c-0.1,0.1,0.1,0.6,0,0.6c-0.6-0.1-0.8,0.4-0.9,1.1c0,0-0.1,0.6-0.1,0.5c0.1-0.3-0.3,1-0.2,0.3   c-0.1,0.3-0.2,0.7-0.2,1.1c0,0.3-0.2,0.9-0.1,1.4c0.1,0.1,0.1,0.1,0.2,0.1c0.2,0.1-0.2,0.2-0.3,0.3c-0.1,0.3,0.2,0.2,0.3,0.4   c0.1,0.4-0.8,0.2,0,0.7c-0.1,0-0.2,0.1-0.3,0.3c0.1,0.1,0.2,0.2,0.3,0.3c0,0.1-0.1,0.2-0.2,0.2c0-0.1,0.2,0.6,0.2,0.4   c0,0.5-0.5,1.5,0.4,1.5c-0.5,0.5-0.4,0.8,0.2,0.7c-0.4,0.5-0.3,0.8,0.3,0.7c-0.1,0.1-0.2,0.2-0.2,0.5c0.3,0.5,0.9,1.4,1.4,1   c-0.2,1,2.2,1.5,2.8,1.5c0.6,0,1.2-0.1,1.8-0.3c0.3,0,0.5,0.1,0.8-0.1c0.2-0.1,0.4-0.6,0.4-0.6c0.1,0,0.3,0.4,0.5,0.3   c0.2-0.1,0.1-0.6,0.1-0.6c0.2,0,0.3,0.3,0.5,0.2c0.1,0,0-0.6,0.1-0.6c0.9,0.3,0.7-0.8,1.3-1c0-0.1-0.1-0.3-0.1-0.5   c0.2-0.3,0.4-0.2,0.6-0.6c0.1-0.2,0.2-0.8,0.3-1.1c0.1-0.4,0.1-0.8,0.1-1.2C493.8,343.1,493.7,342.5,493.8,342.2L493.8,342.2z    M490.8,342.3c-0.1,0.1-0.2,0.2-0.3,0.2c0.2,0,0.2,0.1,0.2,0.2c-0.1,0-0.2,0.1-0.2,0.1c0.1,0.1,0.2,0.1,0.2,0.2   c0,0.1-0.4,0.1-0.3,0.2c0,0,0.1,0,0.1,0.1c0.1,0.2-0.1,0.7-0.1,0.8c-0.1,0.4-0.1,0.4-0.4,0.4c0.1,0,0,1.1-0.5,0.9   c0,0,0.1,0.4,0.1,0.4c-0.1,0.1-0.3-0.1-0.3-0.1c0,0,0.2,0.3,0,0.4c-0.1,0-0.3-0.1-0.3-0.1c-0.3,0.3,0.5,0.1-0.4,0.5   c-0.2-0.1-0.2-0.1-0.2-0.3c-0.1,0.7-0.3,0-0.4,0.2c-0.1,0.1-0.2,0.2-0.3,0.2l-0.3-0.1c-0.1-0.2-0.1-0.3,0-0.4   c-0.2,0.4-0.5,0.4-0.3-0.2c-0.3,0.4-0.5,0.2-0.3-0.3c-0.5,0.4-1.5-1.4-1-1.8c-0.1,0-0.3,0-0.4-0.1c0.1-0.1,0.1-0.2,0.2-0.3   c-0.1,0-0.2-0.1-0.3-0.2l0.3-0.2c-0.5,0-0.3-2.5-0.2-3c0.1-0.3,0.1-0.5,0.2-0.7c0-0.1,0-0.4,0.1-0.5c0.1-0.1,0.3-0.1,0.4-0.2   c0-0.1-0.1-0.2-0.1-0.3c0.4-0.1,0.1-0.8,0.8-0.5c0,0,0-0.4,0-0.4c0.2-0.1,0.2,0.2,0.3,0.2c0,0-0.1-0.3,0.1-0.4   c0.1-0.1,0.2,0.2,0.3,0.2c0.1,0,0.1-0.7,0.5-0.4c0.2,0.2,0.6,0.1,0.8,0.3c0.3,0.2,0.4,0.3,0.6,0.6c0.3,0.3,1,0.9,0.5,1.3   c0.1-0.1,0.2,0,0.3,0.1c0,0.3,0.1,0.4,0.2,0.7c-0.1,0.1-0.2,0.2-0.3,0.2c0.5,0,0.5,0.1,0.1,0.4c0.5,0,0.5,0.2,0,0.4   c0.6,0,0.3,0.3,0.3,0.6c0-0.1,0.1,0.5,0.1,0.3l-0.2,0.2C490.6,342.2,490.7,342.3,490.8,342.3z M475.2,325.8c0-0.1-0.1-4.6-1-4.4   c0.6-0.7,0-0.5-0.2-0.8c-0.2-0.3,0.3-0.7-0.5-0.5c0.5-1.1-2.8-2.8-3.2-1.7c-0.2-0.7-0.4-0.7-0.6-0.1c-0.2-0.7-0.5-0.6-0.6,0   c0-0.2-0.1-0.3-0.2-0.5c-0.5,0-0.6,0.1-1,0.3c-0.3,0.2-0.4-0.4-0.5,0.4c0-0.1-0.2-0.2-0.4-0.3c-0.2,0.1-0.5,0.3-0.7,0.4   c-0.1,0.1,0,0.3-0.1,0.4c-0.1,0.1-0.3-0.2-0.5-0.1c-0.1,0.1,0.1,0.5,0,0.6c-0.1,0.1-0.3-0.2-0.5-0.1c-0.1,0.1,0.1,0.6,0,0.6   c-0.6-0.1-0.8,0.4-0.9,1.1c0,0-0.1,0.6-0.1,0.5c0.1-0.3-0.3,1-0.2,0.3c-0.1,0.3-0.2,0.7-0.2,1.1c0,0.3-0.2,0.9-0.1,1.4   c0.1,0.1,0.1,0.1,0.2,0.1c0.2,0.1-0.2,0.2-0.3,0.3c-0.1,0.3,0.2,0.2,0.3,0.4c0.1,0.4-0.8,0.2,0,0.7c-0.1,0-0.2,0.1-0.3,0.3   c0.1,0.1,0.2,0.2,0.3,0.3c0,0.1-0.1,0.2-0.2,0.2c0-0.1,0.2,0.6,0.2,0.4c0,0.5-0.5,1.5,0.4,1.5c-0.5,0.5-0.4,0.8,0.2,0.7   c-0.4,0.5-0.3,0.8,0.3,0.7c-0.1,0.1-0.2,0.2-0.2,0.5c0.3,0.5,0.9,1.4,1.4,1c-0.2,1,2.2,1.5,2.8,1.5c0.6,0,1.2-0.1,1.8-0.3   c0.3,0,0.5,0.1,0.8-0.1c0.2-0.1,0.4-0.6,0.4-0.6c0.1,0,0.3,0.4,0.5,0.3c0.2-0.1,0.1-0.6,0.1-0.6c0.2,0,0.3,0.3,0.5,0.2   c0.1,0,0-0.6,0.1-0.6c0.9,0.3,0.7-0.8,1.3-1c0-0.1-0.1-0.3-0.1-0.5c0.2-0.3,0.4-0.2,0.6-0.6c0.1-0.2,0.2-0.8,0.3-1.1   c0.1-0.4,0.1-0.8,0.1-1.2C475.2,326.7,475.1,326.1,475.2,325.8L475.2,325.8z M472.2,326c-0.1,0.1-0.2,0.2-0.3,0.2   c0.2,0,0.2,0.1,0.2,0.2c-0.1,0-0.2,0.1-0.2,0.1c0.1,0.1,0.2,0.1,0.2,0.2c0,0.1-0.4,0.1-0.3,0.2c0,0,0.1,0,0.1,0.1   c0.1,0.2-0.1,0.7-0.1,0.8c-0.1,0.4-0.1,0.4-0.4,0.4c0.1,0,0,1.1-0.5,0.9c0,0,0.1,0.4,0.1,0.4c-0.1,0.1-0.3-0.1-0.3-0.1   c0,0,0.2,0.3,0,0.4c-0.1,0-0.3-0.1-0.3-0.1c-0.3,0.3,0.5,0.1-0.4,0.5c-0.2-0.1-0.2-0.1-0.2-0.3c-0.1,0.7-0.3,0-0.4,0.2   c-0.1,0.1-0.2,0.2-0.3,0.2l-0.3-0.1c-0.1-0.2-0.1-0.3,0-0.4c-0.2,0.4-0.5,0.4-0.3-0.2c-0.3,0.4-0.5,0.2-0.3-0.3   c-0.5,0.4-1.5-1.4-1-1.8c-0.1,0-0.3,0-0.4-0.1c0.1-0.1,0.1-0.2,0.2-0.3c-0.1,0-0.2-0.1-0.3-0.2l0.3-0.2c-0.5,0-0.3-2.5-0.2-3   c0.1-0.3,0.1-0.5,0.2-0.7c0-0.1,0-0.4,0.1-0.5c0.1-0.1,0.3-0.1,0.4-0.2c0-0.1-0.1-0.2-0.1-0.3c0.4-0.1,0.1-0.8,0.8-0.5   c0,0,0-0.4,0-0.4c0.2-0.1,0.2,0.2,0.3,0.2c0,0-0.1-0.3,0.1-0.4c0.1-0.1,0.2,0.2,0.3,0.2c0.1,0,0.1-0.7,0.5-0.4   c0.2,0.2,0.6,0.1,0.8,0.3c0.3,0.2,0.4,0.3,0.6,0.6c0.3,0.3,1,0.9,0.5,1.3c0.1-0.1,0.2,0,0.3,0.1c0,0.3,0.1,0.4,0.2,0.7   c-0.1,0.1-0.2,0.2-0.3,0.2c0.5,0,0.5,0.1,0.1,0.4c0.5,0,0.5,0.2,0,0.4c0.6,0,0.3,0.3,0.3,0.6c0-0.1,0.1,0.5,0.1,0.3l-0.2,0.2   C472.1,325.8,472.1,325.9,472.2,326L472.2,326z"
   style="fill:#FFFFFF;"
   id="path60" />
	<path
   d="M443.7,462.7l-0.1,2.9c-4.4,0.3-8.8-2.1-11.6-5.4c-1.5-1.8-2.9-3.6-4.1-5.6c-1.2-2-2.6-4.1-4.1-5.9   c-0.7-0.9-1.6-1.7-2.6-2.4c-1-0.7-2.2-1.2-3.3-1.6c-0.8,0-1.6,0.1-2.4,0c-0.8,0-1.6,0.2-2.3,0.5c-0.7,0.3-1.5,0.6-2.2,0.9   c-0.6,0.3-1.2,0.8-1.9,1c-1,1.2-1.6,1.8-2.8,2.5c-0.7,1.2-1.4,2-2.5,2.9c-0.3,1-1.1,1.8-1.7,2.7c-0.5,0.7-1,1.4-1.5,2   c-0.5,0.6-1.1,1.2-1.5,1.9c-0.4,0.7-0.9,1.2-1.4,1.8c-0.5,0.4-0.8,1-1.2,1.5c-0.6,0.7-1.3,1.3-2.1,1.6c-0.9,0.9-2,1.3-3.2,1.2   c0.1-0.9,0.1-1.8,0.1-2.6c0.5-0.1,1.1-0.3,1.6-0.5c0.6-0.3,1.2-1,1.7-1.5c0.6-0.6,1.1-1.2,1.6-1.8c0.5-0.6,0.9-1.1,1.5-1.6   c0.4-1.2,1.3-2.3,2.3-3.2c0.5-1.2,1.3-2.2,2.4-3.1c0.3-0.8,0.9-1.4,1.4-2c0.7-0.8,1.4-1.5,2.1-2.2c1.4-1.3,3-2.6,4.8-3.4   c3.2-1.5,8.2-2.2,11.1,0.3c0.7,0.3,1.3,0.6,1.9,1c0.5,0.4,0.9,0.9,1.3,1.4c0.4,0.5,1,0.9,1.5,1.4c0.5,0.6,0.9,1.3,1.2,2   c0.6,0.5,1.1,1.2,1.5,1.9c0.5,0.8,1.1,1.7,1.6,2.5c1,1.6,2,3,3.3,4.4c1.2,1.4,2.7,2.5,4.3,3.4C440,462.5,441.8,462.6,443.7,462.7   L443.7,462.7z"
   style="fill:#FFFFFF;"
   id="path62" />
	<path
   d="M456.3,475.6c-0.8-0.4-1.6-0.9-2.4-1.4c-0.7-0.4-1.8-1.4-2.7-1.4c-0.3-0.4-0.6-0.6-1-0.6   c-0.2-0.3-0.6-0.6-1-0.6c-0.3-0.6-1.8-1.5-2.5-1.7l-0.8,1.4c0.2,0.2,0.5,0.3,0.8,0.4c0.4,0.6,1.3,0.9,1.9,1.2   c0.5,0.3,1.3,1.2,2,1.1c0.3,0.4,0.6,0.6,1,0.6l0,0c-6.4,0.1-12.8,0.2-19.3,0.1c-3.1,0-6.2,0-9.3,0c-3,0-6.2-0.3-9.2,0.2   c-2.4-0.3-4.6,0-7-0.1c-2.2,0-4.3-0.1-6.6,0.1c-4-0.5-8.1-0.1-12-0.1c0.2-3.5,0-7.1,0-10.6c0-3.9,0.5-8.1-0.1-11.9   c0.3-2.4,0.3-4.5,0-6.7c0.3-2.2,0.4-4.5,0-6.8c0.7-4.8,0.2-9.7,0.3-14.5c1.2,1.9,1.7,4.4,3.1,6.1l1.6-0.8c-0.4-0.9-1-2-1.6-2.8   c-0.4-0.9-1.1-3.1-2-3.5c0-0.7-0.8-2-1.3-2.5c-0.2-0.7-0.5-1.3-0.9-1.9c-0.6,1-1.2,2-1.7,3c-0.4,0.8-1.6,2.2-1.6,3.1   c-0.4,0.3-0.6,0.6-0.6,1c-0.3,0.2-0.6,0.6-0.6,1c-0.6,0.3-1.5,1.8-1.7,2.5l1.4,0.8c0.2-0.2,0.3-0.5,0.4-0.8   c0.6-0.4,0.9-1.3,1.2-1.9c0.3-0.5,1.2-1.3,1.1-2c0.4-0.3,0.6-0.6,0.6-1l0.2-0.2c0,0.6,0.1,1.3,0.1,2c-0.3,2.5,0,5-0.2,7.6   c-0.2,2.7-0.1,5.4-0.1,8.1c-0.1,3.1-0.4,6.6,0.2,9.6c-0.3,2.3-0.3,4.3,0,6.8c-0.2,2.4-0.3,4,0,6.8c-0.6,3.8-0.2,8-0.1,11.8   c2.9-0.1,5.9,0.2,8.9-0.2c4.7,0.6,9.6,0,14.3,0.1c4.8,0.1,9.7,0,14.5,0c9.4,0.1,18.8,0.1,28.3,0.1c-1.9,1.2-4.3,1.7-6,3.1l0.8,1.6   c0.9-0.4,2-1,2.8-1.6c0.9-0.4,3.1-1.1,3.5-2c0.7,0,2-0.8,2.5-1.3c0.7-0.2,1.3-0.5,1.9-0.9C457.1,476,456.7,475.8,456.3,475.6   L456.3,475.6z"
   style="fill:#FFFFFF;"
   id="path64" />
	<polygon
   points="454,476.1 454,476.1 454.1,476.1  "
   style="fill:#FFFFFF;"
   id="polygon66" />
	<path
   d="M407.9,452.9l0.8,0.4c-0.5,1.6-1.3,3.1-2,4.6c-0.6,1.5-1.2,3.5-2.1,4.9c-0.2,0.8-0.7,2.3-1.2,2.9   c-0.1,0.5-0.2,0.7-0.5,1.1c-0.1,0.4-0.2,0.7-0.5,1.1c0,0.6-0.5,1.3-0.8,1.9c-0.3,0.7-0.5,1.6-1,2.2c-0.1,0.3-0.2,0.5-0.3,0.8   l-0.7-0.3c0.3-0.8,0.7-2,1.3-2.7c0-0.4,0.2-0.8,0.5-1.1c0.1-0.4,0.2-0.7,0.5-1.1c0.1-0.9,0.8-2.1,1.2-3c0.4-0.9,0.7-2.1,1.3-2.9   c0.1-0.7,0.5-1.6,0.9-2.2c0.1-1.1,1-2.5,1.4-3.5C407.1,454.9,407.4,453.9,407.9,452.9L407.9,452.9z"
   style="fill:#FFFFFF;"
   id="path68" />
	<path
   d="M416,447.8l1,0.5c-0.6,1.9-1.6,3.7-2.3,5.5c-0.4,0.9-0.8,1.8-1.2,2.8c-0.5,1.1-0.8,2.4-1.5,3.4   c-0.2,1-0.8,2.8-1.5,3.6c-0.1,0.6-0.3,0.9-0.6,1.3c-0.1,0.5-0.3,0.9-0.6,1.3c0,0.8-0.6,1.6-0.9,2.3c-0.4,0.8-0.7,1.9-1.2,2.6   c-0.1,0.3-0.2,0.7-0.4,1l-0.9-0.4c0.3-1,0.9-2.4,1.5-3.3c0.1-0.5,0.3-0.9,0.6-1.3c0.1-0.5,0.3-0.9,0.6-1.3c0.1-1.2,1-2.6,1.5-3.6   c0.5-1.1,0.8-2.6,1.6-3.6c0.2-0.8,0.6-2,1.1-2.7c0.1-1.4,1.2-3.1,1.8-4.4C415.1,450.2,415.5,449,416,447.8L416,447.8z"
   style="fill:#FFFFFF;"
   id="path70" />
	<path
   d="M420.4,454.9l0.7,0.3c-0.4,1.4-1.1,2.7-1.7,4c-0.6,1.3-1,3-1.8,4.2c-0.1,0.7-0.6,2-1.1,2.5   c-0.1,0.4-0.2,0.6-0.4,0.9c-0.1,0.4-0.2,0.6-0.4,0.9c-0.1,0.9-1,2.7-1.5,3.5c-0.1,0.2-0.1,0.5-0.3,0.7l-0.6-0.3   c0.2-0.7,0.6-1.7,1.1-2.3c0.1-0.3,0.2-0.6,0.4-0.9c0.1-0.3,0.2-0.6,0.4-0.9c0.1-0.8,0.6-1.6,0.9-2.3c0.4-0.8,0.7-2,1.2-2.7   c0.1-0.6,0.5-1.4,0.8-1.9c0.1-1,0.9-2.1,1.2-3C419.7,456.6,420.1,455.7,420.4,454.9L420.4,454.9z"
   style="fill:#FFFFFF;"
   id="path72" />
	<path
   d="M424.9,460.6l0.7,0.3c-0.2,1-0.8,2-1.2,2.9c-0.4,0.9-0.7,2.3-1.3,3c0,0.4-0.5,1.6-0.8,1.8   c0,0.3-0.1,0.5-0.3,0.7c0,0.3-0.1,0.5-0.3,0.7c0.1,0.6-0.8,2.1-1.1,2.5c0,0.2-0.1,0.3-0.2,0.5l-0.7-0.3c0.1-0.5,0.5-1.3,0.8-1.6   c0-0.3,0.1-0.5,0.3-0.7c0-0.3,0.1-0.5,0.3-0.7c0-0.8,1-3.1,1.5-3.7c0.1-0.4,0.3-1,0.6-1.4c0-0.6,0.6-1.6,0.9-2.2   C424.4,461.8,424.6,461.2,424.9,460.6L424.9,460.6z"
   style="fill:#FFFFFF;"
   id="path74" />
	<path
   d="M429.5,464.3l0.7,0.3c-0.1,0.6-0.5,1.2-0.7,1.7c-0.3,0.6-0.5,1.8-1,2.2c0,0.3-0.3,1.1-0.5,1.2   c0,0.2-0.1,0.3-0.2,0.5c0,0.2-0.1,0.3-0.2,0.4c0.1,0.3-0.5,1.5-0.7,1.7c0,0.1-0.1,0.2-0.1,0.3l-0.6-0.3c0.1-0.3,0.3-0.9,0.6-1.1   c0-0.2,0.1-0.3,0.2-0.4c0-0.2,0.1-0.3,0.2-0.4c-0.1-0.4,0.7-2.2,1-2.4c0-0.2,0.2-0.8,0.4-0.9c-0.1-0.4,0.4-1.2,0.6-1.5   C429.2,465.1,429.4,464.7,429.5,464.3z"
   style="fill:#FFFFFF;"
   id="path76" />
	<path
   d="M397.7,464.3l0.7,0.3c-0.1,0.6-0.5,1.2-0.7,1.7c-0.3,0.6-0.5,1.8-1,2.2c0,0.3-0.3,1.1-0.5,1.2   c0,0.2-0.1,0.3-0.2,0.5c0,0.2-0.1,0.3-0.2,0.4c0.1,0.3-0.5,1.5-0.7,1.7c0,0.1-0.1,0.2-0.1,0.3l-0.6-0.3c0.1-0.3,0.3-0.9,0.6-1.1   c0-0.2,0.1-0.3,0.2-0.4c0-0.2,0.1-0.3,0.2-0.4c-0.1-0.4,0.7-2.2,1-2.4c0-0.2,0.2-0.8,0.4-0.9c-0.1-0.4,0.4-1.2,0.6-1.5   C397.4,465.1,397.6,464.7,397.7,464.3z"
   style="fill:#FFFFFF;"
   id="path78" />
	<path
   d="M702.6,506.8l-0.6,2.7c-1.5,0-3.2,0-5.1,0c-5.4,0-11,0-16.2,0c-5.3,0-10.5-0.1-15.7,0l-8.3,0l-8.2,0   c-5.1-0.1-10.1-0.1-15.2,0c-5.6,0-11.3,0-16.9,0c-5,0-10,0-15,0c-5.7,0-11.3,0.1-17,0c-4.9,0-9.9,0-14.8,0c-5.6,0.1-11.9,0-17.9,0   c-2.7,0-5.3,0-7.8-0.2c-4.7,0.2-9.9,0.2-14.8,0.1c-0.7,0-1.4,0-2,0c-8.2,0.2-17,0.1-25.5,0.1c-2.1,0-4.3-0.1-6.1-0.2   c-2.2,0.1-4.1,0.1-5.9,0.2l-2.6,0l-3.9,0l0-3.1l0-1.8c0-1.2,0.1-2.4,0.1-3.8c-0.3-6.5-0.3-11.9,0-18c-0.2-2.6-0.2-6.8-0.2-11.8   l0-11.7c0-3.4,0.1-6.7,0.1-10c0.1-2.7-0.1-5.2-0.1-9.1c0-3.7,0.2-5.9,0.2-8.5c0-2.6-0.1-4.8-0.1-8.4c0-2.7,0.1-5.5,0.2-8   c-0.1-3-0.1-5.4-0.1-7.7c0-1.8,0-3.6,0.1-5.3l2.4,0.6c0.1,3.5,0,6.1-0.1,10.9c0,0.8,0,1.6,0,2.4c0.1,4.3,0.1,8.6,0,12.9   c0,4.3-0.1,8.7-0.1,13.1c0,2.8-0.1,4.5-0.2,6c0.1,2.2,0.2,5.3,0.2,8.6c0,3.2-0.1,6.5-0.2,9.5c0.3,6.1,0.3,11.6,0,18   c0.2,2.8,0.2,7.1,0.2,12.1l0,10.6l0.2,0l1.1,0c4.6,0,9.3,0,13.8,0c5.9,0,11.9-0.1,17.9,0c4.7,0,9.4,0,14,0c5.6,0,11.6,0,17.5,0   c2.9,0,5.8,0.1,8.4,0.2c5.5-0.2,10-0.3,13.6-0.2c3.6,0.1,5.4,0.1,9.1,0c3.8-0.1,9-0.1,13.5,0.2c2.7-0.2,6.9-0.2,11.6-0.2   c4.8,0,9.8,0,14.3,0c4.9,0.1,9.8,0.1,14.8,0c5.6,0,11.6,0,17.5,0l1.9,0l1.4,0l15.5,0c5.5,0,11,0,16.5-0.1   C693.2,506.8,697.9,506.8,702.6,506.8L702.6,506.8z"
   style="fill:#FFFFFF;"
   id="path80" />
	<path
   d="M493.4,417.2l0,2.9c-1.1,0.5-8,0.4-8.6-0.2c-0.4,0.3-2.4,0.3-2.6,0c-0.4,0.3-0.6,0.3-1,0c-0.4,0.3-0.6,0.3-1,0   c-0.4,0.5-3.4,0.2-3.7-0.1c-0.2,0.2-0.5,0.2-0.7,0l0-2.6c0.4-0.2,2.2,0.1,2.5,0.4c0.3-0.3,0.7-0.3,1,0c0.3-0.3,0.6-0.3,1,0   c0.4-0.5,5-0.4,5.3-0.1c0.3-0.2,1.7-0.3,2,0c0.4-0.5,2.7-0.3,3.3-0.1C491.5,417.2,492.7,417.2,493.4,417.2z"
   style="fill:#FFFFFF;"
   id="path82" />
	<path
   d="M493.4,440.3l0,2.9c-1.1,0.5-8,0.4-8.6-0.2c-0.4,0.3-2.4,0.3-2.6,0c-0.4,0.3-0.6,0.3-1,0c-0.4,0.3-0.6,0.3-1,0   c-0.4,0.5-3.4,0.2-3.7-0.1c-0.2,0.2-0.5,0.2-0.7,0l0-2.6c0.4-0.2,2.2,0.1,2.5,0.4c0.3-0.3,0.7-0.3,1,0c0.3-0.3,0.6-0.3,1,0   c0.4-0.5,5-0.4,5.3-0.1c0.3-0.2,1.7-0.3,2,0c0.4-0.5,2.7-0.3,3.3-0.1C491.5,440.3,492.7,440.3,493.4,440.3z"
   style="fill:#FFFFFF;"
   id="path84" />
	<path
   d="M493.4,463.3l0,2.9c-1.1,0.5-8,0.4-8.6-0.2c-0.4,0.3-2.4,0.3-2.6,0c-0.4,0.3-0.6,0.3-1,0c-0.4,0.3-0.6,0.3-1,0   c-0.4,0.5-3.4,0.2-3.7-0.1c-0.2,0.2-0.5,0.2-0.7,0l0-2.6c0.4-0.2,2.2,0.1,2.5,0.4c0.3-0.3,0.7-0.3,1,0c0.3-0.3,0.6-0.3,1,0   c0.4-0.5,5-0.4,5.3-0.1c0.3-0.2,1.7-0.3,2,0c0.4-0.5,2.7-0.3,3.3-0.1C491.5,463.3,492.7,463.3,493.4,463.3z"
   style="fill:#FFFFFF;"
   id="path86" />
	<path
   d="M493.4,486.4l0,2.9c-1.1,0.5-8,0.4-8.6-0.2c-0.4,0.3-2.4,0.3-2.6,0c-0.4,0.3-0.6,0.3-1,0c-0.4,0.3-0.6,0.3-1,0   c-0.4,0.5-3.4,0.2-3.7-0.1c-0.2,0.2-0.5,0.2-0.7,0l0-2.6c0.4-0.2,2.2,0.1,2.5,0.4c0.3-0.3,0.7-0.3,1,0c0.3-0.3,0.6-0.3,1,0   c0.4-0.5,5-0.4,5.3-0.1c0.3-0.2,1.7-0.3,2,0c0.4-0.5,2.7-0.3,3.3-0.1C491.5,486.4,492.7,486.4,493.4,486.4z"
   style="fill:#FFFFFF;"
   id="path88" />
	<path
   d="M528.8,506.9c0.1-0.9-0.2-1.9-1.3-2.2c1.7-0.6,1.7-1.2,0-1.7c1.8-0.5,1.5-1.3,0-1.7c0.4,0,0.8-0.2,1.2-0.6   c0-1.3,0.1-3.6-0.9-4.1c0.3,0,0.7-0.2,1-0.8c0-2.8-0.6-1.1-0.8-2.4c0.3-0.2,0.6-0.5,0.8-0.9c-0.4-0.3-0.7-0.6-1.1-0.8   c-0.1,0.8,1.9-2.8,0.1-1.7c1.7-1.1,0.3-4.8,0.2-4.7c0.8-0.6,1-5,0.5-5.9c-0.3-0.1-0.5-0.2-0.8-0.4c0.4-0.3,0.7-0.5,1.1-0.8   c-0.2-0.3-0.5-0.6-0.9-0.8c-0.4-0.9,2.3-0.5-0.1-1.6c1.4,0.2,0.2-4.7,0.6-4.6c-1.4,0.7-4.9-1.9-5.5,0.9c-0.6-1.8-1.1-1.8-1.7-0.1   c-0.6-1.7-1-1.6-1.8,0c0-0.4-0.2-0.8-0.6-1.1c-0.5,0-3.3-0.2-3.4-0.1l-0.7,1c-0.7-2-5-1-6.6-1.1c-0.3,2.4,0.4,5,0.4,7.3   c0,1.3-0.4,2.4-0.2,3.8c0.1,0.5,0,1.3,0,1.8c0,0.5,1,0.4,1,0.6c0,0.3-1,0.3-1,0.8c0,0.4,1.1,0.8,1,0.9c0.2-0.7-1.8,2.9-0.1,1.7   c-1.8,1.3,0.1,2.6-1,3.9c0.3,0.1,0.6,0.4,0.9,0.7c0,0.3-0.8,1-0.9,1.6c-0.1,0.4,0.1,1.8,0.1,2.3c0.1,1.6,0.2,3.5,0.1,5.1   c-0.1,2.3-1.6,6.7,2,6v2.2l0.1,0c1.6,0.1,5.1,0.7,5.6-1.2c0.8,2.5,0.7,0.4,1.7,0.4c0.2,0.3,0.5,0.6,0.8,0.9   c0.5-0.3,0.8-0.7,0.9-1.2c0.7,2.4,7.3,0.7,9.2,1.2C528.8,508.5,528.8,507.7,528.8,506.9L528.8,506.9z"
   style="fill:#FFFFFF;"
   id="path90" />
	<path
   d="M568.4,505.3c-0.1-1.6,0.7-5.1-1.3-5.8c1.7-0.8,1.6-1.5,0-2.2c1.7-0.7,1.5-1.7,0-2.2c0.4,0,0.7-0.2,1.1-0.7   c0-1.4,0.3-4.6-0.9-5.2c0.3,0.1,0.7-0.3,1-1c0-1.4-0.6-2.1-0.8-3.1c0.3-0.3,0.6-0.7,0.8-1.1c-0.3-0.4-0.7-0.7-1.1-1   c0.1-0.4,1.1-0.5,1-1.1c0-0.5-1.1-0.7-1-1.1c0.1-0.5,0.9-1.4,1-2.2c0.2-0.7-0.2-2.2-0.2-3c0-0.5-0.4-0.5-0.4-1.1   c0-0.6,0.4-1.6,0.5-2.3c0.1-0.6-0.4-1-0.4-1.5c0-1.4,0.8-1.9,0.2-3.4c-0.3-0.2-0.5-0.3-0.7-0.5c0.4-0.3,0.7-0.7,1-1   c-0.2-0.4-0.5-0.8-0.8-1c0-1.2,1.9-0.9-0.1-2.1c0.3,0.1,0.6-0.3,0.9-1c0-0.5-0.7-0.9-0.8-1.4c-0.1-0.7,1.6-2.5,0.4-2.9   c-1.7,0.7-5.5-2-6.4,0.9c-0.8-1.7-1.4-1.7-2.2-0.1c-0.8-1.6-1.3-1.6-2.2,0c0-0.4-0.2-0.7-0.8-1.1c-0.9,0-5.5-0.6-5.8,0.9   c-0.7-0.6-1.6-1-2.6-1c-0.1,3.3-0.1,6.7,0.1,9.9c0.1,2,0.1,4,0,6c0,0.8-0.3,2.1-0.1,2.9c0,0.2,1.1,2.5,1.1,2.1c0,0.3-1,0.5-1,1.1   c0,0.4,1,0.9,1,1.1c-0.1,0.5-1,0.3-1,1c0,0.5,1,0.6,1,1.1c-0.1,0.4-0.9,1.5-1,2.1c-0.2,1,0.7,1.8,0.1,2.8c0.3,0.2,0.5,0.5,0.8,0.9   c0,0.3-0.8,1.6-0.9,2c-0.1,0.7,0.3,1.4,0.3,2.1c0,1.7-0.3,3.5-0.3,5.3c0,0.9-0.4,9.5,0.1,9.7l2,0v2.1l0.1,0   c1.7,0.1,6.4,0.8,7.1-1.2c1,2.3,1,0.4,2.2,0.4c1.3,0,0.9,1.8,2.2-0.3c0.9,2.2,4.7,0.7,6.5,1C568.4,507.8,568.5,506.6,568.4,505.3   L568.4,505.3z"
   style="fill:#FFFFFF;"
   id="path92" />
	<path
   d="M607.8,501c0.4-1.7,0.8-8.9-1-9.7c1.5-1.1,1.5-2.1,0-3c1.6-0.9,1.3-2.3,0-3c0.3,0,0.7-0.3,1-1   c0-1.6,0.4-6.1-0.8-7.1c1.5,0.4,0.6-4.3,0.6-4.8c0-0.9,0.1-1.5,0.2-2.7c0,0.6-0.8-1.2-0.7-1.1c0-0.2,0.8-0.9,0.8-1.3   c0-0.4-0.8-0.8-0.7-1.1c0.1-0.6,0.5-1,0.6-1.6c0.2-1.8,0.2-3.7,0.1-5.5c0-0.4-0.6-0.8-0.6-1c0-0.6,0.5-0.9,0.5-1.5   c0-1.3,0.3-9.4-0.6-9.6c0.5,0.4,0.1-3,0.1-2.9c0.2-1.2,1.1-1.8-0.3-3.1c0.2,0.1,1-5.9,0.5-6.5c-1.9,0.6-6.7-1.9-7.9,0.8   c-1-1.5-1.9-1.5-3-0.1c-1.1-1.4-1.8-1.4-3,0c0.1-0.3-0.3-0.7-1-1c-1.5,0-3.1-0.2-4.6-0.1c0,1.4-0.3,5.5,1,6.4   c-2.3,1.6-0.7,8.5-0.7,10.9c0,4.4-1,9.6-0.3,14c0.1,0.4,0.7,1.9,0.7,2c0,0.2-0.3,0.8-0.3,0.9c0.1,0.8,0,2.3,0.1,2.9   c0.1,0.6,0.2,2.2,0.2,2.8c0,1.1-0.2,5.5-0.6,6.4c0.3,0.2,0.5,0.7,0.7,1.3c0,0.5-0.7,1.5-0.8,2.2c-0.1,0.9,0.2,1.9,0.2,2.8   c0,2.4-0.1,4.7-0.1,7.1c0,2.3-0.2,4.5-0.2,6.8c0,0.7-0.2,7,0.2,7.2l1.8,0v0h0l0,1.9c1.8,0.3,8.8,0.9,9.8-1.1c1.1,1.7,2,0.6,3.4,0.6   c1,0,2.6,1.3,3.4-0.5c0.3,0.2,0.6,0.3,0.9,0.4C608.8,508.3,607.6,502,607.8,501L607.8,501z"
   style="fill:#FFFFFF;"
   id="path94" />
	<path
   d="M648,502.2c0-3.2,0-6.3,0-9.5c0-2.1,1.1-7.6-1.3-8.8c1.8-1.3,1.8-2.5,0-3.6c1.9-1.1,1.6-2.8,0-3.7   c0.4,0,0.8-0.4,1.2-1.2c0-1.9-0.3-3.5-0.4-5.3c-0.1-1.7,1.2-1.9-0.5-3.4c2,0.5,0.5-6.2,0.5-6.4c0-0.1,0.3-1.2,0.3-1.2   c0.1,0.4-0.5-3.3-0.6-2.3c0.1-0.7,0.6-1.5,0.7-2.4c0-0.6-0.9-0.9-0.9-1.5c0-0.6,1-1.8,1.1-2.6c0.3-1.7,0-3.9-0.1-5.6   c0-0.7-0.8-1-0.8-1.5c0-0.7,0.6-1.4,0.8-2.1c0.4-1.8-0.5-3.6-0.4-5.2c0.1-1.2,1.5-5.5-0.4-6c-0.6-0.4,0.3-0.7,0.4-1.1   c0.3-1.2-0.3-1.3-0.2-2.4c0.2-1.5,1.3-2.2-0.3-3.7c1.7,0.6,0.2-3.6,0.2-3.7c0-1.4,1.6-2.9,0.4-4.2c-2.4,0.7-8.2-2.4-9.6,0.9   c-1.3-1.9-2.4-1.9-3.7-0.1c-1.1-1.4-3.2-1.8-4.3,0c-0.1-0.4-0.8-0.7-2.5-1.1c-1,1.8-0.4,10,0.9,11c-2.1,1.5-1,6-1.1,8.2   c-0.1,2.7-0.2,5.5-0.2,8.2c0,3.2,0.4,6.5,0.4,9.8c0,1.5-0.7,3.4-0.3,4.9c0,0.2,1.1,2,1.2,1.9c0,0.4-1.1,0.9-1.1,1.3   c0.1,0.5,1,1.9,1,2.2c0,0.6-0.6,1.8-0.7,2.6c0,0.3,0.8,0.7,0.7,1.2c0,0.5-0.9,1.4-1.1,2c-0.5,2,0.9,4.3,0,6.2   c0.3,0.3,0.6,0.8,0.9,1.5c-0.1,0.7-0.8,1.7-0.9,2.6c-0.2,1.4,0.3,2.7,0.3,4.1c-0.1,2.6-0.1,5.3-0.2,7.9c-0.1,2.7-0.2,5.5-0.2,8.3   c0,0.9-0.1,8.6,0.2,8.7l2.2,0v0h0l0,2.3c2,0.2,3.9-0.1,5.9-0.1c1.9,0,4.9,1.1,6-1.2c1.8,2.8,3.6,0,5.9,0.7c1.3-1.3,0.6-3.7-0.6-4.8   C647.5,503.5,648,503,648,502.2L648,502.2z"
   style="fill:#FFFFFF;"
   id="path96" />
	<path
   d="M687.5,496.2c0-4.1,0.3-8.2,0-12.3c-0.2-2.7,1.3-9.7-1.2-11.4c1.7-1.7,1.6-3.2,0-4.7c1.7-1.5,1.5-3.7,0-4.8   c0.4,0,0.7-0.5,1.1-1.6c0-2.3-0.4-4.6-0.4-6.8c0-1.9,0.9-2.7-0.5-4.4c1.1,0.4,1.1-6.1,1-6.8c-0.1-0.6-0.8-1.4-0.8-1.9   c0-0.8,0.8-1.5,0.7-2.4c-0.1-1-0.9-1.6-0.9-2.4c0-0.6,0.9-1.3,0.9-2.1c0-0.9-0.9-1.5-1-2.4c0-0.3,0.9-2.3,1-2.7   c0.4-2.1,0.1-5.2-0.1-7.3c-0.2-2.2-0.2-3.1,0.1-5.3c0.3-2.1-0.6-4.2-0.5-6.1c0-1.2,1.8-7.7-0.2-8.5c-0.7-0.6,0.7-1.5,0.7-2   c0.1-1-0.7-1.9-0.7-2.7c0.1-2,1.4-2.5-0.2-4.6c1,0.5,0.4-4.8,0.5-5.3c0.1-1.5,0.8-2.6,0.1-4.1c-3.1,0.8-9.7-2.4-11.8,0.9   c-1.5-1.5-3.6-1.5-5.1-0.1c-0.9-0.4-1.9-0.8-2.9-1c-0.5,1.5-0.2,4.6,1,5.4c-1.4-0.4-1.3,11.6-0.2,12.8c-2,2-0.8,5.7-0.8,8.1   c0,2.8,0,5.6,0,8.4c0.1,6.2,0,12.6-0.1,18.8c0,1.6-0.5,3.4-0.1,5c0.1,0.4,0.8,1.9,0.8,2.1c0,1-0.7,0.7-0.7,2.1c0,1.3,1,2.3,0.9,3.2   c-0.1,0.9-0.5,1.9-0.6,2.9l0.5,0.9c0.3,0.7,0.2,1.3-0.5,1.8c-0.3,2.9,0.5,6.7-0.3,9.4c0.3,0.4,0.6,1,0.8,2   c-0.1,1.4-0.9,2.7-0.9,4.3c0,1.7,0.3,3.4,0.3,5.1c-0.1,3.4,0,6.8-0.2,10.2c-0.2,3.3-0.1,6.8-0.1,10.2c0,1.4-0.8,10.6,0.2,11.3   l2-0.1v0.1h0l0,2.1c3.3,0.2,6.6,0,9.9,0.1c1,0,5.7,0.3,6.1-1.3c0.5,0.2,1,0.5,1.6,0.6c0.9-1.1,0.5-2.8,0.5-4l-0.2-0.3   c-0.7-0.8-0.7-1.6,0-2.4c0-1.6,0.4-2-0.9-3.6C687,497.9,687.5,497.3,687.5,496.2L687.5,496.2z"
   style="fill:#FFFFFF;"
   id="path98" />
	<path
   d="M676.8,359.6c-0.7-1.5-0.4-3.3-1.1-4.8c0.1-1.5-0.3-7.9-1.9-8.7c1-1.4,0-2-0.3-3.3c-0.4-1.7,0.4-3.4-1.1-4.8   c0.4-1.6,0.1-2.9-0.1-4.4c-3.1,1.6-6.5,3.1-9.5,4.9c-1.5,0.9-5.5,1.9-5.8,3.7c-1.2-0.4-2-0.1-2.4,1.1c-1-0.4-2.2-0.1-2.4,1.1   c-1.1-0.5-2.3,0.2-3.3,0.6c-0.6,0.2-2.8,1-3.1,1.4l3.4,7c0.8,0.1,1.3-0.3,1.7-1c1.5,0.5,3.4-1.3,4.7-1.8c1.2-0.4,4.1-0.5,4.3-2.3   c0.2,0.1,0.3,0.1,0.5,0.1c-4.2,6.6-9.5,12.9-15.4,18.2c-3.8,3.4-7.4,6.9-11.5,9.9c-3.2,2.2-9.3,5.3-10.8,9.1   c-1.9,0.3-3.9,0.9-5.4,2.1c-1.2,0.9-2,2.3-3.4,3.1c-1.2,0.6-2.6,0.6-3.8,1.2c-1.7,0.9-3,2.4-4.2,3.9c-4.1-0.2-8.7,2.8-12.2,4.7   c-4.3,2.3-8.6,3.6-13.1,5.5c-4.4,1.8-8.2,3.4-12.8,4.7c-3.3,0.9-9.6,1.8-11.3,5.3c-3.6-1.4-7.1-1-9.5,2.2c-3.1-1.6-7.6-1.7-9.6,1.7   c-3.3-2.4-8.4-1.6-12.3-1.3c-1.8,0.1-3.7,1-5.4,0.9c-1.6-0.1-3.5-2-5.1-0.9c0,9.1,0,18.2-0.2,27.3c3.2,1.2,6,0.6,8.8-1.4   c1.8,1.1,4.1,1.5,6.1,0.9c1.3-0.4,2.4-1.7,3.7-2c1.6-0.3,3.1,0.6,4.7,0.4c1.9-0.2,2.4-1.2,4-1.9c1.4-0.7,2.5-0.4,4-0.4   c2.2-0.1,4.1-0.8,6.2-1.4c3.3-1,8.4-1.9,9.9-5.5c4,1.2,7.4-0.4,9.8-3.8c4.2,0.7,7.2-1.1,9.7-4.4c4,1.3,10.6-3.3,13.8-5.5   c2.2-1.5,3.7-2.6,6-3.6c2.1-0.9,3.8-2.5,5-4.5c3.5-0.1,6.6-2.9,9.3-4.8c3.2-2.2,6-5,9.2-7.2c5.9-4.1,10.8-9.2,16.2-14   c5.3-4.7,10.2-10.5,14.7-16c4.4-5.5,8.7-11.7,12-17.9c0.9,2.9-0.1,7.6,1.6,10.1l8.5-1.4C677.3,360.9,677.1,360.3,676.8,359.6   L676.8,359.6z"
   style="fill:#FFFFFF;"
   id="path100" />
	<path
   d="M434.5,496.5c0.1,0.3,0.1,0.6-0.1,0.9c0.2,0.2,0.3,1,0,1.2c0.4,0.2,0.3,1.7,0.2,2c0.2,0.3,0.1,0.9,0.2,1.3   c9.7,0.3,17.9,6.5,21.2,15.1c1.1-1,3.7-1.6,5.1-2.1C456.9,504.2,446.6,496.6,434.5,496.5L434.5,496.5L434.5,496.5z M432,501.6   c0.2-0.9-0.6-4.2,0.1-4.7c-0.2-0.1-0.2-0.3-0.2-0.4c-5.9,0.4-11.3,2.7-15.7,6.2c0.4,0.5,2.3,1.7,2.1,2.5c0.4,0,1.3,0.8,1.2,1.3   c0.2-0.1,0.4,0,0.5,0.1c3.4-2.5,7.5-4.2,11.9-4.6C432,501.9,432,501.7,432,501.6L432,501.6z M461.1,518.5c-0.7,0-1.4,1.2-2.2,0.7   c-0.3,0.5-0.6,0.6-1.2,0.4c-0.2,0.4-0.5,0.6-1,0.5c1.9,8.2-0.9,17-7.2,22.6c0.9,1.1,2.6,2.3,2.9,3.7c0.3,0.2,0.5,0.3,0.7,0.5   c8-7.1,11.5-18.4,8.8-28.8C461.8,518.4,461.5,518.6,461.1,518.5L461.1,518.5z M450.2,547.5c-0.2-0.2-0.3-0.5-0.4-0.7   c-0.7-0.3-1.8-1.7-2.3-2.3c-9.6,6.8-23,5.2-30.8-3.6c-8-9-7.8-23.1,0.6-31.8c-0.4-0.3-1.9-1.7-1.8-2.2c-0.5,0-1.8-1.3-1.6-1.7   c-0.1,0-0.3,0-0.3,0c-10.4,10.6-10.9,27.9-1.2,39.2c9.7,11.2,26.8,13.2,38.8,4.3C450.8,548.2,450.5,547.8,450.2,547.5L450.2,547.5z    M426.1,526c0-0.4-0.3-1.2-0.8-1.2c0-0.5-0.3-0.7-0.7-0.5c-0.1-0.4-0.5-0.5-0.8-0.3c0-0.1,0-0.2-0.2-0.3c-0.5-0.1-1.4-0.6-1.9-0.4   c0.1,0,0-0.2-0.1-0.3c-0.1-0.1-0.1-0.3,0-0.4c0-0.1,0.7-0.5,0.7-0.3c0.1,0.1,0.1,0.2,0.2,0.2c0.1,0,0.3,0,0.4,0c0,0.1,0,0.2,0,0.3   l0,0l0,0.1c0.1,0.4,0.5,0.5,0.9,0.5c0.4,0,1.7,0.1,2-0.3c0.1-0.2,0.2-0.4,0.1-0.6c-0.1-0.7-0.6-1.6-1.2-2c-0.1,0-0.1,0-0.2,0   c-0.1,0-0.1,0-0.1-0.1c0-0.1-0.8-0.6-1-0.6l-0.1,0c0,0-0.1,0-0.1,0c0.1,0,0.1,0,0.2-0.3c0-0.2-0.1-0.3-0.1-0.4   c-0.1-1-0.3-0.4-0.8-0.6c-0.5-0.3-1.6-0.1-1.3,0.7c0,0.1,0.1,0.2,0.2,0.2c-0.1,0.1-0.2,0.2-0.2,0.3l0,0.1c0,0,0,0.1,0,0.2   c-0.3-0.3-0.7,0.1-0.8,0.3c0-0.1-0.1-0.1-0.4,0c-0.4,0.3-1.4,1.3-1.1,1.9c-0.1,0.1-0.2,0.2-0.2,0.4c-0.2,1.1,0.2,2.2,1.1,2.9   c0.9,0.8,2.1,0.7,3,1.2c0.2,0.1,0.4,0.3,0.6,0.5c0.1,0,0.1,0.1,0,0.1c-0.4,0.2-0.3,0.5-0.9,0.5c-0.3,0-1-0.2-1.2-0.6l-0.1-0.1   l-0.3-0.3c-0.2,0-0.4,0-0.5,0c-0.4,0-0.7-0.2-1.2-0.1c-1.1,0-0.8,1.2-0.5,1.8c0.4,0.9,1.3,1.8,2.4,1.9l0.1,0l0,0.1l0,0.1   c0,0.3,0,0.7,0.1,0.9l0.1,0.1l0.3-0.2l0,0l-0.3,0.3c0.1,0.4,1.2,0.2,1.3,0.2l0.1,0c0.5,0,0.8-0.3,0.8-0.8c0-0.1-0.1-0.5,0-0.5   l-0.1-0.1l0-0.1c0.2,0.1,0.1,0.2,0.3,0.2c0.4,0,1.2-0.5,1.3-0.8c0.2,0,0.3,0,0.5-0.1C426.2,528.2,426.1,527.1,426.1,526L426.1,526z    M437.7,526c0-0.4-0.3-1.2-0.8-1.2c0-0.5-0.3-0.7-0.7-0.5c-0.1-0.4-0.5-0.5-0.8-0.3c0-0.1,0-0.2-0.2-0.3c-0.5-0.1-1.4-0.6-1.9-0.4   c0.1,0,0-0.2-0.1-0.3c-0.1-0.1-0.1-0.3,0-0.4c0-0.1,0.7-0.5,0.7-0.3c0.1,0.1,0.1,0.2,0.2,0.2c0.1,0,0.3,0,0.4,0c0,0.1,0,0.2,0,0.3   l0,0l0,0.1c0.1,0.4,0.5,0.5,0.9,0.5c0.4,0,1.7,0.1,2-0.3c0.1-0.2,0.2-0.4,0.1-0.6c-0.1-0.7-0.6-1.6-1.2-2c-0.1,0-0.1,0-0.2,0   c-0.1,0-0.1,0-0.1-0.1c0-0.1-0.8-0.6-1-0.6l-0.1,0c0,0-0.1,0-0.1,0c0.1,0,0.1,0,0.2-0.3c0-0.2-0.1-0.3-0.1-0.4   c-0.1-1-0.3-0.4-0.8-0.6c-0.5-0.3-1.6-0.1-1.3,0.7c0,0.1,0.1,0.2,0.2,0.2c-0.1,0.1-0.2,0.2-0.2,0.3l0,0.1c0,0,0,0.1,0,0.2   c-0.3-0.3-0.7,0.1-0.8,0.3c0-0.1-0.1-0.1-0.4,0c-0.4,0.3-1.4,1.3-1.1,1.9c-0.1,0.1-0.2,0.2-0.2,0.4c-0.2,1.1,0.2,2.2,1.1,2.9   c0.9,0.8,2.1,0.7,3,1.2c0.2,0.1,0.4,0.3,0.6,0.5c0.1,0,0.1,0.1,0,0.1c-0.4,0.2-0.3,0.5-0.9,0.5c-0.3,0-1-0.2-1.2-0.6l-0.1-0.1   l-0.3-0.3c-0.2,0-0.4,0-0.5,0c-0.4,0-0.7-0.2-1.2-0.1c-1.1,0-0.8,1.2-0.5,1.8c0.4,0.9,1.3,1.8,2.4,1.9l0.1,0l0,0.1l0,0.1   c0,0.3,0,0.7,0.1,0.9l0.1,0.1l0.3-0.2l0,0l-0.3,0.3c0.1,0.4,1.2,0.2,1.3,0.2l0.1,0c0.5,0,0.8-0.3,0.8-0.8c0-0.1-0.1-0.5,0-0.5   L435,530l0-0.1c0.2,0.1,0.1,0.2,0.3,0.2c0.4,0,1.2-0.5,1.3-0.8c0.2,0,0.3,0,0.5-0.1C437.9,528.2,437.7,527.1,437.7,526z    M449.5,526.7c-0.1-0.5,0-2-0.8-1.9c0-0.5-0.3-0.7-0.7-0.5c-0.1-0.4-0.5-0.5-0.8-0.3c0-0.1,0-0.2-0.2-0.3c-0.5-0.1-1.4-0.6-1.9-0.4   c0.1,0,0-0.2-0.1-0.3c-0.1-0.1-0.1-0.3,0-0.4c0-0.1,0.7-0.5,0.7-0.3c0.1,0.1,0.1,0.2,0.2,0.2c0.1,0,0.3,0,0.4,0c0,0.1,0,0.2,0,0.3   l0,0l0,0.1c0.1,0.4,0.5,0.5,0.9,0.5c0.4,0,1.7,0.1,2-0.3c0.1-0.2,0.2-0.4,0.1-0.6c-0.1-0.7-0.6-1.6-1.2-2c-0.1,0-0.1,0-0.2,0   c-0.1,0-0.1,0-0.1-0.1c0-0.1-0.8-0.6-1-0.6l-0.1,0c0,0-0.1,0-0.1,0c0.1,0,0.1,0,0.2-0.3c0-0.2-0.1-0.3-0.1-0.4   c-0.1-1-0.3-0.4-0.8-0.6c-0.7-0.3-2,0.4-1.2,1c-0.1,0.1-0.2,0.2-0.2,0.3l0,0.1c0,0,0,0.1,0,0.2c-0.3-0.3-0.7,0.1-0.8,0.3   c0-0.1-0.1-0.1-0.4,0c-0.4,0.3-1.4,1.3-1.1,1.9c-0.1,0.1-0.2,0.2-0.2,0.4c-0.2,1.1,0.2,2.2,1.1,2.9c0.9,0.8,2.1,0.7,3,1.2   c0.2,0.1,0.4,0.3,0.6,0.5c0.1,0,0.1,0.1,0,0.1c-0.4,0.2-0.3,0.5-0.9,0.5c-0.3,0-1-0.2-1.2-0.6l-0.1-0.1l-0.3-0.3   c-0.2,0-0.4,0-0.5,0c-0.4,0-0.7-0.2-1.2-0.1c-1.1,0-0.8,1.2-0.5,1.8c0.4,0.9,1.3,1.8,2.4,1.9l0.1,0l0,0.1l0,0.1   c0,0.3,0,0.7,0.1,0.9l0.1,0.1l0.3-0.2l0,0l-0.3,0.3c0.1,0.4,1.2,0.2,1.3,0.2l0.1,0c0.5,0,0.8-0.3,0.8-0.8c0-0.1-0.1-0.5,0-0.5   l-0.1-0.1l0-0.1c0.2,0.1,0.1,0.2,0.3,0.2c0.4,0,1.2-0.5,1.3-0.8c0.2,0,0.3,0,0.5-0.1C449.2,528.6,449.6,527.5,449.5,526.7   L449.5,526.7z"
   style="fill:#FFFFFF;"
   id="path102" />
</g>
</svg>
