<svg xmlns="http://www.w3.org/2000/svg"  viewBox="0 0 40 40" width="160px" height="160px"><path fill="#b0c1d4" d="M9,38.5c-1.379,0-2.5-1.122-2.5-2.5V4c0-1.378,1.121-2.5,2.5-2.5h22c1.379,0,2.5,1.122,2.5,2.5v32 c0,1.378-1.121,2.5-2.5,2.5H9z"/><path fill="#66798f" d="M31,2c1.103,0,2,0.897,2,2v32c0,1.103-0.897,2-2,2H9c-1.103,0-2-0.897-2-2V4c0-1.103,0.897-2,2-2 H31 M31,1H9C7.343,1,6,2.343,6,4v32c0,1.657,1.343,3,3,3h22c1.657,0,3-1.343,3-3V4C34,2.343,32.657,1,31,1L31,1z"/><path fill="#d6dfeb" d="M7,14V4c0-1.105,0.895-2,2-2h22c1.105,0,2,0.895,2,2v10H7z"/><path fill="#bae0bd" d="M10.5 5.5H29.5V10.5H10.5z"/><path fill="#5e9c76" d="M29,6v4H11V6H29 M30,5H10v6h20V5L30,5z"/><path fill="#fff" d="M15 17H18V20H15zM10 17H13V20H10zM20 17H23V20H20z"/><path fill="#ffeea3" d="M27 17H30V20H27z"/><path fill="#fff" d="M15 22H18V25H15zM10 22H13V25H10zM20 22H23V25H20z"/><path fill="#ffeea3" d="M27 22H30V25H27z"/><path fill="#fff" d="M15 27H18V30H15zM10 27H13V30H10zM20 27H23V30H20z"/><path fill="#ffeea3" d="M27 27H30V30H27z"/><path fill="#fff" d="M15 32H18V35H15zM10 32H13V35H10zM20 32H23V35H20z"/><path fill="#f78f8f" d="M27 32H30V35H27z"/><path fill="#5e9c76" d="M27 8H28V9H27zM25 8H26V9H25zM23 8H24V9H23z"/></svg>