<svg width="500" height="500" viewBox="0 0 500 500" fill="none" xmlns="http://www.w3.org/2000/svg">
<path d="M65 135C62.3478 135 59.8043 136.054 57.9289 137.929C56.0536 139.804 55 142.348 55 145C55 147.652 56.0536 150.196 57.9289 152.071C59.8043 153.946 62.3478 155 65 155C67.6522 155 70.1957 153.946 72.0711 152.071C73.9464 150.196 75 147.652 75 145C75 142.348 73.9464 139.804 72.0711 137.929C70.1957 136.054 67.6522 135 65 135Z" fill="#EE3E54"/>
<path d="M385 60C383.674 60 382.402 60.5268 381.464 61.4645C380.527 62.4021 380 63.6739 380 65C380 66.3261 380.527 67.5979 381.464 68.5355C382.402 69.4732 383.674 70 385 70C386.326 70 387.598 69.4732 388.536 68.5355C389.473 67.5979 390 66.3261 390 65C390 63.6739 389.473 62.4021 388.536 61.4645C387.598 60.5268 386.326 60 385 60Z" fill="#1687A7"/>
<path d="M250 65C200.935 65 153.879 84.491 119.185 119.185C84.491 153.879 65 200.935 65 250C65 299.065 84.491 346.121 119.185 380.815C153.879 415.509 200.935 435 250 435C299.065 435 346.121 415.509 380.815 380.815C415.509 346.121 435 299.065 435 250C435 200.935 415.509 153.879 380.815 119.185C346.121 84.491 299.065 65 250 65V65Z" fill="#D3E0EA"/>
<path d="M415 55C409.696 55 404.609 57.1071 400.858 60.8579C397.107 64.6086 395 69.6957 395 75C395 80.3043 397.107 85.3914 400.858 89.1421C404.609 92.8929 409.696 95 415 95C420.304 95 425.391 92.8929 429.142 89.1421C432.893 85.3914 435 80.3043 435 75C435 69.6957 432.893 64.6086 429.142 60.8579C425.391 57.1071 420.304 55 415 55V55Z" fill="#1687A7"/>
<path d="M435 110C432.348 110 429.804 111.054 427.929 112.929C426.054 114.804 425 117.348 425 120C425 122.652 426.054 125.196 427.929 127.071C429.804 128.946 432.348 130 435 130C437.652 130 440.196 128.946 442.071 127.071C443.946 125.196 445 122.652 445 120C445 117.348 443.946 114.804 442.071 112.929C440.196 111.054 437.652 110 435 110Z" fill="#EE3E54"/>
<path d="M405 370C402.348 370 399.804 371.054 397.929 372.929C396.054 374.804 395 377.348 395 380C395 382.652 396.054 385.196 397.929 387.071C399.804 388.946 402.348 390 405 390C407.652 390 410.196 388.946 412.071 387.071C413.946 385.196 415 382.652 415 380C415 377.348 413.946 374.804 412.071 372.929C410.196 371.054 407.652 370 405 370ZM75 295C69.6957 295 64.6086 297.107 60.8579 300.858C57.1071 304.609 55 309.696 55 315C55 320.304 57.1071 325.391 60.8579 329.142C64.6086 332.893 69.6957 335 75 335C80.3043 335 85.3914 332.893 89.1421 329.142C92.8929 325.391 95 320.304 95 315C95 309.696 92.8929 304.609 89.1421 300.858C85.3914 297.107 80.3043 295 75 295Z" fill="#1687A7"/>
<path d="M125 425C122.348 425 119.804 426.054 117.929 427.929C116.054 429.804 115 432.348 115 435C115 437.652 116.054 440.196 117.929 442.071C119.804 443.946 122.348 445 125 445C127.652 445 130.196 443.946 132.071 442.071C133.946 440.196 135 437.652 135 435C135 432.348 133.946 429.804 132.071 427.929C130.196 426.054 127.652 425 125 425Z" fill="#EE3E54"/>
<path d="M92.5 255C89.1848 255 86.0054 256.317 83.6612 258.661C81.317 261.005 80 264.185 80 267.5C80 270.815 81.317 273.995 83.6612 276.339C86.0054 278.683 89.1848 280 92.5 280C95.8152 280 98.9946 278.683 101.339 276.339C103.683 273.995 105 270.815 105 267.5C105 264.185 103.683 261.005 101.339 258.661C98.9946 256.317 95.8152 255 92.5 255V255Z" fill="white"/>
<path d="M105 330C103.674 330 102.402 330.527 101.464 331.464C100.527 332.402 100 333.674 100 335C100 336.326 100.527 337.598 101.464 338.536C102.402 339.473 103.674 340 105 340C106.326 340 107.598 339.473 108.536 338.536C109.473 337.598 110 336.326 110 335C110 333.674 109.473 332.402 108.536 331.464C107.598 330.527 106.326 330 105 330Z" fill="#1687A7"/>
<path d="M400 165C398.674 165 397.402 165.527 396.464 166.464C395.527 167.402 395 168.674 395 170C395 171.326 395.527 172.598 396.464 173.536C397.402 174.473 398.674 175 400 175C401.326 175 402.598 174.473 403.536 173.536C404.473 172.598 405 171.326 405 170C405 168.674 404.473 167.402 403.536 166.464C402.598 165.527 401.326 165 400 165Z" fill="white"/>
<path d="M317.74 352.23H158.19C142.95 352.23 130.48 339.76 130.48 324.52V164.965C130.48 149.725 142.95 137.255 158.19 137.255H317.745C332.985 137.255 345.455 149.725 345.455 164.965V324.52C345.45 339.76 332.98 352.23 317.74 352.23Z" fill="#FDFCEE"/>
<path d="M317.74 355.73H158.185C140.98 355.73 126.975 341.725 126.975 324.52V164.97C126.975 147.765 140.98 133.76 158.185 133.76H317.74C334.945 133.76 348.95 147.765 348.95 164.97V324.52C348.955 341.725 334.95 355.73 317.74 355.73ZM158.185 140.76C144.835 140.76 133.975 151.62 133.975 164.97V324.52C133.975 337.87 144.835 348.73 158.185 348.73H317.74C331.09 348.73 341.95 337.87 341.95 324.52V164.97C341.95 151.62 331.09 140.76 317.74 140.76H158.185Z" fill="#472B29"/>
<path d="M133.92 170.45H342.005V328.52H133.92V170.45Z" fill="#C0E5E4"/>
<path d="M299.615 172.95H280.645C279.265 172.95 278.145 171.83 278.145 170.45C278.145 169.07 279.265 167.95 280.645 167.95H299.615C300.995 167.95 302.115 169.07 302.115 170.45C302.115 171.83 300.995 172.95 299.615 172.95ZM271.16 172.95H132.06C130.68 172.95 129.56 171.83 129.56 170.45C129.56 169.07 130.68 167.95 132.06 167.95H271.16C272.54 167.95 273.66 169.07 273.66 170.45C273.66 171.83 272.54 172.95 271.16 172.95ZM343.87 172.95H315.42C314.04 172.95 312.92 171.83 312.92 170.45C312.92 169.07 314.04 167.95 315.42 167.95H343.87C345.25 167.95 346.37 169.07 346.37 170.45C346.37 171.83 345.25 172.95 343.87 172.95ZM343.87 331.015H169.995C168.615 331.015 167.495 329.895 167.495 328.515C167.495 327.135 168.615 326.015 169.995 326.015H343.87C345.25 326.015 346.37 327.135 346.37 328.515C346.37 329.895 345.25 331.015 343.87 331.015ZM160.51 331.015H132.06C130.68 331.015 129.56 329.895 129.56 328.515C129.56 327.135 130.68 326.015 132.06 326.015H160.51C161.89 326.015 163.01 327.135 163.01 328.515C163.01 329.895 161.895 331.015 160.51 331.015Z" fill="#472B29"/>
<path d="M157.35 148.32C155.672 148.32 154.064 148.986 152.878 150.173C151.691 151.359 151.025 152.968 151.025 154.645C151.025 156.322 151.691 157.931 152.878 159.117C154.064 160.304 155.672 160.97 157.35 160.97C159.027 160.97 160.636 160.304 161.822 159.117C163.009 157.931 163.675 156.322 163.675 154.645C163.675 152.968 163.009 151.359 161.822 150.173C160.636 148.986 159.027 148.32 157.35 148.32Z" fill="#EE3E54"/>
<path d="M157.345 162.465C153.035 162.465 149.53 158.96 149.53 154.65C149.53 150.34 153.035 146.83 157.345 146.83C161.655 146.83 165.165 150.34 165.165 154.65C165.165 158.96 161.66 162.465 157.345 162.465ZM157.345 149.82C154.69 149.82 152.525 151.985 152.525 154.645C152.525 157.3 154.69 159.465 157.345 159.465C160.005 159.465 162.17 157.3 162.17 154.645C162.17 151.985 160.01 149.82 157.345 149.82Z" fill="#472B29"/>
<path d="M179.48 148.32C177.802 148.32 176.194 148.986 175.008 150.173C173.821 151.359 173.155 152.968 173.155 154.645C173.155 156.322 173.821 157.931 175.008 159.117C176.194 160.304 177.802 160.97 179.48 160.97C181.157 160.97 182.766 160.304 183.952 159.117C185.139 157.931 185.805 156.322 185.805 154.645C185.805 152.968 185.139 151.359 183.952 150.173C182.766 148.986 181.157 148.32 179.48 148.32Z" fill="#F1BC19"/>
<path d="M179.48 162.465C175.17 162.465 171.66 158.96 171.66 154.65C171.66 150.34 175.17 146.83 179.48 146.83C183.79 146.83 187.295 150.34 187.295 154.65C187.295 158.96 183.79 162.465 179.48 162.465ZM179.48 149.82C176.82 149.82 174.655 151.985 174.655 154.645C174.655 157.3 176.82 159.465 179.48 159.465C182.135 159.465 184.3 157.3 184.3 154.645C184.3 151.985 182.135 149.82 179.48 149.82Z" fill="#472B29"/>
<path d="M201.61 148.32C199.932 148.32 198.324 148.986 197.138 150.173C195.951 151.359 195.285 152.968 195.285 154.645C195.285 156.322 195.951 157.931 197.138 159.117C198.324 160.304 199.932 160.97 201.61 160.97C203.287 160.97 204.896 160.304 206.082 159.117C207.269 157.931 207.935 156.322 207.935 154.645C207.935 152.968 207.269 151.359 206.082 150.173C204.896 148.986 203.287 148.32 201.61 148.32Z" fill="#88AE45"/>
<path d="M201.61 162.465C197.3 162.465 193.79 158.96 193.79 154.65C193.79 150.34 197.3 146.83 201.61 146.83C205.92 146.83 209.43 150.34 209.43 154.65C209.43 158.96 205.92 162.465 201.61 162.465ZM201.61 149.82C198.95 149.82 196.785 151.985 196.785 154.645C196.785 157.3 198.95 159.465 201.61 159.465C204.27 159.465 206.435 157.3 206.435 154.645C206.435 151.985 204.27 149.82 201.61 149.82Z" fill="#472B29"/>
<path d="M195.15 192.145H279.555V216.235H195.15V192.145Z" fill="#FDFCEE"/>
<path d="M279.555 217.865H195.15C194.25 217.865 193.525 217.135 193.525 216.24V192.15C193.525 191.25 194.255 190.525 195.15 190.525H279.555C280.455 190.525 281.18 191.255 281.18 192.15V216.24C281.18 217.135 280.45 217.865 279.555 217.865ZM196.775 214.61H277.925V193.77H196.775V214.61V214.61Z" fill="#472B29"/>
<path d="M195.15 226.53H279.555V250.62H195.15V226.53Z" fill="#FDFCEE"/>
<path d="M279.555 252.25H195.15C194.25 252.25 193.525 251.52 193.525 250.625V226.535C193.525 225.635 194.255 224.91 195.15 224.91H279.555C280.455 224.91 281.18 225.64 281.18 226.535V250.625C281.18 251.52 280.45 252.25 279.555 252.25ZM196.775 248.995H277.925V228.155H196.775V248.995V248.995Z" fill="#472B29"/>
<path d="M219.625 234.63C219.74 234.68 219.875 234.77 220.025 234.9L220.05 234.955C220.165 235.095 220.265 235.255 220.35 235.435C220.435 235.615 220.475 235.78 220.475 235.93C220.475 236.185 220.36 236.415 220.13 236.62L217.335 238.495L220.13 240.35L220.055 240.29C220.355 240.445 220.505 240.665 220.505 240.96C220.505 241.085 220.455 241.235 220.365 241.4C220.275 241.565 220.17 241.705 220.055 241.82L220.03 241.935C219.88 242.06 219.745 242.145 219.63 242.18C219.515 242.215 219.38 242.24 219.23 242.24C218.915 242.24 218.68 242.155 218.53 241.99L216.885 240.92V242.93C216.885 243.07 216.835 243.2 216.735 243.32C216.635 243.44 216.51 243.545 216.36 243.63C216.21 243.71 216.045 243.775 215.86 243.82C215.675 243.865 215.5 243.89 215.335 243.89H215.235C214.835 243.89 214.575 243.815 214.45 243.66C214.325 243.505 214.245 243.32 214.21 243.105V241.02L212.615 242.07C212.38 242.245 212.14 242.34 211.89 242.34C211.76 242.34 211.615 242.31 211.455 242.255C211.295 242.195 211.17 242.1 211.07 241.96L211.045 241.885C210.945 241.77 210.855 241.615 210.785 241.425C210.71 241.235 210.67 241.07 210.67 240.93C210.67 240.665 210.775 240.445 210.995 240.28L213.74 238.465L210.995 236.63C210.78 236.455 210.67 236.245 210.67 236C210.67 235.68 210.82 235.375 211.12 235.085L211.195 235.01C211.31 234.905 211.425 234.835 211.535 234.8C211.64 234.76 211.765 234.74 211.895 234.74C212.01 234.74 212.135 234.755 212.255 234.79C212.38 234.82 212.5 234.88 212.615 234.97L214.265 236.06V234.21C214.265 233.93 214.435 233.705 214.775 233.54C215.115 233.375 215.47 233.295 215.84 233.295H215.915C216.3 233.295 216.55 233.365 216.675 233.505C216.8 233.645 216.88 233.82 216.915 234.04L216.89 235.895L218.535 234.805L218.485 234.84C218.715 234.665 218.965 234.57 219.235 234.57C219.375 234.555 219.51 234.58 219.625 234.63ZM234.135 234.63C234.25 234.68 234.385 234.77 234.535 234.9L234.56 234.955C234.675 235.095 234.775 235.255 234.86 235.435C234.945 235.615 234.985 235.78 234.985 235.93C234.985 236.185 234.87 236.415 234.64 236.62L231.845 238.495L234.64 240.35L234.565 240.29C234.865 240.445 235.015 240.665 235.015 240.96C235.015 241.085 234.965 241.235 234.875 241.4C234.785 241.565 234.68 241.705 234.565 241.82L234.54 241.935C234.39 242.06 234.255 242.145 234.14 242.18C234.025 242.215 233.89 242.24 233.74 242.24C233.425 242.24 233.19 242.155 233.04 241.99L231.395 240.92V242.93C231.395 243.07 231.345 243.2 231.245 243.32C231.145 243.44 231.02 243.545 230.87 243.63C230.72 243.71 230.555 243.775 230.37 243.82C230.185 243.865 230.01 243.89 229.845 243.89H229.745C229.345 243.89 229.085 243.815 228.96 243.66C228.835 243.505 228.755 243.32 228.72 243.105V241.02L227.125 242.07C226.89 242.245 226.65 242.34 226.4 242.34C226.27 242.34 226.125 242.31 225.965 242.255C225.805 242.195 225.68 242.1 225.58 241.96L225.555 241.885C225.455 241.77 225.365 241.615 225.295 241.425C225.22 241.235 225.18 241.07 225.18 240.93C225.18 240.665 225.285 240.445 225.505 240.28L228.25 238.465L225.5 236.62C225.285 236.445 225.175 236.235 225.175 235.99C225.175 235.67 225.325 235.365 225.625 235.075L225.7 235C225.815 234.895 225.93 234.825 226.04 234.79C226.145 234.75 226.27 234.73 226.4 234.73C226.515 234.73 226.64 234.745 226.76 234.78C226.885 234.81 227.005 234.87 227.12 234.96L228.77 236.05V234.2C228.77 233.92 228.94 233.695 229.28 233.53C229.62 233.365 229.975 233.285 230.345 233.285H230.42C230.805 233.285 231.055 233.355 231.18 233.495C231.305 233.635 231.385 233.81 231.42 234.03L231.395 235.885L233.04 234.795L232.99 234.83C233.22 234.655 233.47 234.56 233.74 234.56C233.885 234.555 234.02 234.58 234.135 234.63ZM248.65 234.63C248.765 234.68 248.9 234.77 249.05 234.9L249.075 234.955C249.19 235.095 249.29 235.255 249.375 235.435C249.46 235.615 249.5 235.78 249.5 235.93C249.5 236.185 249.385 236.415 249.155 236.62L246.36 238.495L249.155 240.35L249.08 240.29C249.38 240.445 249.53 240.665 249.53 240.96C249.53 241.085 249.48 241.235 249.39 241.4C249.3 241.565 249.195 241.705 249.08 241.82L249.055 241.935C248.905 242.06 248.77 242.145 248.655 242.18C248.54 242.215 248.405 242.24 248.255 242.24C247.94 242.24 247.705 242.155 247.555 241.99L245.91 240.92V242.93C245.91 243.07 245.86 243.2 245.76 243.32C245.66 243.44 245.535 243.545 245.385 243.63C245.235 243.71 245.07 243.775 244.885 243.82C244.7 243.865 244.525 243.89 244.36 243.89H244.26C243.86 243.89 243.6 243.815 243.475 243.66C243.35 243.505 243.27 243.32 243.235 243.105V241.02L241.64 242.07C241.405 242.245 241.165 242.34 240.915 242.34C240.785 242.34 240.64 242.31 240.48 242.255C240.32 242.195 240.195 242.1 240.095 241.96L240.07 241.885C239.97 241.77 239.88 241.615 239.81 241.425C239.735 241.235 239.695 241.07 239.695 240.93C239.695 240.665 239.8 240.445 240.02 240.28L242.765 238.465L240.02 236.63C239.805 236.455 239.695 236.245 239.695 236C239.695 235.68 239.845 235.375 240.145 235.085L240.22 235.01C240.335 234.905 240.45 234.835 240.56 234.8C240.665 234.76 240.79 234.74 240.92 234.74C241.035 234.74 241.16 234.755 241.28 234.79C241.405 234.82 241.525 234.88 241.64 234.97L243.29 236.06V234.21C243.29 233.93 243.46 233.705 243.8 233.54C244.14 233.375 244.495 233.295 244.865 233.295H244.94C245.325 233.295 245.575 233.365 245.7 233.505C245.825 233.645 245.905 233.82 245.94 234.04L245.915 235.895L247.56 234.805L247.51 234.84C247.74 234.665 247.99 234.57 248.26 234.57C248.4 234.555 248.535 234.58 248.65 234.63ZM263.16 234.63C263.275 234.68 263.41 234.77 263.56 234.9L263.585 234.955C263.7 235.095 263.8 235.255 263.885 235.435C263.97 235.615 264.01 235.78 264.01 235.93C264.01 236.185 263.895 236.415 263.665 236.62L260.87 238.495L263.665 240.35L263.59 240.29C263.89 240.445 264.04 240.665 264.04 240.96C264.04 241.085 263.99 241.235 263.9 241.4C263.81 241.565 263.705 241.705 263.59 241.82L263.565 241.935C263.415 242.06 263.28 242.145 263.165 242.18C263.05 242.215 262.915 242.24 262.765 242.24C262.45 242.24 262.215 242.155 262.065 241.99L260.42 240.92V242.93C260.42 243.07 260.37 243.2 260.27 243.32C260.17 243.44 260.045 243.545 259.895 243.63C259.745 243.71 259.58 243.775 259.395 243.82C259.21 243.865 259.035 243.89 258.87 243.89H258.77C258.37 243.89 258.11 243.815 257.985 243.66C257.86 243.505 257.78 243.32 257.745 243.105V241.02L256.15 242.07C255.915 242.245 255.675 242.34 255.425 242.34C255.295 242.34 255.15 242.31 254.99 242.255C254.83 242.195 254.705 242.1 254.605 241.96L254.58 241.885C254.48 241.77 254.39 241.615 254.32 241.425C254.245 241.235 254.205 241.07 254.205 240.93C254.205 240.665 254.31 240.445 254.53 240.28L257.275 238.465L254.53 236.63C254.315 236.455 254.205 236.245 254.205 236C254.205 235.68 254.355 235.375 254.655 235.085L254.73 235.01C254.845 234.905 254.96 234.835 255.07 234.8C255.175 234.76 255.3 234.74 255.43 234.74C255.545 234.74 255.67 234.755 255.79 234.79C255.915 234.82 256.035 234.88 256.15 234.97L257.8 236.06V234.21C257.8 233.93 257.97 233.705 258.31 233.54C258.65 233.375 259.005 233.295 259.375 233.295H259.45C259.835 233.295 260.085 233.365 260.21 233.505C260.335 233.645 260.415 233.82 260.45 234.04L260.425 235.895L262.07 234.805L262.02 234.84C262.25 234.665 262.5 234.57 262.77 234.57C262.91 234.555 263.045 234.58 263.16 234.63Z" fill="#472B29"/>
<path d="M269.4 289.435H205.3C199.715 289.435 195.15 284.865 195.15 279.285V276.255C195.15 270.67 199.72 266.105 205.3 266.105H269.4C274.985 266.105 279.55 270.675 279.55 276.255V279.285C279.555 284.87 274.985 289.435 269.4 289.435Z" fill="#88AE45"/>
<path d="M269.405 290.935H205.3C198.875 290.935 193.65 285.71 193.65 279.285V276.26C193.65 269.835 198.875 264.61 205.3 264.61H269.4C275.825 264.61 281.05 269.835 281.05 276.26V279.285C281.055 285.71 275.83 290.935 269.405 290.935ZM205.3 267.605C200.53 267.605 196.65 271.485 196.65 276.255V279.28C196.65 284.05 200.53 287.93 205.3 287.93H269.4C274.17 287.93 278.05 284.05 278.05 279.28V276.255C278.05 271.485 274.17 267.605 269.4 267.605H205.3Z" fill="#472B29"/>
<path d="M368.56 299.615V272.42C368.56 257.515 354.265 245.7 339.63 245.7C324.965 245.7 309.615 257.78 309.615 272.69V299.615H320.015V273.03C320.015 264.185 330.18 257.04 338.625 257.04C347.05 257.04 356.425 264.04 356.425 272.87V299.615H368.56Z" fill="#276678"/>
<path d="M370.44 301.49H354.55V272.865C354.55 265.005 345.99 258.91 338.625 258.91C331.09 258.91 321.89 265.425 321.89 273.025V301.485H307.74V272.685C307.74 256.16 324.575 243.82 339.625 243.82C356.035 243.82 370.435 257.18 370.435 272.415L370.44 301.49ZM358.3 297.74H366.69V272.42C366.69 259.19 354.045 247.575 339.63 247.575C326.615 247.575 311.495 258.545 311.495 272.69V297.74H318.145V273.03C318.145 262.965 329.155 255.165 338.63 255.165C347.915 255.165 358.305 262.74 358.305 272.87L358.3 297.74Z" fill="#472B29"/>
<path d="M368.565 302.115C367.185 302.115 366.065 300.995 366.065 299.615V272.42C366.065 259.52 353.71 248.2 339.63 248.2C326.91 248.2 312.12 258.9 312.12 272.69V299.615C312.12 300.995 311 302.115 309.62 302.115C308.24 302.115 307.12 300.995 307.12 299.615V272.69C307.12 255.81 324.285 243.2 339.63 243.2C356.38 243.2 371.065 256.85 371.065 272.42V299.615C371.065 301 369.945 302.115 368.565 302.115Z" fill="#472B29"/>
<path d="M348.765 363.76H327.675C306.775 363.76 289.68 346.66 289.68 325.765V300.375C289.68 295.19 293.92 290.95 299.105 290.95H377.34C382.525 290.95 386.765 295.19 386.765 300.375V325.765C386.765 346.66 369.665 363.76 348.765 363.76Z" fill="#276678"/>
<path d="M348.77 366.26H327.675C305.345 366.26 287.175 348.09 287.175 325.76V300.365C287.175 293.79 292.525 288.44 299.105 288.44H377.335C383.91 288.44 389.265 293.79 389.265 300.37V325.76C389.265 348.095 371.095 366.26 348.77 366.26ZM299.105 293.445C295.285 293.445 292.175 296.55 292.175 300.37V325.765C292.175 345.34 308.1 361.265 327.675 361.265H348.77C368.345 361.265 384.27 345.34 384.27 325.765V300.375C384.27 296.555 381.16 293.445 377.34 293.445H299.105V293.445Z" fill="#472B29"/>
<path d="M291.41 303.95H385.03V319.555H291.41V303.95Z" fill="#F1BC19"/>
<path d="M386.765 321.18H289.675C288.775 321.18 288.05 320.45 288.05 319.555C288.05 318.66 288.78 317.93 289.675 317.93H386.765C387.665 317.93 388.39 318.66 388.39 319.555C388.39 320.45 387.665 321.18 386.765 321.18ZM356.425 305.575H289.675C288.775 305.575 288.05 304.845 288.05 303.95C288.05 303.055 288.78 302.325 289.675 302.325H356.425C357.325 302.325 358.05 303.055 358.05 303.95C358.05 304.845 357.325 305.575 356.425 305.575ZM375.495 305.575H363.355C362.455 305.575 361.73 304.845 361.73 303.95C361.73 303.055 362.46 302.325 363.355 302.325H375.495C376.395 302.325 377.12 303.055 377.12 303.95C377.12 304.845 376.395 305.575 375.495 305.575ZM385.895 305.575H380.695C379.795 305.575 379.07 304.845 379.07 303.95C379.07 303.055 379.8 302.325 380.695 302.325H385.895C386.795 302.325 387.52 303.055 387.52 303.95C387.52 304.845 386.795 305.575 385.895 305.575Z" fill="#472B29"/>
<path d="M289.675 317.35C289.55 317.35 289.425 317.31 289.315 317.24C289.035 317.04 288.97 316.65 289.165 316.365L298.175 303.53C298.375 303.245 298.755 303.19 299.05 303.38C299.33 303.58 299.395 303.97 299.2 304.255L290.19 317.09C290.065 317.26 289.87 317.35 289.675 317.35Z" fill="#472B29"/>
<path d="M303.115 319.455C302.995 319.455 302.865 319.415 302.76 319.345C302.475 319.145 302.41 318.755 302.605 318.47L313.005 303.64C313.2 303.36 313.59 303.295 313.875 303.49C314.16 303.69 314.225 304.08 314.03 304.36L303.63 319.19C303.505 319.36 303.31 319.455 303.115 319.455Z" fill="#472B29"/>
<path d="M316.405 319.455C316.28 319.455 316.155 319.415 316.045 319.345C315.765 319.145 315.7 318.755 315.895 318.47L326.3 303.64C326.5 303.355 326.885 303.3 327.175 303.49C327.455 303.69 327.52 304.08 327.325 304.365L316.92 319.195C316.795 319.36 316.6 319.455 316.405 319.455Z" fill="#472B29"/>
<path d="M329.695 319.455C329.57 319.455 329.445 319.415 329.335 319.345C329.055 319.145 328.99 318.755 329.185 318.47L339.59 303.64C339.79 303.355 340.175 303.3 340.465 303.49C340.745 303.69 340.81 304.08 340.615 304.365L330.21 319.195C330.085 319.36 329.89 319.455 329.695 319.455Z" fill="#472B29"/>
<path d="M342.985 319.455C342.86 319.455 342.735 319.415 342.625 319.345C342.345 319.145 342.28 318.755 342.475 318.47L352.88 303.64C353.075 303.355 353.465 303.3 353.755 303.49C354.035 303.69 354.1 304.08 353.905 304.365L343.5 319.19C343.375 319.36 343.18 319.455 342.985 319.455Z" fill="#472B29"/>
<path d="M356.285 319.455C356.165 319.455 356.035 319.415 355.93 319.345C355.645 319.145 355.58 318.755 355.775 318.47L366.175 303.64C366.37 303.36 366.76 303.295 367.045 303.49C367.33 303.69 367.395 304.08 367.2 304.36L356.8 319.19C356.675 319.36 356.48 319.455 356.285 319.455Z" fill="#472B29"/>
<path d="M369.575 319.455C369.455 319.455 369.325 319.415 369.22 319.345C368.935 319.145 368.87 318.755 369.065 318.47L379.465 303.64C379.66 303.36 380.05 303.295 380.335 303.49C380.62 303.69 380.685 304.08 380.49 304.36L370.09 319.19C369.965 319.36 369.77 319.455 369.575 319.455Z" fill="#472B29"/>
<path d="M343.64 350.76L340.64 340.75C340.43 340.18 340.065 339.695 340.58 339.37C342.135 338.39 343.045 336.485 342.515 334.41C342.13 332.905 340.905 331.67 339.405 331.275C336.41 330.49 333.72 332.73 333.72 335.6C333.72 337.18 334.54 338.56 335.775 339.35C336.305 339.69 336.125 340.085 335.91 340.68L332.75 350.765L343.64 350.76Z" fill="#19456B"/>
<path d="M343.64 352.135H332.745C332.305 352.135 331.895 351.925 331.635 351.575C331.375 351.22 331.3 350.765 331.43 350.35L334.595 340.265C334.595 340.265 334.605 340.245 334.615 340.21C333.185 339.105 332.34 337.41 332.34 335.59C332.34 333.76 333.175 332.065 334.625 330.945C336.075 329.82 337.94 329.455 339.75 329.935C341.73 330.455 343.335 332.075 343.845 334.06C344.425 336.34 343.64 338.695 341.865 340.125L341.925 340.27L344.95 350.36C345.07 350.775 344.995 351.23 344.735 351.575C344.485 351.93 344.075 352.135 343.64 352.135ZM334.62 349.38H341.795L339.325 341.145C338.71 339.725 338.915 338.785 339.855 338.2C341.01 337.47 341.535 336.115 341.185 334.75C340.925 333.73 340.065 332.865 339.05 332.595C338.07 332.345 337.08 332.525 336.305 333.125C335.535 333.715 335.095 334.62 335.095 335.59C335.095 336.645 335.625 337.615 336.52 338.19C337.945 339.11 337.43 340.52 337.24 341.05L334.62 349.38ZM341.325 340.525C341.325 340.525 341.32 340.53 341.315 340.53C341.32 340.53 341.325 340.525 341.325 340.525Z" fill="#472B29"/>
<path d="M296 319.84C295.875 319.84 295.75 319.8 295.64 319.73C295.36 319.53 295.295 319.14 295.49 318.855L305.895 304.03C306.09 303.745 306.48 303.69 306.77 303.88C307.05 304.08 307.115 304.47 306.92 304.755L296.515 319.58C296.39 319.75 296.195 319.84 296 319.84Z" fill="#472B29"/>
<path d="M309.615 319.84C309.49 319.84 309.365 319.8 309.255 319.73C308.975 319.53 308.91 319.14 309.105 318.855L319.505 304.03C319.705 303.745 320.09 303.69 320.38 303.88C320.66 304.08 320.725 304.47 320.53 304.755L310.13 319.58C310.01 319.75 309.815 319.84 309.615 319.84Z" fill="#472B29"/>
<path d="M322.89 319.455C322.77 319.455 322.64 319.415 322.535 319.345C322.25 319.145 322.185 318.755 322.38 318.47L332.78 303.64C332.975 303.36 333.365 303.295 333.65 303.49C333.935 303.69 334 304.08 333.805 304.36L323.405 319.19C323.28 319.36 323.085 319.455 322.89 319.455Z" fill="#472B29"/>
<path d="M335.845 319.84C335.72 319.84 335.595 319.8 335.485 319.73C335.205 319.53 335.14 319.14 335.335 318.855L345.735 304.03C345.935 303.745 346.315 303.69 346.61 303.88C346.89 304.08 346.955 304.47 346.76 304.755L336.36 319.58C336.235 319.75 336.04 319.84 335.845 319.84Z" fill="#472B29"/>
<path d="M349.7 319.84C349.575 319.84 349.45 319.8 349.34 319.73C349.06 319.53 348.995 319.14 349.19 318.855L359.59 304.03C359.79 303.745 360.17 303.69 360.465 303.88C360.745 304.08 360.81 304.47 360.615 304.755L350.215 319.58C350.09 319.75 349.895 319.84 349.7 319.84Z" fill="#472B29"/>
<path d="M362.495 320.18C362.375 320.18 362.245 320.14 362.14 320.07C361.855 319.87 361.79 319.48 361.985 319.195L372.385 304.365C372.58 304.08 372.975 304.02 373.255 304.215C373.54 304.415 373.605 304.805 373.41 305.085L363.01 319.915C362.885 320.085 362.69 320.18 362.495 320.18Z" fill="#472B29"/>
<path d="M375.885 320.18C375.76 320.18 375.635 320.14 375.525 320.07C375.245 319.87 375.18 319.48 375.375 319.195L385.78 304.365C385.98 304.075 386.365 304.03 386.655 304.215C386.935 304.415 387 304.805 386.805 305.09L376.4 319.92C376.28 320.085 376.08 320.18 375.885 320.18Z" fill="#472B29"/>
</svg>
